<?xml version="1.0" encoding="UTF-8" standalone="no"?>
<!-- Created with Inkscape (http://www.inkscape.org/) -->

<svg
   inkscape:version="1.2 (dc2aedaf03, 2022-05-15)"
   sodipodi:docname="catra.svg"
   xml:space="preserve"
   id="svg5"
   version="1.1"
   viewBox="0 0 25.0 25.0"
   height="25.0mm"
   width="25.0mm"
   xmlns:inkscape="http://www.inkscape.org/namespaces/inkscape"
   xmlns:sodipodi="http://sodipodi.sourceforge.net/DTD/sodipodi-0.dtd"
   xmlns="http://www.w3.org/2000/svg"
   xmlns:svg="http://www.w3.org/2000/svg"><sodipodi:namedview
     id="namedview7"
     pagecolor="#505050"
     bordercolor="#ffffff"
     borderopacity="1"
     inkscape:showpageshadow="0"
     inkscape:pageopacity="0"
     inkscape:pagecheckerboard="1"
     inkscape:deskcolor="#505050"
     inkscape:document-units="mm"
     showgrid="false"
     inkscape:zoom="10.35098"
     inkscape:cx="67.24001"
     inkscape:cy="46.372421"
     inkscape:window-width="2560"
     inkscape:window-height="1377"
     inkscape:window-x="-8"
     inkscape:window-y="-8"
     inkscape:window-maximized="1"
     inkscape:current-layer="svg5" /><defs
     id="defs2" /><g
     inkscape:label="[fixed] BG"
     inkscape:groupmode="layer"
     sodipodi:insensitive="true"
     id="g619"><rect
       x="0"
       y="0"
       width="25.0"
       height="25.0"
       style="fill:#FFFFFF;fill-opacity:1;stroke:none"
       id="rect617" /></g><g
     inkscape:label="B.SilkS"
     inkscape:groupmode="layer"
     id="g552" /><g
     inkscape:label="F.SilkS"
     inkscape:groupmode="layer"
     id="g554" /><path
     style="display:inline;fill:#000000;stroke-width:0.0588753"
     d="M 8.8586014,24.678862 C 8.8211614,24.655038 8.6420495,24.185175 8.4605837,23.634728 8.2791165,23.084278 8.1062573,22.580925 8.0764532,22.516161 8.000433,22.350974 7.1043494,19.548008 6.9565511,19.013083 6.8894496,18.770223 6.783495,18.399309 6.7210986,18.188829 6.6587077,17.978351 6.5372735,17.554448 6.4512565,17.246824 6.365245,16.939201 6.2719722,16.628698 6.2439927,16.556818 6.2019643,16.448842 6.0834826,16.020592 5.9788095,15.598316 c -0.012082,-0.04857 -0.088672,-0.349551 -0.1702908,-0.668843 -0.1938599,-0.758365 -0.074079,-1.256345 0.1354925,-0.56332 0.043372,0.143395 0.1449395,0.459425 0.2257219,0.702285 0.080785,0.24286 0.1961757,0.613776 0.2564299,0.824254 0.06026,0.210479 0.1779051,0.621135 0.2614473,0.912568 0.083541,0.291432 0.2086037,0.728581 0.2779166,0.971442 0.069314,0.24286 0.1605209,0.498917 0.202685,0.569014 0.042164,0.0701 0.1052066,0.308543 0.1400918,0.529878 0.053078,0.336769 0.3458257,1.346058 0.5948708,2.050933 0.034318,0.09714 0.084342,0.25611 0.1111525,0.353253 0.026811,0.09714 0.1455028,0.441563 0.2637592,0.76538 0.3763587,1.030559 0.736069,2.11607 0.7364952,2.222541 4.996e-4,0.142952 0.1328047,0.128759 0.2742201,-0.02943 0.065133,-0.07286 0.5519764,-0.543125 1.0818815,-1.045037 0.529903,-0.501912 1.046096,-0.992048 1.147096,-1.089193 0.229867,-0.221098 1.690715,-1.548522 2.138169,-1.942885 0.183705,-0.161908 0.456368,-0.420223 0.605919,-0.574033 0.408795,-0.420441 0.664996,-0.376836 0.391575,0.06664 -0.191122,0.309994 -0.274173,0.401296 -0.63405,0.697038 -0.178097,0.146358 -0.511945,0.441748 -0.741882,0.656418 -0.229939,0.214672 -0.587606,0.540233 -0.794815,0.723469 -0.207213,0.183236 -0.509479,0.461423 -0.671707,0.618193 -0.162228,0.156769 -0.387427,0.362094 -0.500439,0.456278 -0.181926,0.151611 -0.391686,0.340799 -1.176925,1.06149 -0.82424,0.756484 -1.0932758,0.927867 -1.2750212,0.812215 z m 6.8564326,-3.708177 c -0.145537,-0.186194 -0.337674,-0.471004 -0.42697,-0.632909 -0.0893,-0.161907 -0.189044,-0.327158 -0.221661,-0.367222 -0.09327,-0.114559 -0.0049,-0.261676 0.144322,-0.24038 0.08749,0.01249 0.178703,0.108315 0.270097,0.283788 0.240132,0.461045 0.422578,0.598998 0.422578,0.319527 0,-0.171801 0.203612,-1.053734 0.325232,-1.40872 0.04438,-0.129519 0.123696,-0.460699 0.176279,-0.73594 0.05258,-0.275242 0.133456,-0.664849 0.179733,-0.865791 0.04628,-0.200944 0.08414,-0.440714 0.08414,-0.532822 0,-0.161136 0.09008,-0.308771 0.188401,-0.308771 0.0259,0 0.04711,0.03874 0.04711,0.08609 0,0.0832 0.607355,0.807489 0.708532,0.844944 0.02744,0.01018 0.08065,-0.09583 0.118266,-0.235502 0.03762,-0.13968 0.117343,-0.426175 0.177178,-0.636653 0.05984,-0.21048 0.164628,-0.660876 0.232876,-1.00088 0.06826,-0.340006 0.138289,-0.687477 0.15564,-0.772161 0.02579,-0.125895 -0.0043,-0.178549 -0.165311,-0.288786 -0.108275,-0.07415 -0.228706,-0.173774 -0.267627,-0.221387 -0.09435,-0.115401 -0.206687,-0.06424 -0.31144,0.141854 -1.081946,2.12859 -3.378139,3.018674 -4.929437,1.910826 -0.383485,-0.273861 -0.102533,-0.434103 0.353357,-0.201542 0.87841,0.44809 2.446818,0.140271 3.368654,-0.661142 0.937237,-0.814807 1.881147,-2.848009 1.451078,-3.125662 -0.09239,-0.05965 -0.317242,-0.208395 -0.499669,-0.330549 -0.253807,-0.169951 -0.367103,-0.213208 -0.482548,-0.184232 -0.137478,0.03451 -0.147603,0.02486 -0.114085,-0.108668 0.02856,-0.113827 0.0019,-0.174008 -0.119636,-0.269576 -0.199176,-0.15667 -0.175,-0.327318 0.05004,-0.353162 0.10799,-0.01235 0.193157,0.01746 0.24258,0.08503 0.07242,0.09906 0.38481,-0.0057 0.38481,-0.129085 0,-0.117859 -1.270388,-2.055002 -1.575812,-2.4028599 L 15.507981,8.4304452 14.778415,9.1254809 C 14.377153,9.5077488 13.935393,9.9285346 13.79673,10.060557 13.520524,10.323535 13.487319,10.321228 13.077407,10.010597 12.996457,9.949252 12.760975,9.7892791 12.554122,9.6551047 L 12.17803,9.4111596 12.038964,9.5418059 C 11.962484,9.6136589 11.8999,9.692998 11.8999,9.7181118 c 0,0.061685 -0.353048,0.5812372 -0.483832,0.7120212 -0.05771,0.05771 -0.104963,0.124795 -0.10503,0.149078 -5.9e-5,0.02429 -0.131624,0.189872 -0.292374,0.367971 -0.16075,0.178096 -0.293172,0.346483 -0.294274,0.374189 -0.0012,0.02771 -0.06824,0.129099 -0.14919,0.2253 -0.251182,0.298511 -0.259536,0.289277 0.579917,0.640938 0.689626,0.288896 0.683651,0.449283 -0.02693,0.722799 -0.239377,0.09215 -0.527964,0.185228 -0.641296,0.206857 -0.393051,0.07502 -0.145432,0.958916 0.44423,1.585749 0.08245,0.08765 0.203858,0.245479 0.269776,0.350718 0.06592,0.105234 0.141693,0.191345 0.168389,0.191345 0.04444,0 0.236234,0.486509 0.236234,0.599241 0,0.261272 -0.965233,-0.612298 -1.140782,-1.03245 -0.115673,-0.276853 -0.18366,-0.300173 -0.330583,-0.113392 -0.06967,0.08856 -0.3408162,0.394029 -0.6025662,0.678818 -0.6389422,0.695182 -0.6359001,0.690526 -0.596375,0.912819 0.032078,0.180399 0.024069,0.191344 -0.1400307,0.191344 -0.099288,0 -0.2198316,0.05058 -0.2806152,0.11775 C 8.3560276,16.77439 8.2887388,16.743809 8.3261068,16.513547 8.3516688,16.35605 8.3368308,16.302802 8.2602138,16.27763 8.1112162,16.228653 7.4505118,15.59981 7.279625,15.344331 6.633507,14.37838 6.9198753,13.197735 8.0849431,12.02416 L 8.5062054,11.599823 8.212273,11.317657 C 8.0506091,11.162466 7.7665593,10.894861 7.5810508,10.722976 l -0.337287,-0.312515 -0.2875616,0.283078 c -0.1581588,0.155692 -0.3322005,0.319998 -0.3867613,0.365123 -0.2447568,0.202431 -0.6058219,0.463251 -0.8220167,0.593793 -0.1295196,0.07821 -0.2487465,0.157209 -0.2649388,0.175553 -0.016195,0.01834 -0.1751535,0.151305 -0.35325,0.295464 -0.1780992,0.144158 -0.3865183,0.322109 -0.4631562,0.395441 l -0.1393425,0.133334 0.1542506,0.05865 c 0.60433,0.229764 0.8519687,0.417758 0.7532347,0.571811 -0.1137046,0.177419 -0.2916885,0.134501 -0.7954382,-0.19182 -0.4463842,-0.289161 -0.6348928,-0.495202 -0.4530659,-0.495202 0.031548,0 0.096139,-0.07499 0.143544,-0.166655 0.047404,-0.09166 0.2401602,-0.282622 0.4283579,-0.42436 C 4.9458175,11.862932 5.233747,11.63559 5.3974648,11.499468 5.5611826,11.363346 5.8392458,11.167003 6.015382,11.063149 6.1915183,10.9593 6.3916946,10.817858 6.4602188,10.748844 6.5287458,10.679824 6.6957282,10.547871 6.8312982,10.4556 L 7.0777912,10.287832 6.5770592,9.7859718 C 6.1860299,9.3940629 6.0531981,9.2939822 5.9707527,9.3291538 5.6782919,9.4539221 5.5211512,9.4393289 5.5700634,9.2919446 5.5957067,9.214689 5.6148611,9.0653716 5.6126484,8.9601324 5.6085758,8.765215 5.6955648,8.7110316 5.8172651,8.8327305 5.8632709,8.87875 5.9992019,8.8449481 6.3019133,8.7120348 6.6550384,8.5570471 7.8089705,8.2228552 8.7500689,8.0030181 9.4400656,7.8418402 9.3619778,7.9638948 9.605187,6.6664649 9.8625903,5.2933066 9.9361345,5.252162 10.830657,5.9808354 c 0.173062,0.1409741 0.350075,0.2563173 0.393367,0.2563173 0.04329,0 0.118212,0.039503 0.16649,0.087776 0.183441,0.183441 1.382453,0.9496248 1.822042,1.1643102 0.566428,0.2766282 0.689356,0.5730435 0.237648,0.5730435 -0.218627,0 -1.97512,-1.0820631 -2.463064,-1.5173375 C 10.752466,6.3356043 10.121236,5.8719255 10.02578,5.8387657 9.7664165,5.7486681 9.503909,9.4879316 9.6671558,10.947171 c 0.096315,0.860951 0.1087225,0.941171 0.1617616,1.045953 0.028426,0.05616 0.085916,0.268477 0.1277412,0.471808 0.092975,0.451956 0.061522,0.434494 0.5513614,0.306154 0.535213,-0.14023 0.580552,-0.19526 0.28508,-0.345997 -0.337998,-0.172434 -0.777212,-0.476078 -0.777212,-0.537315 0,-0.142381 0.365478,-0.745945 0.533915,-0.881728 0.0857,-0.06908 1.18662,-1.5956007 1.486123,-2.0606344 0.156018,-0.2422481 0.452724,-0.3267066 0.452724,-0.1288679 0,0.062947 -0.03973,0.1474345 -0.08832,0.1877442 -0.118171,0.098066 -0.111655,0.1765001 0.01471,0.177187 0.05666,3.34e-4 0.269683,0.1062791 0.473367,0.2355 0.203686,0.1292209 0.387056,0.234942 0.407492,0.234942 0.02043,0 0.08127,0.039924 0.135208,0.088726 0.103238,0.093424 0.56418,-0.3093876 1.496102,-1.3074184 l 0.34082,-0.3649978 -0.123872,-0.1739683 c -0.14503,-0.2036746 -0.160575,-0.3618552 -0.03557,-0.3618552 0.04857,0 0.08903,0.019874 0.08989,0.04416 8.35e-4,0.024286 0.12671,0.1801572 0.279659,0.3463796 0.710925,0.7726497 1.438056,1.7770852 1.947066,2.6896262 0.204269,0.366204 0.20461,0.511319 0.0016,0.704868 -0.170247,0.162353 -0.134814,0.245389 0.177179,0.415194 0.49655,0.270256 0.538911,0.188327 0.482187,-0.932647 C 18.067653,10.433191 17.671281,8.9045398 17.5519,8.7393491 17.528497,8.7069726 17.450006,8.4817707 17.377476,8.2389104 17.304944,7.9960514 17.168802,7.6328645 17.074936,7.4318303 16.981064,7.2307974 16.90427,7.0361814 16.90427,6.9993509 16.90427,6.9625219 16.86883,6.862061 16.82551,6.7761133 16.78219,6.6901697 16.686811,6.4873707 16.613556,6.3254651 16.540305,6.1635582 16.455752,5.9913465 16.425668,5.942775 16.395588,5.894203 16.355408,5.8080969 16.336368,5.7514306 16.268618,5.5496565 16.154419,5.6151371 15.464884,6.251135 c -0.131216,0.1210215 -0.258085,0.2203787 -0.281935,0.2207832 -0.02385,3.339e-4 -0.210026,0.1421213 -0.413728,0.3149262 -0.616091,0.5226462 -0.929656,0.7455634 -1.048737,0.7455634 -0.196962,0 -0.128027,-0.2139645 0.135943,-0.4219003 0.137052,-0.1079624 0.294907,-0.2360307 0.350791,-0.2846023 0.05589,-0.048572 0.22461,-0.1810436 0.374945,-0.2943776 0.150336,-0.1133381 0.421618,-0.3451551 0.602847,-0.5151582 0.181231,-0.1700017 0.345956,-0.3090957 0.366058,-0.3090957 0.02009,0 0.140711,-0.093437 0.268023,-0.2076304 0.328318,-0.2944944 0.484177,-0.3221549 0.649189,-0.1152114 0.151924,0.1905299 0.530759,0.9467606 0.587467,1.172701 0.05205,0.207371 0.06728,0.2117218 0.518027,0.1478879 0.330567,-0.046807 1.329017,-0.1622354 2.215374,-0.2561001 0.887848,-0.094021 1.041877,-0.1435426 1.07036,-0.3441112 0.02811,-0.1980057 0.24893,-0.1792626 0.272366,0.023118 0.01569,0.1355197 0.05243,0.1608779 0.283178,0.1954807 0.373197,0.055956 0.332069,0.2053851 -0.08221,0.2986769 -0.170983,0.038499 -0.317048,0.080242 -0.324587,0.092758 -0.05415,0.089853 -0.668447,1.358485 -0.866283,1.7890055 -0.133918,0.2914319 -0.335817,0.6690856 -0.448661,0.8392285 -0.112849,0.1701415 -0.189586,0.3345653 -0.170541,0.3653833 0.01905,0.030815 -0.03244,0.09998 -0.114437,0.1537035 -0.08198,0.053717 -0.149064,0.1302526 -0.149064,0.1700881 0,0.03983 -0.05298,0.12037 -0.11775,0.178979 -0.158658,0.143583 -0.148321,0.381925 0.02707,0.624202 0.666686,0.920913 0.815453,2.142572 0.406968,3.341954 -0.08899,0.261265 -0.140884,0.530401 -0.130565,0.677065 0.01625,0.231216 0.0088,0.243426 -0.147057,0.243426 -0.09504,0 -0.188565,0.04339 -0.222095,0.103035 -0.06317,0.112347 -0.316497,0.140247 -0.377484,0.04157 -0.02089,-0.0338 0.0027,-0.123614 0.05249,-0.199563 0.08341,-0.127293 0.08122,-0.146491 -0.02796,-0.24529 -0.182668,-0.165313 -0.187295,-0.150964 -0.533361,1.654386 -0.03103,0.161907 -0.120967,0.501073 -0.199849,0.7537 -0.07888,0.252627 -0.143422,0.52419 -0.143422,0.603471 0,0.264308 -0.228646,0.177233 -0.66087,-0.25168 -0.360856,-0.358089 -0.398885,-0.381683 -0.398885,-0.247464 0,0.141292 -0.199549,1.125282 -0.263139,1.297541 -0.122895,0.332908 -0.389226,1.850657 -0.381106,2.171764 0.0053,0.21048 0.0068,0.415806 0.0031,0.456285 -0.01411,0.158984 -0.177804,0.05822 -0.430399,-0.264939 z M 9.2111101,15.362115 C 9.5262848,15.005537 9.8757038,14.654493 9.9875975,14.582018 10.258546,14.406525 10.270511,14.470852 9.782393,13.478805 9.756804,13.426786 9.6385654,13.383047 9.4947173,13.37239 9.1815926,13.349177 9.1489079,13.172418 9.4418425,13.086408 9.691113,13.013211 9.6836495,12.76133 9.4251452,12.522914 9.3290882,12.434323 9.2504954,12.341593 9.2504941,12.316851 9.2504914,12.292104 9.1567584,12.197079 9.0422012,12.105668 L 8.8339111,11.939473 8.5840745,12.085888 c -0.4196156,0.245912 -0.9920238,0.875853 -1.1715552,1.28931 -0.3910456,0.900582 -0.148769,1.542051 0.9230409,2.443903 0.2937966,0.247207 0.2183058,0.286608 0.8755527,-0.456984 z m 9.9858329,-1.132649 c 0.402136,-1.007429 0.32503,-2.22153 -0.194434,-3.061516 -0.205255,-0.331903 -0.220272,-0.335969 -0.326171,-0.08831 -0.045,0.105234 -0.116202,0.231517 -0.158232,0.280617 -0.183954,0.214908 -0.221531,0.899804 -0.05712,1.041252 0.217732,0.18733 0.194495,0.301117 -0.06597,0.323084 -0.207627,0.01751 -0.219514,0.03056 -0.284901,0.31265 -0.03753,0.161907 -0.112958,0.398687 -0.167622,0.526175 -0.116759,0.272323 -0.08104,0.330319 0.2865,0.465132 0.129519,0.04751 0.367969,0.139436 0.529877,0.20428 0.379822,0.15212 0.376014,0.152149 0.43809,-0.0034 z M 9.4563896,11.771949 c 0.020458,-0.06447 0.021204,-0.143108 0.00163,-0.174746 -0.019548,-0.03163 -0.058509,-0.321797 -0.086568,-0.644796 C 9.3047563,10.184651 9.4182437,10.25999 7.5495879,9.7428292 6.7815157,9.5302589 6.7848918,9.5618643 7.6019605,10.233005 c 0.1457173,0.119692 0.4614973,0.422073 0.701735,0.671956 0.3675024,0.382261 0.466907,0.454335 0.6266093,0.454335 0.1905964,0 0.2612885,0.07776 0.2612885,0.287416 0,0.214482 0.2055846,0.311723 0.2647718,0.12523 z m 9.0739744,-1.016125 c 0.02441,-0.07286 0.03753,-0.192179 0.02916,-0.265159 -0.0096,-0.08449 0.02374,-0.146549 0.09205,-0.170855 0.182187,-0.06482 0.312932,-0.20844 0.429357,-0.471637 0.06147,-0.138942 0.246169,-0.4527184 0.410459,-0.697277 0.33869,-0.5041637 0.768776,-1.3209188 0.768776,-1.4599381 0,-0.051002 0.0265,-0.1091027 0.05888,-0.1291123 0.03238,-0.02001 0.05888,-0.087817 0.05888,-0.1506641 0,-0.062852 -0.0265,-0.1142747 -0.05888,-0.1142747 -0.03238,0 -0.05888,0.023878 -0.05888,0.053065 0,0.029186 -0.08611,0.1075687 -0.191345,0.1741924 -0.16613,0.1051659 -0.707666,0.5115947 -1.074473,0.8063959 -0.06477,0.052047 -0.311736,0.2311274 -0.54883,0.3979498 -0.341996,0.2406327 -0.425121,0.3278415 -0.402254,0.4220171 0.01585,0.065296 0.09724,0.3569654 0.180859,0.6481692 0.08362,0.2912068 0.152035,0.6554968 0.152035,0.8095358 0,0.295097 0.07933,0.371037 0.154202,0.147602 z m -6.948925,3.478678 c -0.189091,-0.220909 -0.234482,-0.244219 -0.458469,-0.235441 -0.4364,0.0171 -0.607782,-0.15721 -0.53401,-0.54313 0.04161,-0.217672 0.200528,-0.177244 0.263849,0.06712 0.05429,0.209496 0.155258,0.238327 0.439768,0.125569 0.220038,-0.08721 1.033656,-0.283794 1.402121,-0.338785 0.161906,-0.02416 0.387106,-0.07465 0.500438,-0.112198 0.21853,-0.07241 1.713035,-0.321359 2.060637,-0.343263 0.861478,-0.05429 1.631824,-0.292287 1.602077,-0.494967 -0.03665,-0.249762 0.06561,-0.252392 0.337577,-0.0087 0.314304,0.281645 0.329763,0.558171 0.03266,0.584322 -0.366894,0.03229 -0.559315,0.08011 -0.559315,0.138987 0,0.0823 -0.297417,0.833532 -0.354993,0.896654 -0.04514,0.04948 -0.596186,-0.33216 -0.863927,-0.598322 -0.107256,-0.106618 -0.177743,-0.128406 -0.327297,-0.101148 -0.104827,0.0191 -0.442295,0.07396 -0.749918,0.121891 -1.688001,0.263011 -1.770357,0.29387 -1.969685,0.73803 -0.209529,0.466891 -0.481117,0.501069 -0.821519,0.103388 z m 0.686413,-0.172086 c 0.188169,-0.330607 0.144518,-0.393456 -0.197278,-0.284049 -0.110067,0.03523 -0.237454,0.07576 -0.283073,0.09006 -0.06132,0.01921 -0.03924,0.07161 0.08461,0.20088 0.210398,0.219607 0.267394,0.218616 0.395741,-0.0069 z m 4.121271,-0.724798 c 0.133212,-0.279351 -0.01803,-0.356353 -0.408295,-0.207891 l -0.16574,0.06304 0.206063,0.170869 c 0.258184,0.214088 0.253304,0.214433 0.367972,-0.02602 z m -4.395651,-1.30439 c -0.104189,-0.104189 -0.08425,-0.572744 0.03023,-0.710691 0.129846,-0.156456 0.659304,-0.07346 0.742297,0.116366 0.198436,0.453864 -0.429731,0.937123 -0.772534,0.594321 z m 0.581876,-0.25922 c 0.0504,-0.08155 -0.229282,-0.247459 -0.343356,-0.203687 -0.11399,0.04374 -0.12804,0.178609 -0.02301,0.220986 0.126601,0.05108 0.330046,0.04148 0.366372,-0.01729 z m 2.949658,-0.09501 c -0.355665,-0.355665 0.05057,-0.980463 0.462145,-0.710789 0.167486,0.10974 0.20057,0.337279 0.0857,0.589396 -0.09781,0.214654 -0.389866,0.27937 -0.547843,0.121388 z m 0.36777,-0.368463 c 0.01515,-0.10294 -0.01072,-0.127863 -0.132466,-0.127863 -0.109835,0 -0.151283,0.03091 -0.151283,0.112849 0,0.210488 0.25302,0.223876 0.283753,0.01503 z m -3.15466,-0.189093 c -0.674422,-0.173836 -0.85088,-0.24131 -1.023194,-0.391241 -0.104174,-0.09064 -0.08197,-0.312903 0.03126,-0.312903 0.06904,0 1.110203,0.258706 1.27232,0.316148 0.04857,0.01721 0.199314,0.05969 0.334984,0.09439 0.266692,0.06822 0.376179,0.236789 0.251424,0.387109 -0.09,0.108451 -0.07849,0.1097 -0.866803,-0.09349 z m 1.928903,-0.22381 c 0,-0.154931 1.037727,-1.1279631 1.20296,-1.1279631 0.319807,0 -0.320686,0.9847961 -0.649237,0.9982431 -0.03546,0.0015 -0.112429,0.05563 -0.171032,0.120383 -0.13787,0.152343 -0.382691,0.158315 -0.382691,0.0094 z M 7.3475233,7.8383612 C 7.2458598,7.7260277 6.6011047,6.3434211 6.6011047,6.2377543 c 0,-0.034114 -0.1059804,-0.2892816 -0.2355,-0.5670393 C 6.054318,5.0031918 6.0512256,4.8248944 6.3508897,4.8220464 6.4723185,4.8208794 6.7306354,4.7809683 6.9249229,4.7333334 7.2688223,4.6490054 7.9585094,4.5536663 9.2799346,4.4077725 c 0.3561957,-0.039327 0.6876522,-0.09174 0.7365674,-0.1164739 0.25201,-0.1274154 0.543847,0.1173292 0.337906,0.2833887 -0.08966,0.072301 -0.7227276,0.1713103 -1.3982872,0.2186913 -0.2752423,0.019304 -0.7256393,0.085048 -1.0008802,0.1461 C 7.6799983,5.0005256 7.2494724,5.0843054 6.9985173,5.1256536 6.5065195,5.2067102 6.4662084,5.2510599 6.630423,5.5306449 6.737313,5.7126388 7.1612658,6.5859054 7.3164015,6.9436514 7.3795935,7.0893687 7.4854393,7.318954 7.5516218,7.4538411 7.7357141,7.8290446 7.5890886,8.1052847 7.3475274,7.8383585 Z M 17.584827,6.2813071 C 17.572607,6.2408263 17.533857,5.9692697 17.498757,5.6778365 17.388541,4.7624587 17.378428,4.6857936 17.317333,4.3034714 17.247573,3.8668408 17.218193,3.8034521 17.121941,3.8818385 c -0.03877,0.031575 -0.156587,0.1263973 -0.261828,0.2107119 -0.116148,0.093071 -0.191344,0.2066149 -0.191344,0.2889639 0,0.393766 -0.379648,0.136922 -0.430495,-0.2912445 C 16.222754,3.9596099 16.151254,3.6672468 16.07938,3.4405747 16.0075,3.2139067 15.914417,2.8827325 15.872519,2.7046347 15.830629,2.5265382 15.742715,2.229493 15.677184,2.0445357 15.611644,1.8595797 15.539998,1.5880176 15.517962,1.441065 15.459712,1.0526218 15.404977,1.0996512 15.04096,1.8509433 14.75843,2.43405 14.69338,2.5280097 14.572207,2.5280097 c -0.16335,0 -0.181749,-0.1113697 -0.05687,-0.3441682 0.159057,-0.2964913 0.563795,-1.1661062 0.563795,-1.2113573 0,-0.3017747 0.45503,-0.4812029 0.534423,-0.2107336 0.03747,0.1276326 0.363922,1.2165904 0.520682,1.7368216 0.02927,0.097143 0.125772,0.4614336 0.214445,0.8095331 0.188147,0.7386062 0.161851,0.7247732 0.587613,0.3090971 0.594469,-0.580389 0.624248,-0.5217882 0.852626,1.6779439 0.0353,0.3400061 0.07928,0.7175432 0.09773,0.8389747 0.03402,0.2238933 -0.238442,0.3567577 -0.301836,0.1471861 z M 9.9572111,3.9851731 c 1.168e-4,-0.00815 0.081423,-0.2266707 0.1806739,-0.485722 0.09925,-0.2590513 0.202808,-0.537238 0.230119,-0.6181915 0.02731,-0.080948 0.147119,-0.3856318 0.266242,-0.6770651 0.53164,-1.3006512 0.530161,-1.2896323 0.203645,-1.5154791 -0.225758,-0.1561538 -0.311333,-0.339091 -0.158619,-0.339091 0.04105,0 0.176109,0.068947 0.300123,0.1532147 0.164279,0.1116276 0.243094,0.1356011 0.290381,0.088319 0.151693,-0.151693 0.347864,-0.077554 0.305473,0.1154558 -0.04659,0.2121143 0.162717,0.4309182 0.766197,0.8009659 0.194288,0.1191347 0.512214,0.3402912 0.706503,0.4914575 0.443109,0.3447588 1.07841,0.7644844 1.157137,0.7644844 0.0328,0 0.04871,0.033123 0.03539,0.07359 -0.05162,0.1567674 -0.267818,0.087491 -0.69208,-0.2217688 C 13.305535,2.4383121 12.894881,2.1499712 12.635829,1.974587 12.376778,1.7992028 12.02095,1.5472961 11.845099,1.4147954 11.669248,1.2822894 11.497037,1.1739917 11.462409,1.1741207 c -0.05384,2.009e-4 -0.622277,1.3045065 -0.622277,1.4278345 0,0.023919 -0.07669,0.2091549 -0.170402,0.4116254 -0.09372,0.2024691 -0.20183,0.4677215 -0.240243,0.5894489 -0.08837,0.2800519 -0.4753316,0.5931672 -0.4722691,0.3821512 z"
     id="path266" /><path
     style="display:none;fill:#000000;stroke-width:0.0616059"
     d="m 11.78757,18.529823 c -0.07259,-0.07259 -0.04374,-0.454933 0.03594,-0.476139 1.884129,-0.501448 2.801634,-1.263458 3.006457,-2.49694 0.03053,-0.183861 0.08897,-0.35497 0.129857,-0.380241 0.09106,-0.05628 0.207996,-0.465318 0.338331,-1.183482 l 0.09848,-0.542686 -0.174251,-0.409998 c -0.09583,-0.225499 -0.30706,-0.563466 -0.46939,-0.751038 -0.321693,-0.371714 -0.33573,-0.388611 -0.694873,-0.836409 -0.134763,-0.168029 -0.275634,-0.333229 -0.313049,-0.367113 -0.03741,-0.03388 -0.173269,-0.208756 -0.301898,-0.388608 -0.168571,-0.235698 -0.261775,-0.316216 -0.333813,-0.288368 -1.03696,0.400852 -1.94928,0.246257 -2.545765,-0.4313858 L 10.320306,9.7010246 10.134392,9.869751 c -0.102252,0.092795 -0.2922268,0.265756 -0.4221638,0.384348 -0.129936,0.11859 -0.307558,0.265428 -0.394712,0.326305 -0.203443,0.142105 -0.200411,0.24859 0.01095,0.3846 0.09318,0.05996 0.298155,0.215739 0.455501,0.346178 0.157348,0.130436 0.3517898,0.271696 0.4320948,0.313907 0.881839,0.463534 1.130925,0.692007 1.01852,0.934235 -0.113487,0.24456 -0.245665,0.199388 -1.112044,-0.380042 -0.4433028,-0.296478 -0.8310728,-0.549458 -0.8617128,-0.562177 -0.09946,-0.04129 -0.406143,-0.405937 -0.408,-0.485123 -0.003,-0.12644 -0.09796,-0.08913 -0.349236,0.137185 -0.130804,0.117804 -0.266058,0.214833 -0.300564,0.21562 -0.03451,8.25e-4 -0.203719,0.140209 -0.376029,0.30983 -0.381949,0.375991 -0.412303,0.553516 -0.45814,2.679485 -0.03144,1.458376 1.127652,2.964451 2.630135,3.417483 0.7440038,0.224333 0.9297298,0.598114 0.2833328,0.570221 -1.5224648,-0.0657 -3.0350377,-1.626039 -3.2441378,-3.346593 -0.090217,-0.742375 -0.1044579,-0.795127 -0.2146012,-0.795127 -1.1765569,0 -1.6500854,-1.759746 -0.7518265,-2.793973 0.2849864,-0.328124 0.9079846,-0.293211 1.0688726,0.0599 0.07484,0.164255 0.1403412,0.184914 0.2133851,0.0673 0.04718,-0.07597 0.780559,-0.698674 1.221006,-1.03674 0.115492,-0.08865 0.392121,-0.322074 0.61473,-0.518722 C 9.4123612,9.9011965 9.7060332,9.6582755 9.8423602,9.5580208 10.020939,9.4266922 10.078154,9.3478212 10.047047,9.2758651 9.9804042,9.1217059 9.8493292,8.7020192 9.8090232,8.5137287 9.7586332,8.2783074 9.7298432,8.2907465 9.2388282,8.760152 c -0.721957,0.6901805 -0.999756,1.0581918 -1.383497,1.832775 -0.455423,0.919276 -0.509585,0.977258 -0.463023,0.495673 0.08018,-0.829282 0.970885,-2.2029267 1.93649,-2.9864546 0.190815,-0.154834 0.33863,-0.3298158 0.35996,-0.4261151 0.0199,-0.089868 0.04747,-0.2059914 0.06125,-0.258051 0.0453,-0.1711783 0.5624848,-0.6665776 0.8044188,-0.7705451 0.533462,-0.229246 1.314586,-0.3910112 1.592509,-0.3297964 0.403441,0.088863 0.524273,0.064265 0.634325,-0.1291424 0.13596,-0.2389321 0.246165,-0.235347 0.270458,0.00879 0.01061,0.1067031 0.06089,0.2141299 0.111714,0.2387259 0.05082,0.024596 0.207074,0.1036286 0.34722,0.1756288 0.140146,0.072003 0.299552,0.13091 0.354234,0.13091 0.05468,0 0.09942,0.028645 0.09942,0.063657 0,0.035012 0.09447,0.158123 0.20992,0.2735787 l 0.209918,0.2099186 0.29833,-0.1443837 c 0.164082,-0.079411 0.436944,-0.1915586 0.606359,-0.2492152 0.169416,-0.057658 0.452059,-0.1570897 0.628096,-0.2209613 0.357628,-0.1297596 0.459973,-0.1133951 0.569385,0.091043 0.04131,0.077174 0.14916,0.1843379 0.239684,0.2381417 0.377752,0.2245224 1.153784,1.1007862 1.432214,1.6171986 0.07308,0.1355329 0.167574,0.2880078 0.209998,0.3388323 0.230607,0.2762705 0.869152,2.6500292 0.994325,3.6963532 0.01419,0.118592 0.05202,0.354234 0.08409,0.52365 0.07846,0.414518 0.185416,1.066497 0.212465,1.295084 0.02316,0.19566 0.254816,0.995108 0.499463,1.723605 0.228243,0.679645 0.204175,1.288191 -0.03113,0.787071 -0.04416,-0.09405 -0.09232,-0.137896 -0.107019,-0.09742 -0.01469,0.04048 0.0035,0.130178 0.04057,0.199339 0.258317,0.482669 0.159082,0.991661 -0.183533,0.941376 -0.146789,-0.02154 -0.213124,0.0077 -0.316836,0.139515 -0.555843,0.706639 -3.506296,-0.737408 -3.428384,-1.677962 0.02548,-0.307625 0.604334,-0.08642 0.604334,0.230946 0,0.08073 0.788108,0.612751 1.134843,0.766093 0.597936,0.264438 1.267787,0.41343 1.267787,0.281993 0,-0.03388 -0.04296,-0.06161 -0.09547,-0.06161 -0.296163,0 -0.877676,-0.456082 -0.928818,-0.728472 -0.06494,-0.345893 0.0335,-0.343452 0.720154,0.01786 0.893623,0.470225 0.911949,0.461397 0.571018,-0.275087 -0.08626,-0.186344 -0.179814,-0.394264 -0.207884,-0.46203 -0.02806,-0.06777 -0.111534,-0.261825 -0.185475,-0.431241 -0.40258,-0.922402 -0.545751,-1.432498 -0.548994,-1.955987 -0.0036,-0.595512 0.150679,-0.383264 0.515119,0.708257 0.150476,0.450687 0.527387,1.304552 0.529165,1.198786 4.31e-4,-0.02692 -0.03851,-0.22098 -0.08657,-0.431242 -0.156664,-0.685309 -0.307067,-1.576282 -0.438918,-2.600097 -0.09581,-0.74392 -0.46971,-2.41303 -0.607228,-2.710659 C 18.328318,9.9368302 18.256454,9.7650464 18.215585,9.6567388 17.994863,9.0717511 17.118912,7.9770733 16.400458,7.3883547 L 16.128865,7.1658044 15.647244,7.3186505 c -0.930362,0.2952577 -1.102424,0.391425 -0.967374,0.54068 0.08474,0.09365 0.112694,0.2078511 0.103446,0.4225779 -0.01147,0.2662997 0.01099,0.3198064 0.236357,0.563363 0.538995,0.5824822 0.850384,1.7190066 0.852799,3.1126086 l 0.0016,0.933709 0.295738,0.04067 c 1.629634,0.224132 1.16067,2.564 -0.545444,2.72145 l -0.403721,0.03725 -0.109769,0.284851 c -0.06037,0.15667 -0.150764,0.394339 -0.200867,0.528158 -0.151965,0.405882 -0.898792,1.224576 -1.34151,1.470602 -0.539923,0.300045 -1.680541,0.655652 -1.780951,0.555242 z m 4.13826,-3.474104 c 0.71947,-0.154298 1.199597,-1.072827 0.723753,-1.384611 -0.108785,-0.07128 -0.748964,-0.275109 -0.864047,-0.275109 -0.01152,0 -0.03985,0.103959 -0.06297,0.231021 -0.02311,0.127063 -0.07972,0.355774 -0.125793,0.508249 -0.301845,0.998951 -0.282984,1.051709 0.329055,0.92045 z M 7.0153808,13.514532 c 0.197009,-0.958931 0.1754371,-1.203517 -0.091778,-1.040586 -0.402213,0.24524 -0.451717,0.138041 -0.1305512,-0.282708 0.2428729,-0.318182 0.2180001,-0.39448 -0.1290375,-0.395819 -0.9296682,-0.0036 -0.9797845,1.732528 -0.055113,1.909395 0.3297302,0.06307 0.3570642,0.05027 0.4064856,-0.190282 z M 15.532693,11.932859 C 15.45461,10.699104 15.291148,10.044378 14.938154,9.5514824 14.838784,9.4127312 14.710703,9.2231458 14.653525,9.1301798 14.517527,8.9090575 14.496346,8.9141574 14.291738,9.2172851 14.196368,9.3585839 14.04902,9.5463125 13.964311,9.63446 c -0.413307,0.430089 -0.404948,0.397084 -0.175444,0.69276 0.113435,0.146144 0.227834,0.275221 0.254219,0.286839 0.02639,0.01162 0.145522,0.173617 0.264746,0.359995 0.119225,0.186379 0.335611,0.467961 0.480859,0.625738 0.145247,0.157775 0.353184,0.418549 0.462084,0.579494 0.27999,0.413809 0.321412,0.377604 0.281918,-0.246423 z m -3.682237,-1.91198 c 0.106524,-0.067741 0.17686,-0.2837798 0.326871,-1.0040303 0.07351,-0.3529525 0.200708,-0.922856 0.282657,-1.2664545 0.18998,-0.7965517 0.189365,-0.8721409 -0.0075,-0.9215459 -0.180288,-0.045247 -1.263365,0.079317 -1.50098,0.1726309 -0.751353,0.2950605 -1.0568898,0.5512682 -0.933145,0.7824863 0.03562,0.066551 0.06476,0.2263349 0.06476,0.3550664 0,0.7728992 1.312845,2.1708231 1.767315,1.8818471 z m 1.129306,-0.2288249 c 0.07333,-0.1319831 0.140804,-0.1792868 0.236025,-0.1654698 0.136282,0.019777 0.750481,-0.5085449 1.00328,-0.8629971 0.238564,-0.334492 -0.244173,-1.5634024 -0.509792,-1.2977836 -0.140824,0.1408241 -1.161899,2.3260773 -1.161899,2.486638 0,0.1432894 0.33211,0.0201 0.432386,-0.1603875 z M 12.485771,9.3078242 c 0,-0.03313 0.224474,-0.5188618 0.498832,-1.0793956 L 13.483436,7.2092749 13.343625,7.0960628 c -0.385622,-0.3122581 -0.494179,-0.098812 -0.85417,1.6794939 -0.06516,0.3218904 -0.136495,0.640701 -0.158518,0.7084669 -0.03949,0.1214963 -0.03869,0.1215466 0.0574,0.00363 0.05359,-0.065777 0.09744,-0.1466954 0.09744,-0.1798286 z m -0.134624,7.8319018 c -0.02168,-0.22513 -0.03004,-0.226603 -0.604647,-0.10651 -0.186358,0.03895 -0.525664,0.06036 -0.754014,0.04759 -0.234157,-0.01309 -0.423827,0.0027 -0.43501,0.03627 -0.01091,0.03272 -0.169121,-0.0149 -0.351588,-0.105833 -0.182466,-0.09093 -0.3609668,-0.165442 -0.3966688,-0.165587 -0.0357,-1.45e-4 -0.189663,-0.0832 -0.342137,-0.184553 -0.152476,-0.101359 -0.339603,-0.18441 -0.41584,-0.184554 -0.09475,-1.92e-4 -0.138614,-0.03711 -0.138614,-0.11666 0,-0.06402 -0.108778,-0.336679 -0.241728,-0.605912 -0.132951,-0.269234 -0.260814,-0.598042 -0.284141,-0.730685 -0.05137,-0.292076 -0.184549,-0.518395 -0.305063,-0.518395 -0.105159,0 -0.23825,-0.222784 -0.184778,-0.309303 0.04404,-0.07124 0.522863,-0.08239 0.522863,-0.01217 0,0.02648 0.117822,0.08039 0.261825,0.11979 0.144003,0.0394 0.511329,0.140246 0.816278,0.224103 0.304949,0.08386 0.7485108,0.185724 0.9856948,0.226368 0.237182,0.04064 0.514409,0.112068 0.616059,0.158717 0.304783,0.139872 1.339251,0.403898 1.459396,0.37248 0.06152,-0.01608 0.135252,0.01258 0.163862,0.0637 0.0631,0.112758 0.67741,0.330525 0.723233,0.256381 0.03484,-0.05637 0.271759,-0.07444 0.271759,-0.02073 0,0.168014 -0.48273,0.696502 -0.868915,0.951279 -0.172731,0.113954 -0.238985,0.212561 -0.298285,0.443937 -0.09337,0.36432 -0.173682,0.428827 -0.199541,0.160277 z m -0.252281,-0.552229 c 0.281654,-0.103933 0.329401,-0.14687 0.384694,-0.345954 0.133368,-0.480191 0.105326,-0.509771 -0.680699,-0.718022 -0.319007,-0.08452 -0.638564,-0.17032 -0.710129,-0.190669 -0.08967,-0.0255 -0.142743,-0.0041 -0.170735,0.06885 -0.0426,0.111017 -0.284403,1.189553 -0.284403,1.268554 0,0.139241 1.015521,0.08173 1.461272,-0.08276 z m -1.484098,-0.662004 c 0.184495,-0.733214 0.2067,-0.690348 -0.433255,-0.83643 -0.2339038,-0.05339 -0.4744688,-0.123404 -0.5345888,-0.15558 -0.197572,-0.105737 -0.289173,-0.0044 -0.359114,0.397208 -0.138895,0.797597 -0.05819,0.943095 0.65667,1.183839 0.5021068,0.169096 0.4731108,0.194578 0.6702878,-0.589037 z m 2.502463,0.0713 c 0.167558,-0.146158 0.128474,-0.207335 -0.119136,-0.186474 -0.186986,0.01576 -0.234677,0.04826 -0.270856,0.184639 -0.07029,0.264958 0.08749,0.2657 0.389992,0.0018 z m -4.0062908,-0.77161 c 0.08661,-0.412935 0.05297,-0.468394 -0.314064,-0.517622 -0.315676,-0.04233 -0.321263,0.0053 -0.06704,0.571965 0.213615,0.47611 0.271563,0.467845 0.381093,-0.05435 z M 12.855405,13.95046 c -0.137925,-0.137926 -0.152425,-0.292774 -0.05894,-0.629383 0.17923,-0.64534 1.106241,-0.551053 1.106241,0.112518 0,0.54128 -0.684881,0.879283 -1.047301,0.516865 z m 0.616059,-0.457893 c 0,-0.11128 -0.237915,-0.191317 -0.321185,-0.108048 -0.09202,0.09202 -0.0013,0.196305 0.170806,0.196305 0.08945,0 0.150379,-0.03576 0.150379,-0.08825 z M 8.7447312,13.308382 c -0.267604,-0.225176 -0.30274,-0.444635 -0.124942,-0.780403 l 0.143863,-0.271682 0.423511,0.01756 c 0.499649,0.02072 0.583085,0.09333 0.585989,0.509964 0.0038,0.547082 -0.622188,0.866381 -1.028421,0.524559 z m 0.630145,-0.366951 c 0.150884,-0.110329 -0.0153,-0.407907 -0.227795,-0.407907 -0.132551,0 -0.357664,0.159869 -0.357664,0.254005 0,0.160286 0.424221,0.271803 0.585459,0.153902 z m 2.9885228,-0.515718 c 0.0026,-0.333774 0.04263,-0.361348 0.731533,-0.504065 0.943493,-0.195458 1.349153,-0.08968 0.998984,0.260491 -0.193271,0.193272 -1.731814,0.409825 -1.730517,0.243574 z"
     id="path654" /></svg>
