%TF.GenerationSoftware,KiCad,Pcbnew,(6.0.4)*%
%TF.CreationDate,2022-08-14T15:03:19+10:00*%
%TF.ProjectId,budgie,62756467-6965-42e6-9b69-6361645f7063,2*%
%TF.SameCoordinates,Original*%
%TF.FileFunction,Soldermask,Bot*%
%TF.FilePolarity,Negative*%
%FSLAX46Y46*%
G04 Gerber Fmt 4.6, Leading zero omitted, Abs format (unit mm)*
G04 Created by KiCad (PCBNEW (6.0.4)) date 2022-08-14 15:03:19*
%MOMM*%
%LPD*%
G01*
G04 APERTURE LIST*
G04 Aperture macros list*
%AMFreePoly0*
4,1,6,0.600000,0.200000,0.000000,-0.400000,-0.600000,0.200000,-0.600000,0.400000,0.600000,0.400000,0.600000,0.200000,0.600000,0.200000,$1*%
%AMFreePoly1*
4,1,6,0.600000,-0.250000,-0.600000,-0.250000,-0.600000,1.000000,0.000000,0.400000,0.600000,1.000000,0.600000,-0.250000,0.600000,-0.250000,$1*%
G04 Aperture macros list end*
%ADD10C,0.250000*%
%ADD11C,0.100000*%
%ADD12C,3.400000*%
%ADD13C,1.700000*%
%ADD14C,2.000000*%
%ADD15C,4.400000*%
%ADD16FreePoly0,270.000000*%
%ADD17C,1.600000*%
%ADD18FreePoly0,90.000000*%
%ADD19R,1.600000X1.600000*%
%ADD20FreePoly1,270.000000*%
%ADD21FreePoly1,90.000000*%
%ADD22C,0.800000*%
%ADD23O,2.000000X1.600000*%
G04 APERTURE END LIST*
D10*
%TO.C,U1*%
X168387000Y-67350000D02*
G75*
G03*
X168387000Y-67350000I-125000J0D01*
G01*
X166863000Y-67350000D02*
G75*
G03*
X166863000Y-67350000I-125000J0D01*
G01*
X166863000Y-69890000D02*
G75*
G03*
X166863000Y-69890000I-125000J0D01*
G01*
X168387000Y-52110000D02*
G75*
G03*
X168387000Y-52110000I-125000J0D01*
G01*
X166863000Y-59730000D02*
G75*
G03*
X166863000Y-59730000I-125000J0D01*
G01*
X168387000Y-54650000D02*
G75*
G03*
X168387000Y-54650000I-125000J0D01*
G01*
X168387000Y-74970000D02*
G75*
G03*
X168387000Y-74970000I-125000J0D01*
G01*
X166863000Y-54650000D02*
G75*
G03*
X166863000Y-54650000I-125000J0D01*
G01*
X166863000Y-74970000D02*
G75*
G03*
X166863000Y-74970000I-125000J0D01*
G01*
X168387000Y-59730000D02*
G75*
G03*
X168387000Y-59730000I-125000J0D01*
G01*
X168387000Y-62270000D02*
G75*
G03*
X168387000Y-62270000I-125000J0D01*
G01*
X168387000Y-69890000D02*
G75*
G03*
X168387000Y-69890000I-125000J0D01*
G01*
X166863000Y-47030000D02*
G75*
G03*
X166863000Y-47030000I-125000J0D01*
G01*
X168387000Y-64810000D02*
G75*
G03*
X168387000Y-64810000I-125000J0D01*
G01*
X166863000Y-62270000D02*
G75*
G03*
X166863000Y-62270000I-125000J0D01*
G01*
X166863000Y-72430000D02*
G75*
G03*
X166863000Y-72430000I-125000J0D01*
G01*
X166863000Y-49570000D02*
G75*
G03*
X166863000Y-49570000I-125000J0D01*
G01*
X168387000Y-47030000D02*
G75*
G03*
X168387000Y-47030000I-125000J0D01*
G01*
X166863000Y-52110000D02*
G75*
G03*
X166863000Y-52110000I-125000J0D01*
G01*
X166863000Y-57190000D02*
G75*
G03*
X166863000Y-57190000I-125000J0D01*
G01*
X166863000Y-64810000D02*
G75*
G03*
X166863000Y-64810000I-125000J0D01*
G01*
X168387000Y-72430000D02*
G75*
G03*
X168387000Y-72430000I-125000J0D01*
G01*
X168387000Y-57190000D02*
G75*
G03*
X168387000Y-57190000I-125000J0D01*
G01*
X168387000Y-49570000D02*
G75*
G03*
X168387000Y-49570000I-125000J0D01*
G01*
G36*
X173596000Y-62778000D02*
G01*
X172580000Y-62778000D01*
X172580000Y-61762000D01*
X173596000Y-61762000D01*
X173596000Y-62778000D01*
G37*
D11*
X173596000Y-62778000D02*
X172580000Y-62778000D01*
X172580000Y-61762000D01*
X173596000Y-61762000D01*
X173596000Y-62778000D01*
G36*
X162420000Y-75478000D02*
G01*
X161404000Y-75478000D01*
X161404000Y-74462000D01*
X162420000Y-74462000D01*
X162420000Y-75478000D01*
G37*
X162420000Y-75478000D02*
X161404000Y-75478000D01*
X161404000Y-74462000D01*
X162420000Y-74462000D01*
X162420000Y-75478000D01*
G36*
X173596000Y-57698000D02*
G01*
X172580000Y-57698000D01*
X172580000Y-56682000D01*
X173596000Y-56682000D01*
X173596000Y-57698000D01*
G37*
X173596000Y-57698000D02*
X172580000Y-57698000D01*
X172580000Y-56682000D01*
X173596000Y-56682000D01*
X173596000Y-57698000D01*
G36*
X173596000Y-60238000D02*
G01*
X172580000Y-60238000D01*
X172580000Y-59222000D01*
X173596000Y-59222000D01*
X173596000Y-60238000D01*
G37*
X173596000Y-60238000D02*
X172580000Y-60238000D01*
X172580000Y-59222000D01*
X173596000Y-59222000D01*
X173596000Y-60238000D01*
G36*
X173596000Y-67858000D02*
G01*
X172580000Y-67858000D01*
X172580000Y-66842000D01*
X173596000Y-66842000D01*
X173596000Y-67858000D01*
G37*
X173596000Y-67858000D02*
X172580000Y-67858000D01*
X172580000Y-66842000D01*
X173596000Y-66842000D01*
X173596000Y-67858000D01*
G36*
X173596000Y-52618000D02*
G01*
X172580000Y-52618000D01*
X172580000Y-51602000D01*
X173596000Y-51602000D01*
X173596000Y-52618000D01*
G37*
X173596000Y-52618000D02*
X172580000Y-52618000D01*
X172580000Y-51602000D01*
X173596000Y-51602000D01*
X173596000Y-52618000D01*
G36*
X162420000Y-65318000D02*
G01*
X161404000Y-65318000D01*
X161404000Y-64302000D01*
X162420000Y-64302000D01*
X162420000Y-65318000D01*
G37*
X162420000Y-65318000D02*
X161404000Y-65318000D01*
X161404000Y-64302000D01*
X162420000Y-64302000D01*
X162420000Y-65318000D01*
G36*
X173596000Y-50078000D02*
G01*
X172580000Y-50078000D01*
X172580000Y-49062000D01*
X173596000Y-49062000D01*
X173596000Y-50078000D01*
G37*
X173596000Y-50078000D02*
X172580000Y-50078000D01*
X172580000Y-49062000D01*
X173596000Y-49062000D01*
X173596000Y-50078000D01*
G36*
X162420000Y-52618000D02*
G01*
X161404000Y-52618000D01*
X161404000Y-51602000D01*
X162420000Y-51602000D01*
X162420000Y-52618000D01*
G37*
X162420000Y-52618000D02*
X161404000Y-52618000D01*
X161404000Y-51602000D01*
X162420000Y-51602000D01*
X162420000Y-52618000D01*
G36*
X173596000Y-75478000D02*
G01*
X172580000Y-75478000D01*
X172580000Y-74462000D01*
X173596000Y-74462000D01*
X173596000Y-75478000D01*
G37*
X173596000Y-75478000D02*
X172580000Y-75478000D01*
X172580000Y-74462000D01*
X173596000Y-74462000D01*
X173596000Y-75478000D01*
G36*
X162420000Y-67858000D02*
G01*
X161404000Y-67858000D01*
X161404000Y-66842000D01*
X162420000Y-66842000D01*
X162420000Y-67858000D01*
G37*
X162420000Y-67858000D02*
X161404000Y-67858000D01*
X161404000Y-66842000D01*
X162420000Y-66842000D01*
X162420000Y-67858000D01*
G36*
X162420000Y-47538000D02*
G01*
X161404000Y-47538000D01*
X161404000Y-46522000D01*
X162420000Y-46522000D01*
X162420000Y-47538000D01*
G37*
X162420000Y-47538000D02*
X161404000Y-47538000D01*
X161404000Y-46522000D01*
X162420000Y-46522000D01*
X162420000Y-47538000D01*
G36*
X162420000Y-60238000D02*
G01*
X161404000Y-60238000D01*
X161404000Y-59222000D01*
X162420000Y-59222000D01*
X162420000Y-60238000D01*
G37*
X162420000Y-60238000D02*
X161404000Y-60238000D01*
X161404000Y-59222000D01*
X162420000Y-59222000D01*
X162420000Y-60238000D01*
G36*
X162420000Y-72938000D02*
G01*
X161404000Y-72938000D01*
X161404000Y-71922000D01*
X162420000Y-71922000D01*
X162420000Y-72938000D01*
G37*
X162420000Y-72938000D02*
X161404000Y-72938000D01*
X161404000Y-71922000D01*
X162420000Y-71922000D01*
X162420000Y-72938000D01*
G36*
X173596000Y-55158000D02*
G01*
X172580000Y-55158000D01*
X172580000Y-54142000D01*
X173596000Y-54142000D01*
X173596000Y-55158000D01*
G37*
X173596000Y-55158000D02*
X172580000Y-55158000D01*
X172580000Y-54142000D01*
X173596000Y-54142000D01*
X173596000Y-55158000D01*
G36*
X173596000Y-70398000D02*
G01*
X172580000Y-70398000D01*
X172580000Y-69382000D01*
X173596000Y-69382000D01*
X173596000Y-70398000D01*
G37*
X173596000Y-70398000D02*
X172580000Y-70398000D01*
X172580000Y-69382000D01*
X173596000Y-69382000D01*
X173596000Y-70398000D01*
G36*
X173596000Y-72938000D02*
G01*
X172580000Y-72938000D01*
X172580000Y-71922000D01*
X173596000Y-71922000D01*
X173596000Y-72938000D01*
G37*
X173596000Y-72938000D02*
X172580000Y-72938000D01*
X172580000Y-71922000D01*
X173596000Y-71922000D01*
X173596000Y-72938000D01*
G36*
X173596000Y-47538000D02*
G01*
X172580000Y-47538000D01*
X172580000Y-46522000D01*
X173596000Y-46522000D01*
X173596000Y-47538000D01*
G37*
X173596000Y-47538000D02*
X172580000Y-47538000D01*
X172580000Y-46522000D01*
X173596000Y-46522000D01*
X173596000Y-47538000D01*
G36*
X162420000Y-70398000D02*
G01*
X161404000Y-70398000D01*
X161404000Y-69382000D01*
X162420000Y-69382000D01*
X162420000Y-70398000D01*
G37*
X162420000Y-70398000D02*
X161404000Y-70398000D01*
X161404000Y-69382000D01*
X162420000Y-69382000D01*
X162420000Y-70398000D01*
G36*
X173596000Y-65318000D02*
G01*
X172580000Y-65318000D01*
X172580000Y-64302000D01*
X173596000Y-64302000D01*
X173596000Y-65318000D01*
G37*
X173596000Y-65318000D02*
X172580000Y-65318000D01*
X172580000Y-64302000D01*
X173596000Y-64302000D01*
X173596000Y-65318000D01*
G36*
X162420000Y-57698000D02*
G01*
X161404000Y-57698000D01*
X161404000Y-56682000D01*
X162420000Y-56682000D01*
X162420000Y-57698000D01*
G37*
X162420000Y-57698000D02*
X161404000Y-57698000D01*
X161404000Y-56682000D01*
X162420000Y-56682000D01*
X162420000Y-57698000D01*
G36*
X162420000Y-50078000D02*
G01*
X161404000Y-50078000D01*
X161404000Y-49062000D01*
X162420000Y-49062000D01*
X162420000Y-50078000D01*
G37*
X162420000Y-50078000D02*
X161404000Y-50078000D01*
X161404000Y-49062000D01*
X162420000Y-49062000D01*
X162420000Y-50078000D01*
G36*
X162420000Y-62778000D02*
G01*
X161404000Y-62778000D01*
X161404000Y-61762000D01*
X162420000Y-61762000D01*
X162420000Y-62778000D01*
G37*
X162420000Y-62778000D02*
X161404000Y-62778000D01*
X161404000Y-61762000D01*
X162420000Y-61762000D01*
X162420000Y-62778000D01*
G36*
X162420000Y-55158000D02*
G01*
X161404000Y-55158000D01*
X161404000Y-54142000D01*
X162420000Y-54142000D01*
X162420000Y-55158000D01*
G37*
X162420000Y-55158000D02*
X161404000Y-55158000D01*
X161404000Y-54142000D01*
X162420000Y-54142000D01*
X162420000Y-55158000D01*
%TD*%
D12*
%TO.C,S11*%
X148000000Y-78750000D03*
D13*
X153500000Y-78750000D03*
X142500000Y-78750000D03*
D14*
X148000000Y-72850000D03*
X153000000Y-74950000D03*
%TD*%
D15*
%TO.C,REF\u002A\u002A*%
X113500000Y-107800000D03*
X94450000Y-88750000D03*
X132550000Y-88750000D03*
%TD*%
D12*
%TO.C,S7*%
X112000000Y-71010000D03*
D13*
X117500000Y-71010000D03*
X106500000Y-71010000D03*
D14*
X112000000Y-65110000D03*
X117000000Y-67210000D03*
%TD*%
D13*
%TO.C,S13*%
X119100838Y-99336245D03*
D12*
X124600000Y-99432233D03*
D13*
X130099162Y-99528221D03*
D14*
X124702969Y-93533132D03*
X129665558Y-95720074D03*
%TD*%
D12*
%TO.C,S8*%
X112000000Y-54010000D03*
D13*
X106500000Y-54010000D03*
X117500000Y-54010000D03*
D14*
X112000000Y-48110000D03*
X117000000Y-50210000D03*
%TD*%
D12*
%TO.C,S3*%
X76000000Y-87210000D03*
D13*
X70500000Y-87210000D03*
X81500000Y-87210000D03*
D14*
X76000000Y-81310000D03*
X81000000Y-83410000D03*
%TD*%
D12*
%TO.C,S9*%
X130000000Y-76950000D03*
D13*
X124500000Y-76950000D03*
X135500000Y-76950000D03*
D14*
X130000000Y-71050000D03*
X135000000Y-73150000D03*
%TD*%
D12*
%TO.C,S6*%
X94000000Y-57610000D03*
D13*
X88500000Y-57610000D03*
X99500000Y-57610000D03*
D14*
X94000000Y-51710000D03*
X99000000Y-53810000D03*
%TD*%
D15*
%TO.C,*%
X173000000Y-108000000D03*
%TD*%
D13*
%TO.C,S5*%
X88500000Y-74610000D03*
X99500000Y-74610000D03*
D12*
X94000000Y-74610000D03*
D14*
X94000000Y-68710000D03*
X99000000Y-70810000D03*
%TD*%
D15*
%TO.C,*%
X153250000Y-49500000D03*
%TD*%
D12*
%TO.C,S10*%
X130000000Y-59950000D03*
D13*
X124500000Y-59950000D03*
X135500000Y-59950000D03*
D14*
X130000000Y-54050000D03*
X135000000Y-56150000D03*
%TD*%
D12*
%TO.C,S12*%
X148000000Y-61750000D03*
D13*
X153500000Y-61750000D03*
X142500000Y-61750000D03*
D14*
X148000000Y-55850000D03*
X153000000Y-57950000D03*
%TD*%
D16*
%TO.C,U1*%
X173342000Y-67350000D03*
D17*
X159880000Y-72430000D03*
D16*
X173342000Y-74970000D03*
D18*
X161658000Y-62270000D03*
D17*
X175120000Y-62270000D03*
D18*
X161658000Y-72430000D03*
D17*
X159880000Y-49570000D03*
D18*
X161658000Y-49570000D03*
X161658000Y-47030000D03*
D17*
X175120000Y-47030000D03*
D19*
X175120000Y-47030000D03*
D16*
X173342000Y-49570000D03*
D17*
X159880000Y-52110000D03*
X175120000Y-49570000D03*
D16*
X173342000Y-69890000D03*
D17*
X175120000Y-67350000D03*
D16*
X173342000Y-57190000D03*
D17*
X159880000Y-57190000D03*
X175120000Y-64810000D03*
X175120000Y-54650000D03*
X175120000Y-72430000D03*
D18*
X161658000Y-67350000D03*
D17*
X159880000Y-59730000D03*
D16*
X173342000Y-64810000D03*
D18*
X161658000Y-57190000D03*
D17*
X159880000Y-67350000D03*
X175120000Y-74970000D03*
D18*
X161658000Y-74970000D03*
D16*
X173342000Y-72430000D03*
D17*
X159880000Y-64810000D03*
D16*
X173342000Y-52110000D03*
D18*
X161658000Y-64810000D03*
X161658000Y-52110000D03*
X161658000Y-54650000D03*
D17*
X159880000Y-54650000D03*
X175120000Y-59730000D03*
X175120000Y-52110000D03*
D18*
X161658000Y-59730000D03*
D17*
X175120000Y-69890000D03*
X175120000Y-57190000D03*
D16*
X173342000Y-59730000D03*
D17*
X159880000Y-62270000D03*
D16*
X173342000Y-62270000D03*
D17*
X159880000Y-74970000D03*
D18*
X161658000Y-69890000D03*
D16*
X173342000Y-54650000D03*
D17*
X159880000Y-69890000D03*
X159880000Y-47030000D03*
D16*
X173342000Y-47030000D03*
D20*
X172326000Y-47030000D03*
X172326000Y-49570000D03*
X172326000Y-52110000D03*
X172326000Y-54650000D03*
X172326000Y-57190000D03*
X172326000Y-59730000D03*
X172326000Y-62270000D03*
X172326000Y-64810000D03*
X172326000Y-67350000D03*
X172326000Y-69890000D03*
X172326000Y-72430000D03*
X172326000Y-74970000D03*
D21*
X162674000Y-74970000D03*
X162674000Y-72430000D03*
X162674000Y-69890000D03*
X162674000Y-67350000D03*
X162674000Y-64810000D03*
X162674000Y-62270000D03*
X162674000Y-59730000D03*
X162674000Y-57190000D03*
X162674000Y-54650000D03*
X162674000Y-52110000D03*
X162674000Y-49570000D03*
X162674000Y-47030000D03*
%TD*%
D13*
%TO.C,S2*%
X63500000Y-70210000D03*
X52500000Y-70210000D03*
D12*
X58000000Y-70210000D03*
D14*
X58000000Y-64310000D03*
X63000000Y-66410000D03*
%TD*%
D12*
%TO.C,S4*%
X76000000Y-70210000D03*
D13*
X81500000Y-70210000D03*
X70500000Y-70210000D03*
D14*
X76000000Y-64310000D03*
X81000000Y-66410000D03*
%TD*%
D13*
%TO.C,S1*%
X52500000Y-87210000D03*
X63500000Y-87210000D03*
D12*
X58000000Y-87210000D03*
D14*
X58000000Y-81310000D03*
X63000000Y-83410000D03*
%TD*%
D15*
%TO.C,*%
X54500000Y-108500000D03*
%TD*%
D22*
%TO.C,J2*%
X176650000Y-83250000D03*
X169650000Y-83250000D03*
D23*
X172030000Y-80920000D03*
X172050000Y-85550000D03*
X175050000Y-85550000D03*
X175030000Y-80920000D03*
X166950000Y-80950000D03*
X166930000Y-85520000D03*
X168030000Y-80920000D03*
X168050000Y-85550000D03*
%TD*%
D15*
%TO.C,*%
X54500000Y-50000000D03*
%TD*%
D13*
%TO.C,S14*%
X137053593Y-102200000D03*
D12*
X142552755Y-102295988D03*
D13*
X148051917Y-102391976D03*
D14*
X142655724Y-96396887D03*
X147618313Y-98583829D03*
%TD*%
D12*
%TO.C,S15*%
X160505510Y-105159743D03*
D13*
X166004672Y-105255731D03*
X155006348Y-105063755D03*
D14*
X160608479Y-99260642D03*
X165571068Y-101447584D03*
%TD*%
M02*
