%TF.GenerationSoftware,KiCad,Pcbnew,(6.0.4)*%
%TF.CreationDate,2022-08-14T15:03:19+10:00*%
%TF.ProjectId,budgie,62756467-6965-42e6-9b69-6361645f7063,2*%
%TF.SameCoordinates,Original*%
%TF.FileFunction,Legend,Top*%
%TF.FilePolarity,Positive*%
%FSLAX46Y46*%
G04 Gerber Fmt 4.6, Leading zero omitted, Abs format (unit mm)*
G04 Created by KiCad (PCBNEW (6.0.4)) date 2022-08-14 15:03:19*
%MOMM*%
%LPD*%
G01*
G04 APERTURE LIST*
%ADD10C,0.150000*%
%ADD11C,0.200000*%
%ADD12C,0.010000*%
G04 APERTURE END LIST*
D10*
%TO.C,*%
D11*
%TO.C,REF\u002A\u002A*%
X113500000Y-77955000D02*
G75*
G03*
X112371615Y-78014136I-6J-10794921D01*
G01*
X120508047Y-69463866D02*
G75*
G03*
X116357500Y-68430000I-7008047J-19286134D01*
G01*
X112371615Y-99485864D02*
G75*
G03*
X113500000Y-99545000I1128379J10735785D01*
G01*
X133820000Y-85892500D02*
G75*
G03*
X132786135Y-81741955I-20320019J-2857506D01*
G01*
X114628385Y-78014137D02*
G75*
G03*
X113500000Y-77955000I-1128385J-10735763D01*
G01*
X113500000Y-99545001D02*
G75*
G03*
X114628385Y-99485864I0J10794901D01*
G01*
X110642500Y-68430000D02*
G75*
G03*
X106491952Y-69463866I2857496J-20319983D01*
G01*
%TO.C,Ref\u002A\u002A*%
G36*
X92546965Y-102316234D02*
G01*
X92589942Y-102373646D01*
X92612550Y-102424207D01*
X92645795Y-102512399D01*
X92688714Y-102635143D01*
X92740343Y-102789357D01*
X92799718Y-102971961D01*
X92865874Y-103179874D01*
X92937848Y-103410015D01*
X93014676Y-103659304D01*
X93095393Y-103924660D01*
X93179037Y-104203002D01*
X93264642Y-104491250D01*
X93351245Y-104786323D01*
X93431754Y-105063882D01*
X93497749Y-105291171D01*
X93563057Y-105513125D01*
X93626280Y-105725184D01*
X93686019Y-105922787D01*
X93740876Y-106101373D01*
X93789455Y-106256382D01*
X93830356Y-106383253D01*
X93862181Y-106477426D01*
X93879462Y-106524382D01*
X93952918Y-106736242D01*
X94021278Y-106987882D01*
X94058816Y-107152917D01*
X94086458Y-107280885D01*
X94112798Y-107400328D01*
X94135916Y-107502718D01*
X94153890Y-107579528D01*
X94163757Y-107618583D01*
X94256464Y-107944466D01*
X94357067Y-108282612D01*
X94466915Y-108637197D01*
X94587356Y-109012395D01*
X94719740Y-109412382D01*
X94865415Y-109841333D01*
X95025731Y-110303424D01*
X95093827Y-110497250D01*
X95212229Y-110834806D01*
X95320336Y-111146357D01*
X95417582Y-111430188D01*
X95503401Y-111684589D01*
X95577225Y-111907843D01*
X95638488Y-112098240D01*
X95686622Y-112254065D01*
X95721063Y-112373605D01*
X95740834Y-112453199D01*
X95759362Y-112525442D01*
X95779595Y-112580534D01*
X95795783Y-112605111D01*
X95828621Y-112610295D01*
X95875821Y-112591350D01*
X95940576Y-112546077D01*
X96026080Y-112472274D01*
X96124621Y-112378454D01*
X96173697Y-112330773D01*
X96249979Y-112257216D01*
X96350006Y-112161087D01*
X96470316Y-112045694D01*
X96607449Y-111914342D01*
X96757942Y-111770336D01*
X96918336Y-111616984D01*
X97085169Y-111457590D01*
X97254978Y-111295460D01*
X97424304Y-111133902D01*
X97589685Y-110976219D01*
X97747660Y-110825719D01*
X97894767Y-110685707D01*
X98027545Y-110559490D01*
X98142534Y-110450372D01*
X98228004Y-110369470D01*
X98299020Y-110303020D01*
X98397859Y-110211507D01*
X98520911Y-110098221D01*
X98664565Y-109966453D01*
X98825210Y-109819493D01*
X98999236Y-109660634D01*
X99183032Y-109493164D01*
X99372987Y-109320376D01*
X99565490Y-109145560D01*
X99756931Y-108972007D01*
X99943699Y-108803008D01*
X100122183Y-108641854D01*
X100241133Y-108534690D01*
X100370466Y-108417626D01*
X100505490Y-108294237D01*
X100637998Y-108172107D01*
X100759782Y-108058818D01*
X100862636Y-107961951D01*
X100907883Y-107918692D01*
X101053095Y-107782934D01*
X101174357Y-107679099D01*
X101273893Y-107605836D01*
X101353927Y-107561796D01*
X101416682Y-107545629D01*
X101464383Y-107555984D01*
X101482506Y-107569900D01*
X101505774Y-107622938D01*
X101496565Y-107702878D01*
X101454932Y-107809532D01*
X101380931Y-107942715D01*
X101365913Y-107966753D01*
X101305108Y-108059294D01*
X101244366Y-108142973D01*
X101178512Y-108223262D01*
X101102370Y-108305636D01*
X101010764Y-108395566D01*
X100898520Y-108498524D01*
X100760462Y-108619984D01*
X100692989Y-108678300D01*
X100564840Y-108789215D01*
X100434153Y-108903345D01*
X100308455Y-109014043D01*
X100195274Y-109114662D01*
X100102136Y-109198554D01*
X100057989Y-109239038D01*
X99983672Y-109307571D01*
X99884838Y-109398178D01*
X99768391Y-109504559D01*
X99641234Y-109620415D01*
X99510269Y-109739449D01*
X99401823Y-109837778D01*
X99258230Y-109968193D01*
X99099198Y-110113279D01*
X98935063Y-110263564D01*
X98776161Y-110409576D01*
X98632827Y-110541841D01*
X98565739Y-110604028D01*
X98445418Y-110715271D01*
X98323191Y-110827347D01*
X98206310Y-110933677D01*
X98102022Y-111027678D01*
X98017578Y-111102772D01*
X97983656Y-111132389D01*
X97921605Y-111186804D01*
X97833675Y-111265033D01*
X97725193Y-111362283D01*
X97601482Y-111473759D01*
X97467868Y-111594666D01*
X97329675Y-111720211D01*
X97241269Y-111800796D01*
X97015362Y-112006441D01*
X96817631Y-112185084D01*
X96645522Y-112338837D01*
X96496480Y-112469815D01*
X96367950Y-112580130D01*
X96257379Y-112671896D01*
X96162211Y-112747226D01*
X96079893Y-112808233D01*
X96007868Y-112857031D01*
X95943584Y-112895732D01*
X95884485Y-112926451D01*
X95875342Y-112930765D01*
X95774404Y-112969761D01*
X95693634Y-112980828D01*
X95622399Y-112965075D01*
X95608110Y-112958683D01*
X95577057Y-112929806D01*
X95540897Y-112868845D01*
X95497560Y-112772043D01*
X95477574Y-112721991D01*
X95436002Y-112612184D01*
X95383881Y-112469645D01*
X95323835Y-112301873D01*
X95258490Y-112116366D01*
X95190468Y-111920623D01*
X95122395Y-111722145D01*
X95056893Y-111528429D01*
X94999063Y-111354500D01*
X94954133Y-111220230D01*
X94904198Y-111074609D01*
X94855014Y-110934222D01*
X94812335Y-110815654D01*
X94808104Y-110804167D01*
X94747117Y-110634479D01*
X94675786Y-110427971D01*
X94595330Y-110188546D01*
X94506972Y-109920105D01*
X94411930Y-109626551D01*
X94311427Y-109311787D01*
X94206681Y-108979715D01*
X94098915Y-108634238D01*
X93989349Y-108279258D01*
X93879203Y-107918679D01*
X93769698Y-107556401D01*
X93662054Y-107196329D01*
X93557493Y-106842364D01*
X93457234Y-106498410D01*
X93408561Y-106329528D01*
X93341141Y-106095095D01*
X93274935Y-105865751D01*
X93211239Y-105645931D01*
X93151348Y-105440068D01*
X93096560Y-105252599D01*
X93048169Y-105087956D01*
X93007473Y-104950576D01*
X92975766Y-104844892D01*
X92954347Y-104775340D01*
X92953851Y-104773778D01*
X92925035Y-104678637D01*
X92888767Y-104551974D01*
X92846726Y-104400254D01*
X92800591Y-104229941D01*
X92752042Y-104047500D01*
X92702755Y-103859394D01*
X92654411Y-103672089D01*
X92608689Y-103492047D01*
X92567266Y-103325735D01*
X92531822Y-103179616D01*
X92504035Y-103060154D01*
X92485585Y-102973814D01*
X92483316Y-102961917D01*
X92460950Y-102822358D01*
X92445120Y-102684563D01*
X92436499Y-102558393D01*
X92435758Y-102453712D01*
X92443567Y-102380382D01*
X92443692Y-102379833D01*
X92469032Y-102318783D01*
X92504925Y-102297521D01*
X92546965Y-102316234D01*
G37*
D12*
X92546965Y-102316234D02*
X92589942Y-102373646D01*
X92612550Y-102424207D01*
X92645795Y-102512399D01*
X92688714Y-102635143D01*
X92740343Y-102789357D01*
X92799718Y-102971961D01*
X92865874Y-103179874D01*
X92937848Y-103410015D01*
X93014676Y-103659304D01*
X93095393Y-103924660D01*
X93179037Y-104203002D01*
X93264642Y-104491250D01*
X93351245Y-104786323D01*
X93431754Y-105063882D01*
X93497749Y-105291171D01*
X93563057Y-105513125D01*
X93626280Y-105725184D01*
X93686019Y-105922787D01*
X93740876Y-106101373D01*
X93789455Y-106256382D01*
X93830356Y-106383253D01*
X93862181Y-106477426D01*
X93879462Y-106524382D01*
X93952918Y-106736242D01*
X94021278Y-106987882D01*
X94058816Y-107152917D01*
X94086458Y-107280885D01*
X94112798Y-107400328D01*
X94135916Y-107502718D01*
X94153890Y-107579528D01*
X94163757Y-107618583D01*
X94256464Y-107944466D01*
X94357067Y-108282612D01*
X94466915Y-108637197D01*
X94587356Y-109012395D01*
X94719740Y-109412382D01*
X94865415Y-109841333D01*
X95025731Y-110303424D01*
X95093827Y-110497250D01*
X95212229Y-110834806D01*
X95320336Y-111146357D01*
X95417582Y-111430188D01*
X95503401Y-111684589D01*
X95577225Y-111907843D01*
X95638488Y-112098240D01*
X95686622Y-112254065D01*
X95721063Y-112373605D01*
X95740834Y-112453199D01*
X95759362Y-112525442D01*
X95779595Y-112580534D01*
X95795783Y-112605111D01*
X95828621Y-112610295D01*
X95875821Y-112591350D01*
X95940576Y-112546077D01*
X96026080Y-112472274D01*
X96124621Y-112378454D01*
X96173697Y-112330773D01*
X96249979Y-112257216D01*
X96350006Y-112161087D01*
X96470316Y-112045694D01*
X96607449Y-111914342D01*
X96757942Y-111770336D01*
X96918336Y-111616984D01*
X97085169Y-111457590D01*
X97254978Y-111295460D01*
X97424304Y-111133902D01*
X97589685Y-110976219D01*
X97747660Y-110825719D01*
X97894767Y-110685707D01*
X98027545Y-110559490D01*
X98142534Y-110450372D01*
X98228004Y-110369470D01*
X98299020Y-110303020D01*
X98397859Y-110211507D01*
X98520911Y-110098221D01*
X98664565Y-109966453D01*
X98825210Y-109819493D01*
X98999236Y-109660634D01*
X99183032Y-109493164D01*
X99372987Y-109320376D01*
X99565490Y-109145560D01*
X99756931Y-108972007D01*
X99943699Y-108803008D01*
X100122183Y-108641854D01*
X100241133Y-108534690D01*
X100370466Y-108417626D01*
X100505490Y-108294237D01*
X100637998Y-108172107D01*
X100759782Y-108058818D01*
X100862636Y-107961951D01*
X100907883Y-107918692D01*
X101053095Y-107782934D01*
X101174357Y-107679099D01*
X101273893Y-107605836D01*
X101353927Y-107561796D01*
X101416682Y-107545629D01*
X101464383Y-107555984D01*
X101482506Y-107569900D01*
X101505774Y-107622938D01*
X101496565Y-107702878D01*
X101454932Y-107809532D01*
X101380931Y-107942715D01*
X101365913Y-107966753D01*
X101305108Y-108059294D01*
X101244366Y-108142973D01*
X101178512Y-108223262D01*
X101102370Y-108305636D01*
X101010764Y-108395566D01*
X100898520Y-108498524D01*
X100760462Y-108619984D01*
X100692989Y-108678300D01*
X100564840Y-108789215D01*
X100434153Y-108903345D01*
X100308455Y-109014043D01*
X100195274Y-109114662D01*
X100102136Y-109198554D01*
X100057989Y-109239038D01*
X99983672Y-109307571D01*
X99884838Y-109398178D01*
X99768391Y-109504559D01*
X99641234Y-109620415D01*
X99510269Y-109739449D01*
X99401823Y-109837778D01*
X99258230Y-109968193D01*
X99099198Y-110113279D01*
X98935063Y-110263564D01*
X98776161Y-110409576D01*
X98632827Y-110541841D01*
X98565739Y-110604028D01*
X98445418Y-110715271D01*
X98323191Y-110827347D01*
X98206310Y-110933677D01*
X98102022Y-111027678D01*
X98017578Y-111102772D01*
X97983656Y-111132389D01*
X97921605Y-111186804D01*
X97833675Y-111265033D01*
X97725193Y-111362283D01*
X97601482Y-111473759D01*
X97467868Y-111594666D01*
X97329675Y-111720211D01*
X97241269Y-111800796D01*
X97015362Y-112006441D01*
X96817631Y-112185084D01*
X96645522Y-112338837D01*
X96496480Y-112469815D01*
X96367950Y-112580130D01*
X96257379Y-112671896D01*
X96162211Y-112747226D01*
X96079893Y-112808233D01*
X96007868Y-112857031D01*
X95943584Y-112895732D01*
X95884485Y-112926451D01*
X95875342Y-112930765D01*
X95774404Y-112969761D01*
X95693634Y-112980828D01*
X95622399Y-112965075D01*
X95608110Y-112958683D01*
X95577057Y-112929806D01*
X95540897Y-112868845D01*
X95497560Y-112772043D01*
X95477574Y-112721991D01*
X95436002Y-112612184D01*
X95383881Y-112469645D01*
X95323835Y-112301873D01*
X95258490Y-112116366D01*
X95190468Y-111920623D01*
X95122395Y-111722145D01*
X95056893Y-111528429D01*
X94999063Y-111354500D01*
X94954133Y-111220230D01*
X94904198Y-111074609D01*
X94855014Y-110934222D01*
X94812335Y-110815654D01*
X94808104Y-110804167D01*
X94747117Y-110634479D01*
X94675786Y-110427971D01*
X94595330Y-110188546D01*
X94506972Y-109920105D01*
X94411930Y-109626551D01*
X94311427Y-109311787D01*
X94206681Y-108979715D01*
X94098915Y-108634238D01*
X93989349Y-108279258D01*
X93879203Y-107918679D01*
X93769698Y-107556401D01*
X93662054Y-107196329D01*
X93557493Y-106842364D01*
X93457234Y-106498410D01*
X93408561Y-106329528D01*
X93341141Y-106095095D01*
X93274935Y-105865751D01*
X93211239Y-105645931D01*
X93151348Y-105440068D01*
X93096560Y-105252599D01*
X93048169Y-105087956D01*
X93007473Y-104950576D01*
X92975766Y-104844892D01*
X92954347Y-104775340D01*
X92953851Y-104773778D01*
X92925035Y-104678637D01*
X92888767Y-104551974D01*
X92846726Y-104400254D01*
X92800591Y-104229941D01*
X92752042Y-104047500D01*
X92702755Y-103859394D01*
X92654411Y-103672089D01*
X92608689Y-103492047D01*
X92567266Y-103325735D01*
X92531822Y-103179616D01*
X92504035Y-103060154D01*
X92485585Y-102973814D01*
X92483316Y-102961917D01*
X92460950Y-102822358D01*
X92445120Y-102684563D01*
X92436499Y-102558393D01*
X92435758Y-102453712D01*
X92443567Y-102380382D01*
X92443692Y-102379833D01*
X92469032Y-102318783D01*
X92504925Y-102297521D01*
X92546965Y-102316234D01*
G36*
X104408935Y-101688164D02*
G01*
X104494704Y-101461651D01*
X104559811Y-101252028D01*
X104602031Y-101064128D01*
X104619141Y-100902787D01*
X104619406Y-100882776D01*
X104617741Y-100808453D01*
X104609872Y-100747630D01*
X104591486Y-100695065D01*
X104558271Y-100645518D01*
X104505913Y-100593749D01*
X104430099Y-100534518D01*
X104326518Y-100462584D01*
X104209976Y-100385272D01*
X104061457Y-100288427D01*
X103942272Y-100213288D01*
X103846982Y-100157416D01*
X103770145Y-100118373D01*
X103706324Y-100093721D01*
X103650077Y-100081022D01*
X103595965Y-100077838D01*
X103538549Y-100081731D01*
X103533877Y-100082249D01*
X103407126Y-100096589D01*
X103421698Y-99967792D01*
X103436270Y-99838994D01*
X103320019Y-99717117D01*
X103261457Y-99651586D01*
X103213345Y-99590218D01*
X103184835Y-99544829D01*
X103182724Y-99539892D01*
X103170690Y-99463222D01*
X103196285Y-99401882D01*
X103256801Y-99358347D01*
X103349535Y-99335091D01*
X103410231Y-99331833D01*
X103488256Y-99338125D01*
X103546640Y-99361710D01*
X103583275Y-99388869D01*
X103663803Y-99434325D01*
X103753895Y-99441053D01*
X103857706Y-99409293D01*
X103866251Y-99405322D01*
X103937711Y-99361377D01*
X103969601Y-99312996D01*
X103964657Y-99254173D01*
X103950227Y-99220899D01*
X103893734Y-99117648D01*
X103816464Y-98986308D01*
X103721491Y-98831443D01*
X103611888Y-98657618D01*
X103490729Y-98469396D01*
X103361090Y-98271344D01*
X103226043Y-98068025D01*
X103088664Y-97864003D01*
X102952026Y-97663844D01*
X102819203Y-97472111D01*
X102693270Y-97293370D01*
X102577301Y-97132184D01*
X102474370Y-96993118D01*
X102387551Y-96880737D01*
X102319919Y-96799605D01*
X102318215Y-96797698D01*
X102238156Y-96708313D01*
X101317406Y-97586036D01*
X101150338Y-97744737D01*
X100990658Y-97895343D01*
X100841275Y-98035182D01*
X100705099Y-98161578D01*
X100585040Y-98271859D01*
X100484008Y-98363352D01*
X100404912Y-98433381D01*
X100350662Y-98479275D01*
X100324819Y-98498067D01*
X100256912Y-98517576D01*
X100182666Y-98510950D01*
X100095648Y-98476289D01*
X99989423Y-98411693D01*
X99957653Y-98389609D01*
X99902915Y-98351453D01*
X99819608Y-98294245D01*
X99714338Y-98222479D01*
X99593715Y-98140654D01*
X99464347Y-98053265D01*
X99370073Y-97989812D01*
X98914989Y-97683995D01*
X98802149Y-97793539D01*
X98735869Y-97865651D01*
X98674603Y-97945388D01*
X98635301Y-98008917D01*
X98587537Y-98093533D01*
X98520302Y-98200732D01*
X98440711Y-98320154D01*
X98355878Y-98441438D01*
X98272917Y-98554222D01*
X98198944Y-98648146D01*
X98184724Y-98665083D01*
X98128013Y-98735145D01*
X98079146Y-98801762D01*
X98047807Y-98851650D01*
X98045828Y-98855583D01*
X98022340Y-98891934D01*
X97976083Y-98953620D01*
X97912197Y-99034143D01*
X97835821Y-99127008D01*
X97763294Y-99212692D01*
X97678737Y-99313202D01*
X97600945Y-99409267D01*
X97535471Y-99493755D01*
X97487863Y-99559536D01*
X97465936Y-99594737D01*
X97430639Y-99653889D01*
X97378194Y-99730752D01*
X97318718Y-99810647D01*
X97306063Y-99826712D01*
X97238171Y-99914924D01*
X97196337Y-99978901D01*
X97177955Y-100025559D01*
X97180415Y-100061815D01*
X97201111Y-100094583D01*
X97203873Y-100097702D01*
X97252388Y-100135885D01*
X97340634Y-100187121D01*
X97468148Y-100251175D01*
X97634467Y-100327817D01*
X97839128Y-100416812D01*
X97846073Y-100419763D01*
X98039547Y-100507053D01*
X98191935Y-100587159D01*
X98303074Y-100659981D01*
X98372801Y-100725418D01*
X98392422Y-100756038D01*
X98408575Y-100801680D01*
X98402513Y-100841922D01*
X98381589Y-100883038D01*
X98331800Y-100937880D01*
X98242516Y-100999451D01*
X98115879Y-101066809D01*
X97954026Y-101139010D01*
X97759098Y-101215113D01*
X97533232Y-101294174D01*
X97278569Y-101375251D01*
X97234125Y-101388698D01*
X97142516Y-101434558D01*
X97080876Y-101508465D01*
X97049027Y-101611040D01*
X97046791Y-101742907D01*
X97073990Y-101904686D01*
X97079871Y-101928706D01*
X97159298Y-102166357D01*
X97278200Y-102409922D01*
X97434728Y-102656125D01*
X97627030Y-102901694D01*
X97634468Y-102910333D01*
X97713328Y-103004617D01*
X97796241Y-103108613D01*
X97870287Y-103205931D01*
X97900440Y-103247667D01*
X97960696Y-103329341D01*
X98022631Y-103406852D01*
X98075336Y-103466715D01*
X98087896Y-103479389D01*
X98132652Y-103537144D01*
X98182466Y-103624509D01*
X98232421Y-103729953D01*
X98277596Y-103841946D01*
X98313074Y-103948958D01*
X98333934Y-104039457D01*
X98336683Y-104062583D01*
X98338338Y-104117346D01*
X98327006Y-104143105D01*
X98295979Y-104152723D01*
X98289228Y-104153567D01*
X98231618Y-104142800D01*
X98150322Y-104101602D01*
X98048543Y-104032239D01*
X97929483Y-103936975D01*
X97796346Y-103818077D01*
X97742412Y-103766864D01*
X97571066Y-103594370D01*
X97430651Y-103436182D01*
X97315549Y-103285238D01*
X97220144Y-103134481D01*
X97178909Y-103058586D01*
X97122472Y-102953746D01*
X97076801Y-102886576D01*
X97035255Y-102856157D01*
X96991193Y-102861569D01*
X96937974Y-102901894D01*
X96868957Y-102976213D01*
X96838639Y-103011495D01*
X96793813Y-103063108D01*
X96725247Y-103140751D01*
X96637674Y-103239127D01*
X96535826Y-103352940D01*
X96424436Y-103476891D01*
X96308236Y-103605685D01*
X96271619Y-103646160D01*
X96156987Y-103773749D01*
X96047879Y-103896988D01*
X95948605Y-104010873D01*
X95863478Y-104110397D01*
X95796807Y-104190552D01*
X95752903Y-104246334D01*
X95743501Y-104259485D01*
X95662347Y-104379066D01*
X95677138Y-104546158D01*
X95683385Y-104639897D01*
X95678948Y-104699451D01*
X95659172Y-104732537D01*
X95619404Y-104746872D01*
X95554991Y-104750172D01*
X95554101Y-104750176D01*
X95439616Y-104768378D01*
X95325097Y-104823603D01*
X95227455Y-104898236D01*
X95154870Y-104955221D01*
X95102062Y-104978779D01*
X95067092Y-104967308D01*
X95048026Y-104919204D01*
X95042927Y-104832863D01*
X95046652Y-104748508D01*
X95057860Y-104584980D01*
X94975591Y-104542794D01*
X94905599Y-104498567D01*
X94813627Y-104428126D01*
X94705589Y-104337101D01*
X94587400Y-104231120D01*
X94464975Y-104115813D01*
X94344229Y-103996809D01*
X94231076Y-103879736D01*
X94131432Y-103770225D01*
X94051211Y-103673905D01*
X94022718Y-103635938D01*
X93943129Y-103510350D01*
X93864367Y-103360773D01*
X93794620Y-103204437D01*
X93742075Y-103058575D01*
X93732260Y-103024564D01*
X93685515Y-102779218D01*
X93671166Y-102516988D01*
X93678062Y-102410053D01*
X93982131Y-102410053D01*
X94002641Y-102612207D01*
X94056785Y-102814047D01*
X94145642Y-103017525D01*
X94270291Y-103224593D01*
X94431811Y-103437201D01*
X94631282Y-103657301D01*
X94869784Y-103886845D01*
X94976842Y-103982169D01*
X95086577Y-104076609D01*
X95170939Y-104144779D01*
X95235463Y-104189338D01*
X95285688Y-104212943D01*
X95327147Y-104218253D01*
X95365377Y-104207924D01*
X95402811Y-104186662D01*
X95431676Y-104161299D01*
X95483773Y-104109079D01*
X95554410Y-104034964D01*
X95638899Y-103943916D01*
X95732550Y-103840900D01*
X95787809Y-103779203D01*
X95995872Y-103548043D01*
X96179638Y-103349068D01*
X96340526Y-103180837D01*
X96479952Y-103041906D01*
X96599336Y-102930833D01*
X96700095Y-102846176D01*
X96720522Y-102830487D01*
X96790597Y-102775301D01*
X96847214Y-102726186D01*
X96881868Y-102690726D01*
X96888081Y-102681113D01*
X96892338Y-102640345D01*
X96880637Y-102577798D01*
X96851850Y-102490381D01*
X96804849Y-102375005D01*
X96738505Y-102228582D01*
X96672395Y-102090401D01*
X96606284Y-101955459D01*
X96553471Y-101853407D01*
X96508747Y-101779063D01*
X96466904Y-101727243D01*
X96422732Y-101692765D01*
X96371022Y-101670445D01*
X96306565Y-101655100D01*
X96224152Y-101641548D01*
X96220740Y-101641021D01*
X96111889Y-101620324D01*
X96038527Y-101595770D01*
X95993816Y-101563966D01*
X95970913Y-101521520D01*
X95969528Y-101516439D01*
X95974807Y-101457691D01*
X96021498Y-101404915D01*
X96109022Y-101358710D01*
X96128873Y-101351207D01*
X96225281Y-101303013D01*
X96296987Y-101239937D01*
X96337118Y-101169087D01*
X96343239Y-101129615D01*
X96332966Y-101059727D01*
X96299588Y-100985468D01*
X96239262Y-100900377D01*
X96148148Y-100797992D01*
X96142744Y-100792333D01*
X96078471Y-100721732D01*
X96022289Y-100653800D01*
X95983625Y-100600143D01*
X95976230Y-100587377D01*
X95950393Y-100553556D01*
X95901753Y-100502642D01*
X95838013Y-100441479D01*
X95766872Y-100376907D01*
X95696033Y-100315771D01*
X95633196Y-100264913D01*
X95586063Y-100231176D01*
X95563967Y-100221072D01*
X95532781Y-100232920D01*
X95475149Y-100264604D01*
X95398883Y-100311096D01*
X95311800Y-100367365D01*
X95221712Y-100428383D01*
X95136435Y-100489120D01*
X95074061Y-100536381D01*
X94891544Y-100693824D01*
X94707307Y-100877696D01*
X94531420Y-101076640D01*
X94373952Y-101279300D01*
X94250200Y-101465573D01*
X94158577Y-101643800D01*
X94080394Y-101846303D01*
X94021671Y-102055679D01*
X93994174Y-102205633D01*
X93982131Y-102410053D01*
X93678062Y-102410053D01*
X93688550Y-102247429D01*
X93737002Y-101980098D01*
X93815858Y-101724549D01*
X93824090Y-101703301D01*
X93921091Y-101480454D01*
X94034566Y-101265015D01*
X94168135Y-101051865D01*
X94325416Y-100835886D01*
X94510031Y-100611957D01*
X94725598Y-100374961D01*
X94866091Y-100229644D01*
X95222420Y-99868037D01*
X95004955Y-99656205D01*
X94934374Y-99588043D01*
X94844441Y-99502090D01*
X94740305Y-99403183D01*
X94627113Y-99296155D01*
X94510013Y-99185843D01*
X94394153Y-99077081D01*
X94284681Y-98974703D01*
X94186745Y-98883546D01*
X94105492Y-98808443D01*
X94046072Y-98754230D01*
X94019806Y-98730941D01*
X93973338Y-98690965D01*
X93645970Y-99009524D01*
X93295631Y-99327865D01*
X92918654Y-99626083D01*
X92507630Y-99910036D01*
X92505147Y-99911643D01*
X92427857Y-99964781D01*
X92327094Y-100038735D01*
X92208735Y-100128765D01*
X92078657Y-100230132D01*
X91942736Y-100338096D01*
X91806850Y-100447918D01*
X91676876Y-100554857D01*
X91558690Y-100654174D01*
X91458170Y-100741130D01*
X91381193Y-100810984D01*
X91342266Y-100849491D01*
X91283710Y-100911793D01*
X91469266Y-100981576D01*
X91622208Y-101043611D01*
X91769416Y-101111676D01*
X91902841Y-101181477D01*
X92014436Y-101248718D01*
X92096155Y-101309102D01*
X92114338Y-101325932D01*
X92174879Y-101403934D01*
X92194147Y-101477511D01*
X92172498Y-101549910D01*
X92143461Y-101590195D01*
X92088615Y-101633345D01*
X92017806Y-101651574D01*
X91928698Y-101644131D01*
X91818951Y-101610263D01*
X91686229Y-101549219D01*
X91528193Y-101460247D01*
X91342507Y-101342595D01*
X91313453Y-101323313D01*
X91160236Y-101216729D01*
X91035099Y-101120518D01*
X90939529Y-101036324D01*
X90875019Y-100965793D01*
X90843057Y-100910570D01*
X90845133Y-100872301D01*
X90882739Y-100852629D01*
X90886586Y-100852014D01*
X90925467Y-100831428D01*
X90973790Y-100785716D01*
X91002688Y-100750000D01*
X91155390Y-100560993D01*
X91327359Y-100389626D01*
X91464089Y-100274579D01*
X91546675Y-100209079D01*
X91651945Y-100125498D01*
X91769463Y-100032127D01*
X91888795Y-99937254D01*
X91961739Y-99879226D01*
X92124148Y-99751152D01*
X92264147Y-99643714D01*
X92391421Y-99549942D01*
X92515653Y-99462865D01*
X92646527Y-99375513D01*
X92787239Y-99285031D01*
X92898531Y-99210671D01*
X93023841Y-99121057D01*
X93145542Y-99029052D01*
X93221650Y-98968040D01*
X93322385Y-98886852D01*
X93431952Y-98802366D01*
X93535893Y-98725546D01*
X93607226Y-98675667D01*
X93680798Y-98625169D01*
X93739035Y-98583092D01*
X93774327Y-98555054D01*
X93781357Y-98547096D01*
X93767030Y-98527414D01*
X93726401Y-98483209D01*
X93664045Y-98418919D01*
X93584538Y-98338980D01*
X93492456Y-98247831D01*
X93392374Y-98149906D01*
X93288870Y-98049644D01*
X93186517Y-97951482D01*
X93140274Y-97907630D01*
X93737309Y-97907630D01*
X93738472Y-97929712D01*
X93767890Y-97971490D01*
X93826671Y-98034051D01*
X93915916Y-98118482D01*
X94036732Y-98225871D01*
X94190223Y-98357307D01*
X94215989Y-98379043D01*
X94314700Y-98464749D01*
X94434931Y-98573248D01*
X94568640Y-98697031D01*
X94707782Y-98828593D01*
X94844313Y-98960427D01*
X94938228Y-99053040D01*
X95088303Y-99201405D01*
X95213043Y-99321603D01*
X95316016Y-99416394D01*
X95400791Y-99488541D01*
X95470939Y-99540806D01*
X95530027Y-99575950D01*
X95581625Y-99596734D01*
X95629301Y-99605921D01*
X95654175Y-99607033D01*
X95767149Y-99622813D01*
X95851835Y-99670074D01*
X95908257Y-99748839D01*
X95936437Y-99859134D01*
X95939878Y-99916354D01*
X95953588Y-99996001D01*
X95987488Y-100059566D01*
X96034263Y-100101461D01*
X96086598Y-100116103D01*
X96137180Y-100097907D01*
X96154958Y-100080576D01*
X96172600Y-100044352D01*
X96180525Y-99986503D01*
X96178648Y-99902037D01*
X96166885Y-99785964D01*
X96147621Y-99649333D01*
X96131690Y-99534888D01*
X96114893Y-99397261D01*
X96099452Y-99255494D01*
X96089571Y-99151917D01*
X96077823Y-99036542D01*
X96063606Y-98925586D01*
X96048711Y-98831635D01*
X96034925Y-98767277D01*
X96034872Y-98767087D01*
X96015328Y-98708679D01*
X95989140Y-98655719D01*
X95953372Y-98606884D01*
X95905089Y-98560852D01*
X95841358Y-98516297D01*
X95759244Y-98471898D01*
X95655811Y-98426331D01*
X95528126Y-98378271D01*
X95373254Y-98326397D01*
X95188260Y-98269384D01*
X94970209Y-98205909D01*
X94716168Y-98134649D01*
X94501739Y-98075705D01*
X94302348Y-98021614D01*
X94139957Y-97978547D01*
X94010916Y-97945702D01*
X93911578Y-97922277D01*
X93838294Y-97907470D01*
X93787416Y-97900478D01*
X93755296Y-97900500D01*
X93738284Y-97906732D01*
X93737309Y-97907630D01*
X93140274Y-97907630D01*
X93089893Y-97859855D01*
X93003573Y-97779202D01*
X92932133Y-97713959D01*
X92880148Y-97668563D01*
X92855748Y-97649586D01*
X92765508Y-97590167D01*
X92612332Y-97635567D01*
X92483808Y-97668692D01*
X92389759Y-97680506D01*
X92327545Y-97670057D01*
X92294525Y-97636394D01*
X92288059Y-97578565D01*
X92298127Y-97522364D01*
X92311896Y-97452608D01*
X92325177Y-97360289D01*
X92335146Y-97265112D01*
X92335318Y-97263000D01*
X92344054Y-97179323D01*
X92354989Y-97108933D01*
X92365971Y-97065263D01*
X92367560Y-97061708D01*
X92404227Y-97030834D01*
X92459866Y-97028897D01*
X92522915Y-97055513D01*
X92539537Y-97067410D01*
X92580460Y-97093430D01*
X92622609Y-97099912D01*
X92685153Y-97089697D01*
X92687060Y-97089271D01*
X92751449Y-97070724D01*
X92837785Y-97040470D01*
X92929511Y-97004391D01*
X92947930Y-96996616D01*
X93104030Y-96934423D01*
X93296971Y-96865301D01*
X93522083Y-96790648D01*
X93774698Y-96711857D01*
X94050151Y-96630325D01*
X94343772Y-96547447D01*
X94650894Y-96464619D01*
X94966849Y-96383236D01*
X95157906Y-96335879D01*
X95356412Y-96287263D01*
X95518056Y-96247213D01*
X95647151Y-96214461D01*
X95748011Y-96187743D01*
X95824950Y-96165791D01*
X95882282Y-96147340D01*
X95924319Y-96131123D01*
X95955376Y-96115875D01*
X95979766Y-96100329D01*
X95992111Y-96091029D01*
X96025620Y-96061707D01*
X96055187Y-96027500D01*
X96082032Y-95984365D01*
X96107376Y-95928256D01*
X96132439Y-95855130D01*
X96158441Y-95760940D01*
X96186603Y-95641642D01*
X96218145Y-95493192D01*
X96254288Y-95311545D01*
X96296252Y-95092656D01*
X96301159Y-95066750D01*
X96349805Y-94813841D01*
X96393027Y-94599132D01*
X96431859Y-94418983D01*
X96467336Y-94269756D01*
X96500494Y-94147812D01*
X96532368Y-94049513D01*
X96563993Y-93971220D01*
X96596403Y-93909294D01*
X96630634Y-93860097D01*
X96651091Y-93836638D01*
X96710838Y-93788845D01*
X96778959Y-93766418D01*
X96858891Y-93770412D01*
X96954069Y-93801880D01*
X97067931Y-93861876D01*
X97203912Y-93951453D01*
X97330974Y-94045155D01*
X97430863Y-94121378D01*
X97538226Y-94203255D01*
X97637564Y-94278969D01*
X97690681Y-94319427D01*
X97773764Y-94378358D01*
X97857873Y-94430872D01*
X97928717Y-94468258D01*
X97948061Y-94476278D01*
X98023772Y-94512030D01*
X98105197Y-94562208D01*
X98142406Y-94589890D01*
X98279478Y-94695460D01*
X98449012Y-94816740D01*
X98645683Y-94950362D01*
X98864164Y-95092956D01*
X99099128Y-95241152D01*
X99345250Y-95391579D01*
X99597202Y-95540868D01*
X99849659Y-95685649D01*
X100050308Y-95797000D01*
X100196155Y-95884732D01*
X100311411Y-95970701D01*
X100395147Y-96052519D01*
X100446437Y-96127800D01*
X100464352Y-96194158D01*
X100447964Y-96249207D01*
X100396347Y-96290560D01*
X100308571Y-96315831D01*
X100254224Y-96321494D01*
X100196497Y-96323724D01*
X100148110Y-96320561D01*
X100099132Y-96309067D01*
X100039634Y-96286304D01*
X99959686Y-96249335D01*
X99882128Y-96211403D01*
X99717199Y-96125856D01*
X99527210Y-96020180D01*
X99318524Y-95898449D01*
X99097507Y-95764739D01*
X98870525Y-95623124D01*
X98643942Y-95477680D01*
X98424124Y-95332482D01*
X98217437Y-95191605D01*
X98030244Y-95059123D01*
X97868912Y-94939112D01*
X97761406Y-94853714D01*
X97619899Y-94738395D01*
X97476355Y-94624606D01*
X97334824Y-94515275D01*
X97199354Y-94413334D01*
X97073993Y-94321711D01*
X96962793Y-94243338D01*
X96869800Y-94181143D01*
X96799065Y-94138056D01*
X96754635Y-94117009D01*
X96742212Y-94116224D01*
X96708632Y-94157748D01*
X96674828Y-94239942D01*
X96641038Y-94361146D01*
X96607500Y-94519698D01*
X96574453Y-94713936D01*
X96542133Y-94942202D01*
X96510779Y-95202833D01*
X96480629Y-95494168D01*
X96451921Y-95814547D01*
X96424891Y-96162310D01*
X96402986Y-96484917D01*
X96395964Y-96619788D01*
X96389967Y-96784185D01*
X96384996Y-96972770D01*
X96381053Y-97180208D01*
X96378141Y-97401162D01*
X96376261Y-97630298D01*
X96375416Y-97862278D01*
X96375608Y-98091766D01*
X96376837Y-98313427D01*
X96379108Y-98521925D01*
X96382420Y-98711923D01*
X96386778Y-98878086D01*
X96392181Y-99015078D01*
X96398634Y-99117562D01*
X96401985Y-99151917D01*
X96429364Y-99385010D01*
X96453214Y-99580520D01*
X96474245Y-99742987D01*
X96493167Y-99876949D01*
X96510690Y-99986943D01*
X96527524Y-100077508D01*
X96544379Y-100153183D01*
X96561967Y-100218506D01*
X96575774Y-100262560D01*
X96605023Y-100358490D01*
X96638090Y-100479180D01*
X96670539Y-100607868D01*
X96693588Y-100707667D01*
X96718094Y-100813775D01*
X96742536Y-100909564D01*
X96764152Y-100984808D01*
X96780183Y-101029286D01*
X96780758Y-101030458D01*
X96801547Y-101062547D01*
X96829752Y-101083220D01*
X96870979Y-101092279D01*
X96930832Y-101089523D01*
X97014918Y-101074755D01*
X97128841Y-101047773D01*
X97259459Y-101013437D01*
X97406326Y-100971248D01*
X97527560Y-100931000D01*
X97619206Y-100894282D01*
X97677305Y-100862681D01*
X97697902Y-100837783D01*
X97697906Y-100837517D01*
X97689689Y-100817582D01*
X97662159Y-100790874D01*
X97610991Y-100754372D01*
X97531863Y-100705055D01*
X97420454Y-100639902D01*
X97390989Y-100623033D01*
X97191488Y-100505303D01*
X97027809Y-100400444D01*
X96900683Y-100309019D01*
X96810844Y-100231588D01*
X96759022Y-100168713D01*
X96745406Y-100127815D01*
X96757728Y-100068361D01*
X96791905Y-99982613D01*
X96843753Y-99877655D01*
X96909090Y-99760571D01*
X96983730Y-99638445D01*
X97063492Y-99518360D01*
X97144190Y-99407402D01*
X97221642Y-99312654D01*
X97236685Y-99295934D01*
X97293903Y-99229305D01*
X97372086Y-99131843D01*
X97468249Y-99007626D01*
X97579410Y-98860729D01*
X97702586Y-98695229D01*
X97834794Y-98515204D01*
X97973051Y-98324730D01*
X98114374Y-98127883D01*
X98255780Y-97928741D01*
X98394286Y-97731380D01*
X98526908Y-97539877D01*
X98602704Y-97429062D01*
X98670675Y-97330493D01*
X98734865Y-97239815D01*
X98789481Y-97165038D01*
X98828737Y-97114171D01*
X98839032Y-97102103D01*
X98911058Y-97039266D01*
X98992808Y-96993051D01*
X99074281Y-96966691D01*
X99145479Y-96963417D01*
X99196400Y-96986461D01*
X99196506Y-96986567D01*
X99213435Y-97023503D01*
X99221735Y-97080872D01*
X99221906Y-97090095D01*
X99213689Y-97148416D01*
X99184725Y-97207489D01*
X99137147Y-97270794D01*
X99093992Y-97327329D01*
X99065998Y-97372438D01*
X99059328Y-97394182D01*
X99082699Y-97411643D01*
X99131629Y-97428332D01*
X99144173Y-97431188D01*
X99199752Y-97446548D01*
X99266442Y-97472843D01*
X99349239Y-97512606D01*
X99453135Y-97568373D01*
X99583126Y-97642680D01*
X99719323Y-97723183D01*
X99821111Y-97783660D01*
X99914920Y-97838833D01*
X99992444Y-97883859D01*
X100045379Y-97913892D01*
X100057989Y-97920717D01*
X100119182Y-97952897D01*
X100170998Y-97980387D01*
X100215323Y-97990401D01*
X100272162Y-97977134D01*
X100345110Y-97938576D01*
X100437764Y-97872718D01*
X100553719Y-97777551D01*
X100589625Y-97746451D01*
X100653479Y-97688167D01*
X100741579Y-97604187D01*
X100849000Y-97499490D01*
X100970816Y-97379059D01*
X101102102Y-97247875D01*
X101237934Y-97110919D01*
X101373385Y-96973172D01*
X101503530Y-96839616D01*
X101623445Y-96715231D01*
X101728203Y-96604999D01*
X101812880Y-96513901D01*
X101858249Y-96463411D01*
X101979005Y-96325868D01*
X101883915Y-96183142D01*
X101808512Y-96057750D01*
X101762690Y-95953218D01*
X101746895Y-95871556D01*
X101761575Y-95814776D01*
X101796144Y-95788391D01*
X101838440Y-95783384D01*
X101886733Y-95791030D01*
X101922868Y-95807059D01*
X101931239Y-95820176D01*
X101945119Y-95845896D01*
X101984661Y-95898850D01*
X102046719Y-95975254D01*
X102128144Y-96071323D01*
X102225790Y-96183273D01*
X102334418Y-96305000D01*
X102618077Y-96632915D01*
X102908451Y-96994183D01*
X103200051Y-97381619D01*
X103487387Y-97788039D01*
X103636225Y-98008917D01*
X103816350Y-98285621D01*
X103968958Y-98530440D01*
X104094152Y-98743568D01*
X104192039Y-98925201D01*
X104262721Y-99075534D01*
X104306304Y-99194760D01*
X104322891Y-99283077D01*
X104323073Y-99291345D01*
X104307890Y-99374319D01*
X104260670Y-99466771D01*
X104178898Y-99573389D01*
X104161242Y-99593414D01*
X104103452Y-99663726D01*
X104075644Y-99716800D01*
X104075184Y-99762384D01*
X104099437Y-99810228D01*
X104101744Y-99813559D01*
X104140941Y-99851747D01*
X104208815Y-99900883D01*
X104295282Y-99954897D01*
X104390259Y-100007722D01*
X104483660Y-100053286D01*
X104536744Y-100075376D01*
X104630966Y-100103154D01*
X104699545Y-100102217D01*
X104749462Y-100070832D01*
X104784842Y-100013705D01*
X104796931Y-99981346D01*
X104805871Y-99940987D01*
X104812031Y-99886489D01*
X104815781Y-99811714D01*
X104817488Y-99710522D01*
X104817522Y-99576776D01*
X104816905Y-99480000D01*
X104815210Y-99322286D01*
X104812321Y-99196898D01*
X104807351Y-99093830D01*
X104799408Y-99003077D01*
X104787604Y-98914632D01*
X104771049Y-98818489D01*
X104748854Y-98704643D01*
X104747284Y-98696833D01*
X104705298Y-98497982D01*
X104657972Y-98290638D01*
X104606912Y-98080628D01*
X104553725Y-97873776D01*
X104500018Y-97675908D01*
X104447397Y-97492849D01*
X104410567Y-97373032D01*
X104788773Y-97373032D01*
X104794241Y-97405887D01*
X104809486Y-97472662D01*
X104832801Y-97566532D01*
X104862482Y-97680673D01*
X104896820Y-97808258D01*
X104905416Y-97839583D01*
X104971510Y-98087170D01*
X105023973Y-98301639D01*
X105064150Y-98489468D01*
X105093383Y-98657138D01*
X105113013Y-98811128D01*
X105118131Y-98866167D01*
X105131328Y-98988357D01*
X105147365Y-99076849D01*
X105165536Y-99128546D01*
X105180833Y-99141333D01*
X105195928Y-99123869D01*
X105220395Y-99079573D01*
X105233809Y-99051375D01*
X105265150Y-98944829D01*
X105275108Y-98830121D01*
X105280251Y-98728453D01*
X105299129Y-98656880D01*
X105338196Y-98603794D01*
X105403907Y-98557588D01*
X105436565Y-98539754D01*
X105513276Y-98493526D01*
X105580881Y-98437450D01*
X105644629Y-98365051D01*
X105709770Y-98269853D01*
X105781552Y-98145381D01*
X105829346Y-98055197D01*
X105887583Y-97947538D01*
X105961685Y-97817478D01*
X106044104Y-97677890D01*
X106127296Y-97541646D01*
X106172100Y-97470525D01*
X106316425Y-97240240D01*
X106452234Y-97015083D01*
X106577348Y-96799121D01*
X106689586Y-96596423D01*
X106786770Y-96411054D01*
X106866720Y-96247084D01*
X106927257Y-96108578D01*
X106966201Y-95999605D01*
X106972443Y-95976917D01*
X106998242Y-95901335D01*
X107032401Y-95833117D01*
X107047548Y-95811251D01*
X107081018Y-95749721D01*
X107095169Y-95680929D01*
X107088540Y-95620280D01*
X107068585Y-95589009D01*
X107043488Y-95582952D01*
X107010640Y-95607154D01*
X106983852Y-95638285D01*
X106946950Y-95675160D01*
X106882580Y-95729966D01*
X106798203Y-95796722D01*
X106701286Y-95869446D01*
X106642172Y-95912073D01*
X106529699Y-95993280D01*
X106396120Y-96091859D01*
X106253453Y-96198816D01*
X106113711Y-96305157D01*
X106013256Y-96382840D01*
X105876834Y-96488058D01*
X105720868Y-96606349D01*
X105559716Y-96726945D01*
X105407732Y-96839081D01*
X105318633Y-96903793D01*
X105155098Y-97023300D01*
X105025017Y-97122470D01*
X104925971Y-97203444D01*
X104855542Y-97268364D01*
X104811312Y-97319373D01*
X104790861Y-97358611D01*
X104788773Y-97373032D01*
X104410567Y-97373032D01*
X104397470Y-97330425D01*
X104351842Y-97194461D01*
X104312121Y-97090783D01*
X104292459Y-97047810D01*
X104268836Y-96993752D01*
X104236153Y-96908916D01*
X104197935Y-96802945D01*
X104157706Y-96685481D01*
X104136981Y-96622500D01*
X104074827Y-96432936D01*
X104020205Y-96272167D01*
X103968712Y-96128374D01*
X103915942Y-95989734D01*
X103857492Y-95844428D01*
X103788957Y-95680636D01*
X103765473Y-95625428D01*
X103718698Y-95513535D01*
X103678490Y-95413086D01*
X103647641Y-95331405D01*
X103628944Y-95275814D01*
X103624573Y-95255884D01*
X103615542Y-95222793D01*
X103590243Y-95157541D01*
X103551365Y-95065818D01*
X103501597Y-94953314D01*
X103443626Y-94825721D01*
X103380144Y-94688728D01*
X103313837Y-94548026D01*
X103247395Y-94409305D01*
X103183508Y-94278256D01*
X103124863Y-94160568D01*
X103074150Y-94061933D01*
X103034058Y-93988041D01*
X103007276Y-93944582D01*
X103001737Y-93937808D01*
X102976218Y-93924977D01*
X102938902Y-93929131D01*
X102887299Y-93952049D01*
X102818923Y-93995512D01*
X102731285Y-94061302D01*
X102621897Y-94151198D01*
X102488271Y-94266982D01*
X102327920Y-94410435D01*
X102277457Y-94456199D01*
X102182924Y-94539169D01*
X102083751Y-94621240D01*
X101991644Y-94693000D01*
X101918309Y-94745039D01*
X101917623Y-94745485D01*
X101855371Y-94788909D01*
X101768701Y-94853624D01*
X101665477Y-94933537D01*
X101553565Y-95022555D01*
X101440829Y-95114584D01*
X101435326Y-95119143D01*
X101235842Y-95283217D01*
X101064916Y-95420692D01*
X100919786Y-95533457D01*
X100797694Y-95623398D01*
X100695878Y-95692402D01*
X100611579Y-95742356D01*
X100542037Y-95775146D01*
X100484491Y-95792659D01*
X100443827Y-95796945D01*
X100373866Y-95782292D01*
X100335678Y-95740956D01*
X100331987Y-95677049D01*
X100341894Y-95643104D01*
X100354526Y-95614062D01*
X100371821Y-95584060D01*
X100396297Y-95550878D01*
X100430476Y-95512290D01*
X100476876Y-95466076D01*
X100538017Y-95410010D01*
X100616420Y-95341872D01*
X100714605Y-95259437D01*
X100835090Y-95160482D01*
X100980397Y-95042786D01*
X101153044Y-94904124D01*
X101355552Y-94742274D01*
X101433823Y-94679839D01*
X101509129Y-94617949D01*
X101605614Y-94535936D01*
X101713344Y-94442387D01*
X101822388Y-94345888D01*
X101879320Y-94294672D01*
X101977544Y-94207059D01*
X102073024Y-94124326D01*
X102158098Y-94052939D01*
X102225104Y-93999361D01*
X102256997Y-93976020D01*
X102316317Y-93933010D01*
X102395590Y-93871481D01*
X102482923Y-93800808D01*
X102541750Y-93751543D01*
X102661818Y-93653901D01*
X102760891Y-93584649D01*
X102845686Y-93540175D01*
X102922922Y-93516868D01*
X102989300Y-93511000D01*
X103045721Y-93514833D01*
X103089471Y-93531498D01*
X103135643Y-93568741D01*
X103170744Y-93604145D01*
X103229920Y-93677162D01*
X103300508Y-93782388D01*
X103378700Y-93912531D01*
X103460693Y-94060294D01*
X103542678Y-94218385D01*
X103620852Y-94379510D01*
X103691408Y-94536373D01*
X103750540Y-94681681D01*
X103787603Y-94786382D01*
X103820128Y-94878077D01*
X103848938Y-94936201D01*
X103878430Y-94968731D01*
X103892637Y-94976938D01*
X103916222Y-94982396D01*
X103957605Y-94984052D01*
X104020503Y-94981589D01*
X104108631Y-94974693D01*
X104225706Y-94963050D01*
X104375444Y-94946345D01*
X104561562Y-94924263D01*
X104667852Y-94911300D01*
X104877530Y-94885891D01*
X105116513Y-94857495D01*
X105372010Y-94827597D01*
X105631229Y-94797680D01*
X105881380Y-94769228D01*
X106109671Y-94743724D01*
X106164573Y-94737682D01*
X106397852Y-94711946D01*
X106593489Y-94689937D01*
X106755950Y-94671035D01*
X106889703Y-94654626D01*
X106999216Y-94640090D01*
X107088955Y-94626811D01*
X107163387Y-94614172D01*
X107226981Y-94601555D01*
X107284204Y-94588342D01*
X107328940Y-94576782D01*
X107429799Y-94543099D01*
X107498784Y-94500872D01*
X107546353Y-94441367D01*
X107578634Y-94368248D01*
X107621108Y-94281993D01*
X107672621Y-94231411D01*
X107714854Y-94212383D01*
X107748114Y-94217329D01*
X107786810Y-94242972D01*
X107825945Y-94279068D01*
X107853525Y-94325546D01*
X107875815Y-94394970D01*
X107887535Y-94444945D01*
X107901966Y-94480200D01*
X107932257Y-94508433D01*
X107985070Y-94532787D01*
X108067069Y-94556407D01*
X108174418Y-94580273D01*
X108288485Y-94610180D01*
X108362754Y-94645170D01*
X108399609Y-94686747D01*
X108403879Y-94724967D01*
X108383410Y-94761752D01*
X108331290Y-94798509D01*
X108244726Y-94836531D01*
X108120922Y-94877111D01*
X108006247Y-94908875D01*
X107911467Y-94934204D01*
X107831982Y-94956313D01*
X107776621Y-94972689D01*
X107754641Y-94980496D01*
X107742042Y-95001220D01*
X107713404Y-95055672D01*
X107670954Y-95139391D01*
X107616917Y-95247914D01*
X107553519Y-95376777D01*
X107482985Y-95521520D01*
X107424563Y-95642329D01*
X107280899Y-95940208D01*
X107154168Y-96202548D01*
X107043047Y-96432009D01*
X106946213Y-96631245D01*
X106862343Y-96802916D01*
X106790116Y-96949678D01*
X106728208Y-97074188D01*
X106675297Y-97179104D01*
X106630061Y-97267082D01*
X106591177Y-97340781D01*
X106557322Y-97402858D01*
X106527174Y-97455969D01*
X106499410Y-97502772D01*
X106494995Y-97510026D01*
X106409679Y-97652616D01*
X106346700Y-97765008D01*
X106303927Y-97851554D01*
X106279232Y-97916602D01*
X106270486Y-97964505D01*
X106270406Y-97968842D01*
X106253248Y-98025141D01*
X106199243Y-98085579D01*
X106192649Y-98091254D01*
X106091831Y-98181489D01*
X106026957Y-98251180D01*
X105997376Y-98301063D01*
X105995239Y-98314045D01*
X105982152Y-98347613D01*
X105947864Y-98400751D01*
X105900501Y-98461102D01*
X105832551Y-98551485D01*
X105790560Y-98637463D01*
X105775122Y-98725014D01*
X105786830Y-98820116D01*
X105826278Y-98928747D01*
X105894060Y-99056886D01*
X105972117Y-99182117D01*
X106154122Y-99490980D01*
X106297958Y-99802874D01*
X106407380Y-100126699D01*
X106459561Y-100337250D01*
X106518658Y-100690808D01*
X106542394Y-101045737D01*
X106530482Y-101406196D01*
X106482636Y-101776344D01*
X106398569Y-102160341D01*
X106313489Y-102453917D01*
X106247411Y-102686620D01*
X106205789Y-102894053D01*
X106187126Y-103084391D01*
X106185739Y-103150779D01*
X106183120Y-103250601D01*
X106171804Y-103315566D01*
X106146603Y-103353009D01*
X106102329Y-103370260D01*
X106033795Y-103374651D01*
X106027330Y-103374667D01*
X105963685Y-103382627D01*
X105900058Y-103402727D01*
X105849810Y-103429294D01*
X105826302Y-103456654D01*
X105825906Y-103460188D01*
X105806743Y-103492485D01*
X105756930Y-103523708D01*
X105687976Y-103548980D01*
X105611392Y-103563421D01*
X105578398Y-103565087D01*
X105489551Y-103554206D01*
X105435811Y-103521003D01*
X105416983Y-103464871D01*
X105432874Y-103385202D01*
X105483291Y-103281388D01*
X105486342Y-103276184D01*
X105517944Y-103215456D01*
X105524542Y-103170755D01*
X105503336Y-103128796D01*
X105451527Y-103076295D01*
X105442494Y-103068089D01*
X105391139Y-103024084D01*
X105359370Y-103006058D01*
X105336917Y-103009980D01*
X105323455Y-103021379D01*
X105301105Y-103055863D01*
X105275818Y-103118601D01*
X105247061Y-103211695D01*
X105214303Y-103337251D01*
X105177010Y-103497373D01*
X105134649Y-103694165D01*
X105086688Y-103929732D01*
X105062538Y-104052000D01*
X105019672Y-104269900D01*
X104983069Y-104453172D01*
X104951111Y-104608778D01*
X104922180Y-104743684D01*
X104894658Y-104864852D01*
X104866928Y-104979248D01*
X104837370Y-105093836D01*
X104804369Y-105215579D01*
X104766305Y-105351442D01*
X104735522Y-105459583D01*
X104697553Y-105596617D01*
X104662143Y-105732096D01*
X104631730Y-105856105D01*
X104608751Y-105958730D01*
X104596161Y-106026479D01*
X104580132Y-106117290D01*
X104562868Y-106174217D01*
X104541397Y-106205675D01*
X104530092Y-106213487D01*
X104480475Y-106226254D01*
X104418799Y-106215905D01*
X104342531Y-106180801D01*
X104249135Y-106119304D01*
X104136076Y-106029776D01*
X104000818Y-105910579D01*
X103866582Y-105784787D01*
X103775776Y-105698854D01*
X103694910Y-105624067D01*
X103629101Y-105565017D01*
X103583468Y-105526297D01*
X103563168Y-105512500D01*
X103538659Y-105532048D01*
X103523007Y-105585095D01*
X103518733Y-105646523D01*
X103514081Y-105695383D01*
X103501090Y-105778569D01*
X103481193Y-105889217D01*
X103455824Y-106020461D01*
X103426418Y-106165438D01*
X103394409Y-106317284D01*
X103361232Y-106469135D01*
X103328321Y-106614127D01*
X103297111Y-106745395D01*
X103269036Y-106856075D01*
X103256030Y-106903644D01*
X103209673Y-107080460D01*
X103160389Y-107292468D01*
X103109540Y-107532742D01*
X103058484Y-107794359D01*
X103008582Y-108070394D01*
X102961193Y-108353923D01*
X102924407Y-108592250D01*
X102915502Y-108669567D01*
X102906441Y-108778507D01*
X102897940Y-108908367D01*
X102890714Y-109048446D01*
X102886230Y-109163750D01*
X102881471Y-109303558D01*
X102877078Y-109406724D01*
X102872268Y-109478924D01*
X102866259Y-109525835D01*
X102858269Y-109553131D01*
X102847514Y-109566490D01*
X102833212Y-109571587D01*
X102829941Y-109572102D01*
X102787978Y-109563863D01*
X102730830Y-109535921D01*
X102702376Y-109517185D01*
X102615269Y-109441047D01*
X102512801Y-109328381D01*
X102396649Y-109181409D01*
X102268487Y-109002358D01*
X102129992Y-108793451D01*
X101998998Y-108583556D01*
X101916504Y-108447802D01*
X101853614Y-108343364D01*
X101807959Y-108265375D01*
X101777171Y-108208966D01*
X101758880Y-108169272D01*
X101750718Y-108141422D01*
X101750316Y-108120550D01*
X101755306Y-108101788D01*
X101759328Y-108091031D01*
X101797886Y-108026987D01*
X101857205Y-107993204D01*
X101944510Y-107985864D01*
X101956961Y-107986562D01*
X102012865Y-108009521D01*
X102079306Y-108069724D01*
X102153649Y-108164181D01*
X102233261Y-108289905D01*
X102249689Y-108318727D01*
X102308586Y-108416935D01*
X102373336Y-108514003D01*
X102434311Y-108595936D01*
X102465587Y-108632555D01*
X102518657Y-108688324D01*
X102551590Y-108716871D01*
X102572649Y-108722368D01*
X102590097Y-108708986D01*
X102597878Y-108699329D01*
X102618886Y-108651390D01*
X102629445Y-108586469D01*
X102629739Y-108574758D01*
X102635506Y-108501910D01*
X102651863Y-108394624D01*
X102677396Y-108259057D01*
X102710689Y-108101366D01*
X102750329Y-107927709D01*
X102794899Y-107744243D01*
X102842986Y-107557125D01*
X102893174Y-107372512D01*
X102944049Y-107196562D01*
X102954016Y-107163500D01*
X102980504Y-107069066D01*
X103012172Y-106944301D01*
X103047907Y-106794616D01*
X103086593Y-106625420D01*
X103127118Y-106442125D01*
X103168368Y-106250140D01*
X103209227Y-106054876D01*
X103248583Y-105861744D01*
X103285321Y-105676153D01*
X103318327Y-105503515D01*
X103346488Y-105349239D01*
X103368688Y-105218736D01*
X103383815Y-105117417D01*
X103390754Y-105050691D01*
X103391074Y-105040862D01*
X103401332Y-104958528D01*
X103427447Y-104881492D01*
X103464508Y-104814798D01*
X103507605Y-104763491D01*
X103551827Y-104732616D01*
X103592263Y-104727216D01*
X103624002Y-104752338D01*
X103637671Y-104787542D01*
X103662192Y-104845565D01*
X103711868Y-104928105D01*
X103782281Y-105029386D01*
X103869014Y-105143632D01*
X103967652Y-105265066D01*
X104073777Y-105387912D01*
X104182973Y-105506394D01*
X104204129Y-105528375D01*
X104263764Y-105587913D01*
X104313075Y-105633549D01*
X104344292Y-105658236D01*
X104349999Y-105660667D01*
X104368575Y-105643061D01*
X104392870Y-105599325D01*
X104399269Y-105584791D01*
X104417039Y-105534683D01*
X104443428Y-105450309D01*
X104476570Y-105338418D01*
X104514599Y-105205760D01*
X104555648Y-105059083D01*
X104597851Y-104905136D01*
X104639342Y-104750667D01*
X104678254Y-104602426D01*
X104712721Y-104467161D01*
X104740876Y-104351621D01*
X104744128Y-104337750D01*
X104771596Y-104216887D01*
X104802204Y-104077136D01*
X104834757Y-103924468D01*
X104868056Y-103764858D01*
X104900905Y-103604277D01*
X104932108Y-103448698D01*
X104960468Y-103304094D01*
X104984787Y-103176438D01*
X105003869Y-103071703D01*
X105016518Y-102995860D01*
X105021536Y-102954884D01*
X105021573Y-102953101D01*
X105010789Y-102908610D01*
X104975812Y-102857589D01*
X104912702Y-102795704D01*
X104817519Y-102718617D01*
X104788739Y-102696828D01*
X104713586Y-102637804D01*
X104634089Y-102571408D01*
X104604004Y-102544970D01*
X104550223Y-102500782D01*
X104505752Y-102471554D01*
X104486448Y-102464500D01*
X104445421Y-102483721D01*
X104390763Y-102539625D01*
X104324524Y-102629573D01*
X104248753Y-102750927D01*
X104206949Y-102824333D01*
X103980826Y-103194550D01*
X103729014Y-103536744D01*
X103453654Y-103849221D01*
X103156884Y-104130284D01*
X102840844Y-104378239D01*
X102507673Y-104591391D01*
X102159510Y-104768044D01*
X101798494Y-104906503D01*
X101465573Y-104996793D01*
X101390274Y-105011343D01*
X101311293Y-105021909D01*
X101220406Y-105029001D01*
X101109392Y-105033128D01*
X100970029Y-105034798D01*
X100851739Y-105034780D01*
X100701039Y-105033886D01*
X100584227Y-105031853D01*
X100492859Y-105027928D01*
X100418492Y-105021357D01*
X100352684Y-105011385D01*
X100286989Y-104997257D01*
X100212965Y-104978219D01*
X100210110Y-104977452D01*
X100036174Y-104923944D01*
X99864177Y-104858599D01*
X99699532Y-104784538D01*
X99547654Y-104704879D01*
X99413957Y-104622742D01*
X99303856Y-104541244D01*
X99222764Y-104463505D01*
X99176097Y-104392644D01*
X99171190Y-104378973D01*
X99172888Y-104322363D01*
X99211424Y-104278393D01*
X99282014Y-104251977D01*
X99297170Y-104249543D01*
X99336732Y-104247121D01*
X99382220Y-104251296D01*
X99439288Y-104263746D01*
X99513590Y-104286148D01*
X99610779Y-104320180D01*
X99736508Y-104367521D01*
X99870675Y-104419725D01*
X100043755Y-104479193D01*
X100218504Y-104520694D01*
X100404933Y-104545630D01*
X100613056Y-104555404D01*
X100819989Y-104552648D01*
X101134307Y-104530128D01*
X101429722Y-104483264D01*
X101724048Y-104408788D01*
X101884907Y-104357271D01*
X102247141Y-104213970D01*
X102580481Y-104040466D01*
X102887423Y-103834959D01*
X103170465Y-103595648D01*
X103432102Y-103320732D01*
X103584940Y-103131250D01*
X103747984Y-102904904D01*
X103903708Y-102666446D01*
X104049889Y-102420709D01*
X104184303Y-102172527D01*
X104245424Y-102047774D01*
X104630474Y-102047774D01*
X104642188Y-102081876D01*
X104660339Y-102108662D01*
X104709245Y-102154904D01*
X104771528Y-102195242D01*
X104777699Y-102198281D01*
X104838150Y-102225046D01*
X104925332Y-102261084D01*
X105032623Y-102303899D01*
X105153399Y-102350997D01*
X105281037Y-102399882D01*
X105408917Y-102448059D01*
X105530414Y-102493032D01*
X105638907Y-102532305D01*
X105727772Y-102563384D01*
X105790388Y-102583772D01*
X105819869Y-102590977D01*
X105867172Y-102573540D01*
X105891028Y-102546136D01*
X105921297Y-102477995D01*
X105957468Y-102378462D01*
X105996449Y-102257510D01*
X106035146Y-102125114D01*
X106070468Y-101991248D01*
X106093517Y-101893000D01*
X106120804Y-101736313D01*
X106141901Y-101550322D01*
X106156275Y-101347677D01*
X106163392Y-101141028D01*
X106162718Y-100943024D01*
X106153720Y-100766317D01*
X106144669Y-100680016D01*
X106115331Y-100500081D01*
X106074446Y-100309290D01*
X106026063Y-100124399D01*
X105974234Y-99962167D01*
X105965220Y-99937645D01*
X105914452Y-99813317D01*
X105855226Y-99685349D01*
X105791159Y-99559937D01*
X105725867Y-99443275D01*
X105662965Y-99341557D01*
X105606070Y-99260981D01*
X105558797Y-99207739D01*
X105527894Y-99188392D01*
X105499846Y-99204437D01*
X105461159Y-99261099D01*
X105422875Y-99335092D01*
X105375149Y-99429141D01*
X105321174Y-99527228D01*
X105273974Y-99605957D01*
X105210817Y-99714041D01*
X105166400Y-99816711D01*
X105137202Y-99926452D01*
X105119703Y-100055749D01*
X105111783Y-100181146D01*
X105108673Y-100322943D01*
X105114536Y-100431642D01*
X105131377Y-100515903D01*
X105161200Y-100584383D01*
X105206009Y-100645741D01*
X105223886Y-100665333D01*
X105302361Y-100759066D01*
X105342301Y-100835647D01*
X105343253Y-100896415D01*
X105304763Y-100942706D01*
X105226379Y-100975861D01*
X105111635Y-100996756D01*
X105037821Y-101009263D01*
X104982444Y-101031232D01*
X104940257Y-101069229D01*
X104906017Y-101129819D01*
X104874476Y-101219566D01*
X104843706Y-101332083D01*
X104810979Y-101450716D01*
X104772400Y-101577459D01*
X104733993Y-101692976D01*
X104715037Y-101744953D01*
X104671943Y-101860516D01*
X104644232Y-101944542D01*
X104630782Y-102004479D01*
X104630474Y-102047774D01*
X104245424Y-102047774D01*
X104304727Y-101926735D01*
X104408935Y-101688164D01*
G37*
X104408935Y-101688164D02*
X104494704Y-101461651D01*
X104559811Y-101252028D01*
X104602031Y-101064128D01*
X104619141Y-100902787D01*
X104619406Y-100882776D01*
X104617741Y-100808453D01*
X104609872Y-100747630D01*
X104591486Y-100695065D01*
X104558271Y-100645518D01*
X104505913Y-100593749D01*
X104430099Y-100534518D01*
X104326518Y-100462584D01*
X104209976Y-100385272D01*
X104061457Y-100288427D01*
X103942272Y-100213288D01*
X103846982Y-100157416D01*
X103770145Y-100118373D01*
X103706324Y-100093721D01*
X103650077Y-100081022D01*
X103595965Y-100077838D01*
X103538549Y-100081731D01*
X103533877Y-100082249D01*
X103407126Y-100096589D01*
X103421698Y-99967792D01*
X103436270Y-99838994D01*
X103320019Y-99717117D01*
X103261457Y-99651586D01*
X103213345Y-99590218D01*
X103184835Y-99544829D01*
X103182724Y-99539892D01*
X103170690Y-99463222D01*
X103196285Y-99401882D01*
X103256801Y-99358347D01*
X103349535Y-99335091D01*
X103410231Y-99331833D01*
X103488256Y-99338125D01*
X103546640Y-99361710D01*
X103583275Y-99388869D01*
X103663803Y-99434325D01*
X103753895Y-99441053D01*
X103857706Y-99409293D01*
X103866251Y-99405322D01*
X103937711Y-99361377D01*
X103969601Y-99312996D01*
X103964657Y-99254173D01*
X103950227Y-99220899D01*
X103893734Y-99117648D01*
X103816464Y-98986308D01*
X103721491Y-98831443D01*
X103611888Y-98657618D01*
X103490729Y-98469396D01*
X103361090Y-98271344D01*
X103226043Y-98068025D01*
X103088664Y-97864003D01*
X102952026Y-97663844D01*
X102819203Y-97472111D01*
X102693270Y-97293370D01*
X102577301Y-97132184D01*
X102474370Y-96993118D01*
X102387551Y-96880737D01*
X102319919Y-96799605D01*
X102318215Y-96797698D01*
X102238156Y-96708313D01*
X101317406Y-97586036D01*
X101150338Y-97744737D01*
X100990658Y-97895343D01*
X100841275Y-98035182D01*
X100705099Y-98161578D01*
X100585040Y-98271859D01*
X100484008Y-98363352D01*
X100404912Y-98433381D01*
X100350662Y-98479275D01*
X100324819Y-98498067D01*
X100256912Y-98517576D01*
X100182666Y-98510950D01*
X100095648Y-98476289D01*
X99989423Y-98411693D01*
X99957653Y-98389609D01*
X99902915Y-98351453D01*
X99819608Y-98294245D01*
X99714338Y-98222479D01*
X99593715Y-98140654D01*
X99464347Y-98053265D01*
X99370073Y-97989812D01*
X98914989Y-97683995D01*
X98802149Y-97793539D01*
X98735869Y-97865651D01*
X98674603Y-97945388D01*
X98635301Y-98008917D01*
X98587537Y-98093533D01*
X98520302Y-98200732D01*
X98440711Y-98320154D01*
X98355878Y-98441438D01*
X98272917Y-98554222D01*
X98198944Y-98648146D01*
X98184724Y-98665083D01*
X98128013Y-98735145D01*
X98079146Y-98801762D01*
X98047807Y-98851650D01*
X98045828Y-98855583D01*
X98022340Y-98891934D01*
X97976083Y-98953620D01*
X97912197Y-99034143D01*
X97835821Y-99127008D01*
X97763294Y-99212692D01*
X97678737Y-99313202D01*
X97600945Y-99409267D01*
X97535471Y-99493755D01*
X97487863Y-99559536D01*
X97465936Y-99594737D01*
X97430639Y-99653889D01*
X97378194Y-99730752D01*
X97318718Y-99810647D01*
X97306063Y-99826712D01*
X97238171Y-99914924D01*
X97196337Y-99978901D01*
X97177955Y-100025559D01*
X97180415Y-100061815D01*
X97201111Y-100094583D01*
X97203873Y-100097702D01*
X97252388Y-100135885D01*
X97340634Y-100187121D01*
X97468148Y-100251175D01*
X97634467Y-100327817D01*
X97839128Y-100416812D01*
X97846073Y-100419763D01*
X98039547Y-100507053D01*
X98191935Y-100587159D01*
X98303074Y-100659981D01*
X98372801Y-100725418D01*
X98392422Y-100756038D01*
X98408575Y-100801680D01*
X98402513Y-100841922D01*
X98381589Y-100883038D01*
X98331800Y-100937880D01*
X98242516Y-100999451D01*
X98115879Y-101066809D01*
X97954026Y-101139010D01*
X97759098Y-101215113D01*
X97533232Y-101294174D01*
X97278569Y-101375251D01*
X97234125Y-101388698D01*
X97142516Y-101434558D01*
X97080876Y-101508465D01*
X97049027Y-101611040D01*
X97046791Y-101742907D01*
X97073990Y-101904686D01*
X97079871Y-101928706D01*
X97159298Y-102166357D01*
X97278200Y-102409922D01*
X97434728Y-102656125D01*
X97627030Y-102901694D01*
X97634468Y-102910333D01*
X97713328Y-103004617D01*
X97796241Y-103108613D01*
X97870287Y-103205931D01*
X97900440Y-103247667D01*
X97960696Y-103329341D01*
X98022631Y-103406852D01*
X98075336Y-103466715D01*
X98087896Y-103479389D01*
X98132652Y-103537144D01*
X98182466Y-103624509D01*
X98232421Y-103729953D01*
X98277596Y-103841946D01*
X98313074Y-103948958D01*
X98333934Y-104039457D01*
X98336683Y-104062583D01*
X98338338Y-104117346D01*
X98327006Y-104143105D01*
X98295979Y-104152723D01*
X98289228Y-104153567D01*
X98231618Y-104142800D01*
X98150322Y-104101602D01*
X98048543Y-104032239D01*
X97929483Y-103936975D01*
X97796346Y-103818077D01*
X97742412Y-103766864D01*
X97571066Y-103594370D01*
X97430651Y-103436182D01*
X97315549Y-103285238D01*
X97220144Y-103134481D01*
X97178909Y-103058586D01*
X97122472Y-102953746D01*
X97076801Y-102886576D01*
X97035255Y-102856157D01*
X96991193Y-102861569D01*
X96937974Y-102901894D01*
X96868957Y-102976213D01*
X96838639Y-103011495D01*
X96793813Y-103063108D01*
X96725247Y-103140751D01*
X96637674Y-103239127D01*
X96535826Y-103352940D01*
X96424436Y-103476891D01*
X96308236Y-103605685D01*
X96271619Y-103646160D01*
X96156987Y-103773749D01*
X96047879Y-103896988D01*
X95948605Y-104010873D01*
X95863478Y-104110397D01*
X95796807Y-104190552D01*
X95752903Y-104246334D01*
X95743501Y-104259485D01*
X95662347Y-104379066D01*
X95677138Y-104546158D01*
X95683385Y-104639897D01*
X95678948Y-104699451D01*
X95659172Y-104732537D01*
X95619404Y-104746872D01*
X95554991Y-104750172D01*
X95554101Y-104750176D01*
X95439616Y-104768378D01*
X95325097Y-104823603D01*
X95227455Y-104898236D01*
X95154870Y-104955221D01*
X95102062Y-104978779D01*
X95067092Y-104967308D01*
X95048026Y-104919204D01*
X95042927Y-104832863D01*
X95046652Y-104748508D01*
X95057860Y-104584980D01*
X94975591Y-104542794D01*
X94905599Y-104498567D01*
X94813627Y-104428126D01*
X94705589Y-104337101D01*
X94587400Y-104231120D01*
X94464975Y-104115813D01*
X94344229Y-103996809D01*
X94231076Y-103879736D01*
X94131432Y-103770225D01*
X94051211Y-103673905D01*
X94022718Y-103635938D01*
X93943129Y-103510350D01*
X93864367Y-103360773D01*
X93794620Y-103204437D01*
X93742075Y-103058575D01*
X93732260Y-103024564D01*
X93685515Y-102779218D01*
X93671166Y-102516988D01*
X93678062Y-102410053D01*
X93982131Y-102410053D01*
X94002641Y-102612207D01*
X94056785Y-102814047D01*
X94145642Y-103017525D01*
X94270291Y-103224593D01*
X94431811Y-103437201D01*
X94631282Y-103657301D01*
X94869784Y-103886845D01*
X94976842Y-103982169D01*
X95086577Y-104076609D01*
X95170939Y-104144779D01*
X95235463Y-104189338D01*
X95285688Y-104212943D01*
X95327147Y-104218253D01*
X95365377Y-104207924D01*
X95402811Y-104186662D01*
X95431676Y-104161299D01*
X95483773Y-104109079D01*
X95554410Y-104034964D01*
X95638899Y-103943916D01*
X95732550Y-103840900D01*
X95787809Y-103779203D01*
X95995872Y-103548043D01*
X96179638Y-103349068D01*
X96340526Y-103180837D01*
X96479952Y-103041906D01*
X96599336Y-102930833D01*
X96700095Y-102846176D01*
X96720522Y-102830487D01*
X96790597Y-102775301D01*
X96847214Y-102726186D01*
X96881868Y-102690726D01*
X96888081Y-102681113D01*
X96892338Y-102640345D01*
X96880637Y-102577798D01*
X96851850Y-102490381D01*
X96804849Y-102375005D01*
X96738505Y-102228582D01*
X96672395Y-102090401D01*
X96606284Y-101955459D01*
X96553471Y-101853407D01*
X96508747Y-101779063D01*
X96466904Y-101727243D01*
X96422732Y-101692765D01*
X96371022Y-101670445D01*
X96306565Y-101655100D01*
X96224152Y-101641548D01*
X96220740Y-101641021D01*
X96111889Y-101620324D01*
X96038527Y-101595770D01*
X95993816Y-101563966D01*
X95970913Y-101521520D01*
X95969528Y-101516439D01*
X95974807Y-101457691D01*
X96021498Y-101404915D01*
X96109022Y-101358710D01*
X96128873Y-101351207D01*
X96225281Y-101303013D01*
X96296987Y-101239937D01*
X96337118Y-101169087D01*
X96343239Y-101129615D01*
X96332966Y-101059727D01*
X96299588Y-100985468D01*
X96239262Y-100900377D01*
X96148148Y-100797992D01*
X96142744Y-100792333D01*
X96078471Y-100721732D01*
X96022289Y-100653800D01*
X95983625Y-100600143D01*
X95976230Y-100587377D01*
X95950393Y-100553556D01*
X95901753Y-100502642D01*
X95838013Y-100441479D01*
X95766872Y-100376907D01*
X95696033Y-100315771D01*
X95633196Y-100264913D01*
X95586063Y-100231176D01*
X95563967Y-100221072D01*
X95532781Y-100232920D01*
X95475149Y-100264604D01*
X95398883Y-100311096D01*
X95311800Y-100367365D01*
X95221712Y-100428383D01*
X95136435Y-100489120D01*
X95074061Y-100536381D01*
X94891544Y-100693824D01*
X94707307Y-100877696D01*
X94531420Y-101076640D01*
X94373952Y-101279300D01*
X94250200Y-101465573D01*
X94158577Y-101643800D01*
X94080394Y-101846303D01*
X94021671Y-102055679D01*
X93994174Y-102205633D01*
X93982131Y-102410053D01*
X93678062Y-102410053D01*
X93688550Y-102247429D01*
X93737002Y-101980098D01*
X93815858Y-101724549D01*
X93824090Y-101703301D01*
X93921091Y-101480454D01*
X94034566Y-101265015D01*
X94168135Y-101051865D01*
X94325416Y-100835886D01*
X94510031Y-100611957D01*
X94725598Y-100374961D01*
X94866091Y-100229644D01*
X95222420Y-99868037D01*
X95004955Y-99656205D01*
X94934374Y-99588043D01*
X94844441Y-99502090D01*
X94740305Y-99403183D01*
X94627113Y-99296155D01*
X94510013Y-99185843D01*
X94394153Y-99077081D01*
X94284681Y-98974703D01*
X94186745Y-98883546D01*
X94105492Y-98808443D01*
X94046072Y-98754230D01*
X94019806Y-98730941D01*
X93973338Y-98690965D01*
X93645970Y-99009524D01*
X93295631Y-99327865D01*
X92918654Y-99626083D01*
X92507630Y-99910036D01*
X92505147Y-99911643D01*
X92427857Y-99964781D01*
X92327094Y-100038735D01*
X92208735Y-100128765D01*
X92078657Y-100230132D01*
X91942736Y-100338096D01*
X91806850Y-100447918D01*
X91676876Y-100554857D01*
X91558690Y-100654174D01*
X91458170Y-100741130D01*
X91381193Y-100810984D01*
X91342266Y-100849491D01*
X91283710Y-100911793D01*
X91469266Y-100981576D01*
X91622208Y-101043611D01*
X91769416Y-101111676D01*
X91902841Y-101181477D01*
X92014436Y-101248718D01*
X92096155Y-101309102D01*
X92114338Y-101325932D01*
X92174879Y-101403934D01*
X92194147Y-101477511D01*
X92172498Y-101549910D01*
X92143461Y-101590195D01*
X92088615Y-101633345D01*
X92017806Y-101651574D01*
X91928698Y-101644131D01*
X91818951Y-101610263D01*
X91686229Y-101549219D01*
X91528193Y-101460247D01*
X91342507Y-101342595D01*
X91313453Y-101323313D01*
X91160236Y-101216729D01*
X91035099Y-101120518D01*
X90939529Y-101036324D01*
X90875019Y-100965793D01*
X90843057Y-100910570D01*
X90845133Y-100872301D01*
X90882739Y-100852629D01*
X90886586Y-100852014D01*
X90925467Y-100831428D01*
X90973790Y-100785716D01*
X91002688Y-100750000D01*
X91155390Y-100560993D01*
X91327359Y-100389626D01*
X91464089Y-100274579D01*
X91546675Y-100209079D01*
X91651945Y-100125498D01*
X91769463Y-100032127D01*
X91888795Y-99937254D01*
X91961739Y-99879226D01*
X92124148Y-99751152D01*
X92264147Y-99643714D01*
X92391421Y-99549942D01*
X92515653Y-99462865D01*
X92646527Y-99375513D01*
X92787239Y-99285031D01*
X92898531Y-99210671D01*
X93023841Y-99121057D01*
X93145542Y-99029052D01*
X93221650Y-98968040D01*
X93322385Y-98886852D01*
X93431952Y-98802366D01*
X93535893Y-98725546D01*
X93607226Y-98675667D01*
X93680798Y-98625169D01*
X93739035Y-98583092D01*
X93774327Y-98555054D01*
X93781357Y-98547096D01*
X93767030Y-98527414D01*
X93726401Y-98483209D01*
X93664045Y-98418919D01*
X93584538Y-98338980D01*
X93492456Y-98247831D01*
X93392374Y-98149906D01*
X93288870Y-98049644D01*
X93186517Y-97951482D01*
X93140274Y-97907630D01*
X93737309Y-97907630D01*
X93738472Y-97929712D01*
X93767890Y-97971490D01*
X93826671Y-98034051D01*
X93915916Y-98118482D01*
X94036732Y-98225871D01*
X94190223Y-98357307D01*
X94215989Y-98379043D01*
X94314700Y-98464749D01*
X94434931Y-98573248D01*
X94568640Y-98697031D01*
X94707782Y-98828593D01*
X94844313Y-98960427D01*
X94938228Y-99053040D01*
X95088303Y-99201405D01*
X95213043Y-99321603D01*
X95316016Y-99416394D01*
X95400791Y-99488541D01*
X95470939Y-99540806D01*
X95530027Y-99575950D01*
X95581625Y-99596734D01*
X95629301Y-99605921D01*
X95654175Y-99607033D01*
X95767149Y-99622813D01*
X95851835Y-99670074D01*
X95908257Y-99748839D01*
X95936437Y-99859134D01*
X95939878Y-99916354D01*
X95953588Y-99996001D01*
X95987488Y-100059566D01*
X96034263Y-100101461D01*
X96086598Y-100116103D01*
X96137180Y-100097907D01*
X96154958Y-100080576D01*
X96172600Y-100044352D01*
X96180525Y-99986503D01*
X96178648Y-99902037D01*
X96166885Y-99785964D01*
X96147621Y-99649333D01*
X96131690Y-99534888D01*
X96114893Y-99397261D01*
X96099452Y-99255494D01*
X96089571Y-99151917D01*
X96077823Y-99036542D01*
X96063606Y-98925586D01*
X96048711Y-98831635D01*
X96034925Y-98767277D01*
X96034872Y-98767087D01*
X96015328Y-98708679D01*
X95989140Y-98655719D01*
X95953372Y-98606884D01*
X95905089Y-98560852D01*
X95841358Y-98516297D01*
X95759244Y-98471898D01*
X95655811Y-98426331D01*
X95528126Y-98378271D01*
X95373254Y-98326397D01*
X95188260Y-98269384D01*
X94970209Y-98205909D01*
X94716168Y-98134649D01*
X94501739Y-98075705D01*
X94302348Y-98021614D01*
X94139957Y-97978547D01*
X94010916Y-97945702D01*
X93911578Y-97922277D01*
X93838294Y-97907470D01*
X93787416Y-97900478D01*
X93755296Y-97900500D01*
X93738284Y-97906732D01*
X93737309Y-97907630D01*
X93140274Y-97907630D01*
X93089893Y-97859855D01*
X93003573Y-97779202D01*
X92932133Y-97713959D01*
X92880148Y-97668563D01*
X92855748Y-97649586D01*
X92765508Y-97590167D01*
X92612332Y-97635567D01*
X92483808Y-97668692D01*
X92389759Y-97680506D01*
X92327545Y-97670057D01*
X92294525Y-97636394D01*
X92288059Y-97578565D01*
X92298127Y-97522364D01*
X92311896Y-97452608D01*
X92325177Y-97360289D01*
X92335146Y-97265112D01*
X92335318Y-97263000D01*
X92344054Y-97179323D01*
X92354989Y-97108933D01*
X92365971Y-97065263D01*
X92367560Y-97061708D01*
X92404227Y-97030834D01*
X92459866Y-97028897D01*
X92522915Y-97055513D01*
X92539537Y-97067410D01*
X92580460Y-97093430D01*
X92622609Y-97099912D01*
X92685153Y-97089697D01*
X92687060Y-97089271D01*
X92751449Y-97070724D01*
X92837785Y-97040470D01*
X92929511Y-97004391D01*
X92947930Y-96996616D01*
X93104030Y-96934423D01*
X93296971Y-96865301D01*
X93522083Y-96790648D01*
X93774698Y-96711857D01*
X94050151Y-96630325D01*
X94343772Y-96547447D01*
X94650894Y-96464619D01*
X94966849Y-96383236D01*
X95157906Y-96335879D01*
X95356412Y-96287263D01*
X95518056Y-96247213D01*
X95647151Y-96214461D01*
X95748011Y-96187743D01*
X95824950Y-96165791D01*
X95882282Y-96147340D01*
X95924319Y-96131123D01*
X95955376Y-96115875D01*
X95979766Y-96100329D01*
X95992111Y-96091029D01*
X96025620Y-96061707D01*
X96055187Y-96027500D01*
X96082032Y-95984365D01*
X96107376Y-95928256D01*
X96132439Y-95855130D01*
X96158441Y-95760940D01*
X96186603Y-95641642D01*
X96218145Y-95493192D01*
X96254288Y-95311545D01*
X96296252Y-95092656D01*
X96301159Y-95066750D01*
X96349805Y-94813841D01*
X96393027Y-94599132D01*
X96431859Y-94418983D01*
X96467336Y-94269756D01*
X96500494Y-94147812D01*
X96532368Y-94049513D01*
X96563993Y-93971220D01*
X96596403Y-93909294D01*
X96630634Y-93860097D01*
X96651091Y-93836638D01*
X96710838Y-93788845D01*
X96778959Y-93766418D01*
X96858891Y-93770412D01*
X96954069Y-93801880D01*
X97067931Y-93861876D01*
X97203912Y-93951453D01*
X97330974Y-94045155D01*
X97430863Y-94121378D01*
X97538226Y-94203255D01*
X97637564Y-94278969D01*
X97690681Y-94319427D01*
X97773764Y-94378358D01*
X97857873Y-94430872D01*
X97928717Y-94468258D01*
X97948061Y-94476278D01*
X98023772Y-94512030D01*
X98105197Y-94562208D01*
X98142406Y-94589890D01*
X98279478Y-94695460D01*
X98449012Y-94816740D01*
X98645683Y-94950362D01*
X98864164Y-95092956D01*
X99099128Y-95241152D01*
X99345250Y-95391579D01*
X99597202Y-95540868D01*
X99849659Y-95685649D01*
X100050308Y-95797000D01*
X100196155Y-95884732D01*
X100311411Y-95970701D01*
X100395147Y-96052519D01*
X100446437Y-96127800D01*
X100464352Y-96194158D01*
X100447964Y-96249207D01*
X100396347Y-96290560D01*
X100308571Y-96315831D01*
X100254224Y-96321494D01*
X100196497Y-96323724D01*
X100148110Y-96320561D01*
X100099132Y-96309067D01*
X100039634Y-96286304D01*
X99959686Y-96249335D01*
X99882128Y-96211403D01*
X99717199Y-96125856D01*
X99527210Y-96020180D01*
X99318524Y-95898449D01*
X99097507Y-95764739D01*
X98870525Y-95623124D01*
X98643942Y-95477680D01*
X98424124Y-95332482D01*
X98217437Y-95191605D01*
X98030244Y-95059123D01*
X97868912Y-94939112D01*
X97761406Y-94853714D01*
X97619899Y-94738395D01*
X97476355Y-94624606D01*
X97334824Y-94515275D01*
X97199354Y-94413334D01*
X97073993Y-94321711D01*
X96962793Y-94243338D01*
X96869800Y-94181143D01*
X96799065Y-94138056D01*
X96754635Y-94117009D01*
X96742212Y-94116224D01*
X96708632Y-94157748D01*
X96674828Y-94239942D01*
X96641038Y-94361146D01*
X96607500Y-94519698D01*
X96574453Y-94713936D01*
X96542133Y-94942202D01*
X96510779Y-95202833D01*
X96480629Y-95494168D01*
X96451921Y-95814547D01*
X96424891Y-96162310D01*
X96402986Y-96484917D01*
X96395964Y-96619788D01*
X96389967Y-96784185D01*
X96384996Y-96972770D01*
X96381053Y-97180208D01*
X96378141Y-97401162D01*
X96376261Y-97630298D01*
X96375416Y-97862278D01*
X96375608Y-98091766D01*
X96376837Y-98313427D01*
X96379108Y-98521925D01*
X96382420Y-98711923D01*
X96386778Y-98878086D01*
X96392181Y-99015078D01*
X96398634Y-99117562D01*
X96401985Y-99151917D01*
X96429364Y-99385010D01*
X96453214Y-99580520D01*
X96474245Y-99742987D01*
X96493167Y-99876949D01*
X96510690Y-99986943D01*
X96527524Y-100077508D01*
X96544379Y-100153183D01*
X96561967Y-100218506D01*
X96575774Y-100262560D01*
X96605023Y-100358490D01*
X96638090Y-100479180D01*
X96670539Y-100607868D01*
X96693588Y-100707667D01*
X96718094Y-100813775D01*
X96742536Y-100909564D01*
X96764152Y-100984808D01*
X96780183Y-101029286D01*
X96780758Y-101030458D01*
X96801547Y-101062547D01*
X96829752Y-101083220D01*
X96870979Y-101092279D01*
X96930832Y-101089523D01*
X97014918Y-101074755D01*
X97128841Y-101047773D01*
X97259459Y-101013437D01*
X97406326Y-100971248D01*
X97527560Y-100931000D01*
X97619206Y-100894282D01*
X97677305Y-100862681D01*
X97697902Y-100837783D01*
X97697906Y-100837517D01*
X97689689Y-100817582D01*
X97662159Y-100790874D01*
X97610991Y-100754372D01*
X97531863Y-100705055D01*
X97420454Y-100639902D01*
X97390989Y-100623033D01*
X97191488Y-100505303D01*
X97027809Y-100400444D01*
X96900683Y-100309019D01*
X96810844Y-100231588D01*
X96759022Y-100168713D01*
X96745406Y-100127815D01*
X96757728Y-100068361D01*
X96791905Y-99982613D01*
X96843753Y-99877655D01*
X96909090Y-99760571D01*
X96983730Y-99638445D01*
X97063492Y-99518360D01*
X97144190Y-99407402D01*
X97221642Y-99312654D01*
X97236685Y-99295934D01*
X97293903Y-99229305D01*
X97372086Y-99131843D01*
X97468249Y-99007626D01*
X97579410Y-98860729D01*
X97702586Y-98695229D01*
X97834794Y-98515204D01*
X97973051Y-98324730D01*
X98114374Y-98127883D01*
X98255780Y-97928741D01*
X98394286Y-97731380D01*
X98526908Y-97539877D01*
X98602704Y-97429062D01*
X98670675Y-97330493D01*
X98734865Y-97239815D01*
X98789481Y-97165038D01*
X98828737Y-97114171D01*
X98839032Y-97102103D01*
X98911058Y-97039266D01*
X98992808Y-96993051D01*
X99074281Y-96966691D01*
X99145479Y-96963417D01*
X99196400Y-96986461D01*
X99196506Y-96986567D01*
X99213435Y-97023503D01*
X99221735Y-97080872D01*
X99221906Y-97090095D01*
X99213689Y-97148416D01*
X99184725Y-97207489D01*
X99137147Y-97270794D01*
X99093992Y-97327329D01*
X99065998Y-97372438D01*
X99059328Y-97394182D01*
X99082699Y-97411643D01*
X99131629Y-97428332D01*
X99144173Y-97431188D01*
X99199752Y-97446548D01*
X99266442Y-97472843D01*
X99349239Y-97512606D01*
X99453135Y-97568373D01*
X99583126Y-97642680D01*
X99719323Y-97723183D01*
X99821111Y-97783660D01*
X99914920Y-97838833D01*
X99992444Y-97883859D01*
X100045379Y-97913892D01*
X100057989Y-97920717D01*
X100119182Y-97952897D01*
X100170998Y-97980387D01*
X100215323Y-97990401D01*
X100272162Y-97977134D01*
X100345110Y-97938576D01*
X100437764Y-97872718D01*
X100553719Y-97777551D01*
X100589625Y-97746451D01*
X100653479Y-97688167D01*
X100741579Y-97604187D01*
X100849000Y-97499490D01*
X100970816Y-97379059D01*
X101102102Y-97247875D01*
X101237934Y-97110919D01*
X101373385Y-96973172D01*
X101503530Y-96839616D01*
X101623445Y-96715231D01*
X101728203Y-96604999D01*
X101812880Y-96513901D01*
X101858249Y-96463411D01*
X101979005Y-96325868D01*
X101883915Y-96183142D01*
X101808512Y-96057750D01*
X101762690Y-95953218D01*
X101746895Y-95871556D01*
X101761575Y-95814776D01*
X101796144Y-95788391D01*
X101838440Y-95783384D01*
X101886733Y-95791030D01*
X101922868Y-95807059D01*
X101931239Y-95820176D01*
X101945119Y-95845896D01*
X101984661Y-95898850D01*
X102046719Y-95975254D01*
X102128144Y-96071323D01*
X102225790Y-96183273D01*
X102334418Y-96305000D01*
X102618077Y-96632915D01*
X102908451Y-96994183D01*
X103200051Y-97381619D01*
X103487387Y-97788039D01*
X103636225Y-98008917D01*
X103816350Y-98285621D01*
X103968958Y-98530440D01*
X104094152Y-98743568D01*
X104192039Y-98925201D01*
X104262721Y-99075534D01*
X104306304Y-99194760D01*
X104322891Y-99283077D01*
X104323073Y-99291345D01*
X104307890Y-99374319D01*
X104260670Y-99466771D01*
X104178898Y-99573389D01*
X104161242Y-99593414D01*
X104103452Y-99663726D01*
X104075644Y-99716800D01*
X104075184Y-99762384D01*
X104099437Y-99810228D01*
X104101744Y-99813559D01*
X104140941Y-99851747D01*
X104208815Y-99900883D01*
X104295282Y-99954897D01*
X104390259Y-100007722D01*
X104483660Y-100053286D01*
X104536744Y-100075376D01*
X104630966Y-100103154D01*
X104699545Y-100102217D01*
X104749462Y-100070832D01*
X104784842Y-100013705D01*
X104796931Y-99981346D01*
X104805871Y-99940987D01*
X104812031Y-99886489D01*
X104815781Y-99811714D01*
X104817488Y-99710522D01*
X104817522Y-99576776D01*
X104816905Y-99480000D01*
X104815210Y-99322286D01*
X104812321Y-99196898D01*
X104807351Y-99093830D01*
X104799408Y-99003077D01*
X104787604Y-98914632D01*
X104771049Y-98818489D01*
X104748854Y-98704643D01*
X104747284Y-98696833D01*
X104705298Y-98497982D01*
X104657972Y-98290638D01*
X104606912Y-98080628D01*
X104553725Y-97873776D01*
X104500018Y-97675908D01*
X104447397Y-97492849D01*
X104410567Y-97373032D01*
X104788773Y-97373032D01*
X104794241Y-97405887D01*
X104809486Y-97472662D01*
X104832801Y-97566532D01*
X104862482Y-97680673D01*
X104896820Y-97808258D01*
X104905416Y-97839583D01*
X104971510Y-98087170D01*
X105023973Y-98301639D01*
X105064150Y-98489468D01*
X105093383Y-98657138D01*
X105113013Y-98811128D01*
X105118131Y-98866167D01*
X105131328Y-98988357D01*
X105147365Y-99076849D01*
X105165536Y-99128546D01*
X105180833Y-99141333D01*
X105195928Y-99123869D01*
X105220395Y-99079573D01*
X105233809Y-99051375D01*
X105265150Y-98944829D01*
X105275108Y-98830121D01*
X105280251Y-98728453D01*
X105299129Y-98656880D01*
X105338196Y-98603794D01*
X105403907Y-98557588D01*
X105436565Y-98539754D01*
X105513276Y-98493526D01*
X105580881Y-98437450D01*
X105644629Y-98365051D01*
X105709770Y-98269853D01*
X105781552Y-98145381D01*
X105829346Y-98055197D01*
X105887583Y-97947538D01*
X105961685Y-97817478D01*
X106044104Y-97677890D01*
X106127296Y-97541646D01*
X106172100Y-97470525D01*
X106316425Y-97240240D01*
X106452234Y-97015083D01*
X106577348Y-96799121D01*
X106689586Y-96596423D01*
X106786770Y-96411054D01*
X106866720Y-96247084D01*
X106927257Y-96108578D01*
X106966201Y-95999605D01*
X106972443Y-95976917D01*
X106998242Y-95901335D01*
X107032401Y-95833117D01*
X107047548Y-95811251D01*
X107081018Y-95749721D01*
X107095169Y-95680929D01*
X107088540Y-95620280D01*
X107068585Y-95589009D01*
X107043488Y-95582952D01*
X107010640Y-95607154D01*
X106983852Y-95638285D01*
X106946950Y-95675160D01*
X106882580Y-95729966D01*
X106798203Y-95796722D01*
X106701286Y-95869446D01*
X106642172Y-95912073D01*
X106529699Y-95993280D01*
X106396120Y-96091859D01*
X106253453Y-96198816D01*
X106113711Y-96305157D01*
X106013256Y-96382840D01*
X105876834Y-96488058D01*
X105720868Y-96606349D01*
X105559716Y-96726945D01*
X105407732Y-96839081D01*
X105318633Y-96903793D01*
X105155098Y-97023300D01*
X105025017Y-97122470D01*
X104925971Y-97203444D01*
X104855542Y-97268364D01*
X104811312Y-97319373D01*
X104790861Y-97358611D01*
X104788773Y-97373032D01*
X104410567Y-97373032D01*
X104397470Y-97330425D01*
X104351842Y-97194461D01*
X104312121Y-97090783D01*
X104292459Y-97047810D01*
X104268836Y-96993752D01*
X104236153Y-96908916D01*
X104197935Y-96802945D01*
X104157706Y-96685481D01*
X104136981Y-96622500D01*
X104074827Y-96432936D01*
X104020205Y-96272167D01*
X103968712Y-96128374D01*
X103915942Y-95989734D01*
X103857492Y-95844428D01*
X103788957Y-95680636D01*
X103765473Y-95625428D01*
X103718698Y-95513535D01*
X103678490Y-95413086D01*
X103647641Y-95331405D01*
X103628944Y-95275814D01*
X103624573Y-95255884D01*
X103615542Y-95222793D01*
X103590243Y-95157541D01*
X103551365Y-95065818D01*
X103501597Y-94953314D01*
X103443626Y-94825721D01*
X103380144Y-94688728D01*
X103313837Y-94548026D01*
X103247395Y-94409305D01*
X103183508Y-94278256D01*
X103124863Y-94160568D01*
X103074150Y-94061933D01*
X103034058Y-93988041D01*
X103007276Y-93944582D01*
X103001737Y-93937808D01*
X102976218Y-93924977D01*
X102938902Y-93929131D01*
X102887299Y-93952049D01*
X102818923Y-93995512D01*
X102731285Y-94061302D01*
X102621897Y-94151198D01*
X102488271Y-94266982D01*
X102327920Y-94410435D01*
X102277457Y-94456199D01*
X102182924Y-94539169D01*
X102083751Y-94621240D01*
X101991644Y-94693000D01*
X101918309Y-94745039D01*
X101917623Y-94745485D01*
X101855371Y-94788909D01*
X101768701Y-94853624D01*
X101665477Y-94933537D01*
X101553565Y-95022555D01*
X101440829Y-95114584D01*
X101435326Y-95119143D01*
X101235842Y-95283217D01*
X101064916Y-95420692D01*
X100919786Y-95533457D01*
X100797694Y-95623398D01*
X100695878Y-95692402D01*
X100611579Y-95742356D01*
X100542037Y-95775146D01*
X100484491Y-95792659D01*
X100443827Y-95796945D01*
X100373866Y-95782292D01*
X100335678Y-95740956D01*
X100331987Y-95677049D01*
X100341894Y-95643104D01*
X100354526Y-95614062D01*
X100371821Y-95584060D01*
X100396297Y-95550878D01*
X100430476Y-95512290D01*
X100476876Y-95466076D01*
X100538017Y-95410010D01*
X100616420Y-95341872D01*
X100714605Y-95259437D01*
X100835090Y-95160482D01*
X100980397Y-95042786D01*
X101153044Y-94904124D01*
X101355552Y-94742274D01*
X101433823Y-94679839D01*
X101509129Y-94617949D01*
X101605614Y-94535936D01*
X101713344Y-94442387D01*
X101822388Y-94345888D01*
X101879320Y-94294672D01*
X101977544Y-94207059D01*
X102073024Y-94124326D01*
X102158098Y-94052939D01*
X102225104Y-93999361D01*
X102256997Y-93976020D01*
X102316317Y-93933010D01*
X102395590Y-93871481D01*
X102482923Y-93800808D01*
X102541750Y-93751543D01*
X102661818Y-93653901D01*
X102760891Y-93584649D01*
X102845686Y-93540175D01*
X102922922Y-93516868D01*
X102989300Y-93511000D01*
X103045721Y-93514833D01*
X103089471Y-93531498D01*
X103135643Y-93568741D01*
X103170744Y-93604145D01*
X103229920Y-93677162D01*
X103300508Y-93782388D01*
X103378700Y-93912531D01*
X103460693Y-94060294D01*
X103542678Y-94218385D01*
X103620852Y-94379510D01*
X103691408Y-94536373D01*
X103750540Y-94681681D01*
X103787603Y-94786382D01*
X103820128Y-94878077D01*
X103848938Y-94936201D01*
X103878430Y-94968731D01*
X103892637Y-94976938D01*
X103916222Y-94982396D01*
X103957605Y-94984052D01*
X104020503Y-94981589D01*
X104108631Y-94974693D01*
X104225706Y-94963050D01*
X104375444Y-94946345D01*
X104561562Y-94924263D01*
X104667852Y-94911300D01*
X104877530Y-94885891D01*
X105116513Y-94857495D01*
X105372010Y-94827597D01*
X105631229Y-94797680D01*
X105881380Y-94769228D01*
X106109671Y-94743724D01*
X106164573Y-94737682D01*
X106397852Y-94711946D01*
X106593489Y-94689937D01*
X106755950Y-94671035D01*
X106889703Y-94654626D01*
X106999216Y-94640090D01*
X107088955Y-94626811D01*
X107163387Y-94614172D01*
X107226981Y-94601555D01*
X107284204Y-94588342D01*
X107328940Y-94576782D01*
X107429799Y-94543099D01*
X107498784Y-94500872D01*
X107546353Y-94441367D01*
X107578634Y-94368248D01*
X107621108Y-94281993D01*
X107672621Y-94231411D01*
X107714854Y-94212383D01*
X107748114Y-94217329D01*
X107786810Y-94242972D01*
X107825945Y-94279068D01*
X107853525Y-94325546D01*
X107875815Y-94394970D01*
X107887535Y-94444945D01*
X107901966Y-94480200D01*
X107932257Y-94508433D01*
X107985070Y-94532787D01*
X108067069Y-94556407D01*
X108174418Y-94580273D01*
X108288485Y-94610180D01*
X108362754Y-94645170D01*
X108399609Y-94686747D01*
X108403879Y-94724967D01*
X108383410Y-94761752D01*
X108331290Y-94798509D01*
X108244726Y-94836531D01*
X108120922Y-94877111D01*
X108006247Y-94908875D01*
X107911467Y-94934204D01*
X107831982Y-94956313D01*
X107776621Y-94972689D01*
X107754641Y-94980496D01*
X107742042Y-95001220D01*
X107713404Y-95055672D01*
X107670954Y-95139391D01*
X107616917Y-95247914D01*
X107553519Y-95376777D01*
X107482985Y-95521520D01*
X107424563Y-95642329D01*
X107280899Y-95940208D01*
X107154168Y-96202548D01*
X107043047Y-96432009D01*
X106946213Y-96631245D01*
X106862343Y-96802916D01*
X106790116Y-96949678D01*
X106728208Y-97074188D01*
X106675297Y-97179104D01*
X106630061Y-97267082D01*
X106591177Y-97340781D01*
X106557322Y-97402858D01*
X106527174Y-97455969D01*
X106499410Y-97502772D01*
X106494995Y-97510026D01*
X106409679Y-97652616D01*
X106346700Y-97765008D01*
X106303927Y-97851554D01*
X106279232Y-97916602D01*
X106270486Y-97964505D01*
X106270406Y-97968842D01*
X106253248Y-98025141D01*
X106199243Y-98085579D01*
X106192649Y-98091254D01*
X106091831Y-98181489D01*
X106026957Y-98251180D01*
X105997376Y-98301063D01*
X105995239Y-98314045D01*
X105982152Y-98347613D01*
X105947864Y-98400751D01*
X105900501Y-98461102D01*
X105832551Y-98551485D01*
X105790560Y-98637463D01*
X105775122Y-98725014D01*
X105786830Y-98820116D01*
X105826278Y-98928747D01*
X105894060Y-99056886D01*
X105972117Y-99182117D01*
X106154122Y-99490980D01*
X106297958Y-99802874D01*
X106407380Y-100126699D01*
X106459561Y-100337250D01*
X106518658Y-100690808D01*
X106542394Y-101045737D01*
X106530482Y-101406196D01*
X106482636Y-101776344D01*
X106398569Y-102160341D01*
X106313489Y-102453917D01*
X106247411Y-102686620D01*
X106205789Y-102894053D01*
X106187126Y-103084391D01*
X106185739Y-103150779D01*
X106183120Y-103250601D01*
X106171804Y-103315566D01*
X106146603Y-103353009D01*
X106102329Y-103370260D01*
X106033795Y-103374651D01*
X106027330Y-103374667D01*
X105963685Y-103382627D01*
X105900058Y-103402727D01*
X105849810Y-103429294D01*
X105826302Y-103456654D01*
X105825906Y-103460188D01*
X105806743Y-103492485D01*
X105756930Y-103523708D01*
X105687976Y-103548980D01*
X105611392Y-103563421D01*
X105578398Y-103565087D01*
X105489551Y-103554206D01*
X105435811Y-103521003D01*
X105416983Y-103464871D01*
X105432874Y-103385202D01*
X105483291Y-103281388D01*
X105486342Y-103276184D01*
X105517944Y-103215456D01*
X105524542Y-103170755D01*
X105503336Y-103128796D01*
X105451527Y-103076295D01*
X105442494Y-103068089D01*
X105391139Y-103024084D01*
X105359370Y-103006058D01*
X105336917Y-103009980D01*
X105323455Y-103021379D01*
X105301105Y-103055863D01*
X105275818Y-103118601D01*
X105247061Y-103211695D01*
X105214303Y-103337251D01*
X105177010Y-103497373D01*
X105134649Y-103694165D01*
X105086688Y-103929732D01*
X105062538Y-104052000D01*
X105019672Y-104269900D01*
X104983069Y-104453172D01*
X104951111Y-104608778D01*
X104922180Y-104743684D01*
X104894658Y-104864852D01*
X104866928Y-104979248D01*
X104837370Y-105093836D01*
X104804369Y-105215579D01*
X104766305Y-105351442D01*
X104735522Y-105459583D01*
X104697553Y-105596617D01*
X104662143Y-105732096D01*
X104631730Y-105856105D01*
X104608751Y-105958730D01*
X104596161Y-106026479D01*
X104580132Y-106117290D01*
X104562868Y-106174217D01*
X104541397Y-106205675D01*
X104530092Y-106213487D01*
X104480475Y-106226254D01*
X104418799Y-106215905D01*
X104342531Y-106180801D01*
X104249135Y-106119304D01*
X104136076Y-106029776D01*
X104000818Y-105910579D01*
X103866582Y-105784787D01*
X103775776Y-105698854D01*
X103694910Y-105624067D01*
X103629101Y-105565017D01*
X103583468Y-105526297D01*
X103563168Y-105512500D01*
X103538659Y-105532048D01*
X103523007Y-105585095D01*
X103518733Y-105646523D01*
X103514081Y-105695383D01*
X103501090Y-105778569D01*
X103481193Y-105889217D01*
X103455824Y-106020461D01*
X103426418Y-106165438D01*
X103394409Y-106317284D01*
X103361232Y-106469135D01*
X103328321Y-106614127D01*
X103297111Y-106745395D01*
X103269036Y-106856075D01*
X103256030Y-106903644D01*
X103209673Y-107080460D01*
X103160389Y-107292468D01*
X103109540Y-107532742D01*
X103058484Y-107794359D01*
X103008582Y-108070394D01*
X102961193Y-108353923D01*
X102924407Y-108592250D01*
X102915502Y-108669567D01*
X102906441Y-108778507D01*
X102897940Y-108908367D01*
X102890714Y-109048446D01*
X102886230Y-109163750D01*
X102881471Y-109303558D01*
X102877078Y-109406724D01*
X102872268Y-109478924D01*
X102866259Y-109525835D01*
X102858269Y-109553131D01*
X102847514Y-109566490D01*
X102833212Y-109571587D01*
X102829941Y-109572102D01*
X102787978Y-109563863D01*
X102730830Y-109535921D01*
X102702376Y-109517185D01*
X102615269Y-109441047D01*
X102512801Y-109328381D01*
X102396649Y-109181409D01*
X102268487Y-109002358D01*
X102129992Y-108793451D01*
X101998998Y-108583556D01*
X101916504Y-108447802D01*
X101853614Y-108343364D01*
X101807959Y-108265375D01*
X101777171Y-108208966D01*
X101758880Y-108169272D01*
X101750718Y-108141422D01*
X101750316Y-108120550D01*
X101755306Y-108101788D01*
X101759328Y-108091031D01*
X101797886Y-108026987D01*
X101857205Y-107993204D01*
X101944510Y-107985864D01*
X101956961Y-107986562D01*
X102012865Y-108009521D01*
X102079306Y-108069724D01*
X102153649Y-108164181D01*
X102233261Y-108289905D01*
X102249689Y-108318727D01*
X102308586Y-108416935D01*
X102373336Y-108514003D01*
X102434311Y-108595936D01*
X102465587Y-108632555D01*
X102518657Y-108688324D01*
X102551590Y-108716871D01*
X102572649Y-108722368D01*
X102590097Y-108708986D01*
X102597878Y-108699329D01*
X102618886Y-108651390D01*
X102629445Y-108586469D01*
X102629739Y-108574758D01*
X102635506Y-108501910D01*
X102651863Y-108394624D01*
X102677396Y-108259057D01*
X102710689Y-108101366D01*
X102750329Y-107927709D01*
X102794899Y-107744243D01*
X102842986Y-107557125D01*
X102893174Y-107372512D01*
X102944049Y-107196562D01*
X102954016Y-107163500D01*
X102980504Y-107069066D01*
X103012172Y-106944301D01*
X103047907Y-106794616D01*
X103086593Y-106625420D01*
X103127118Y-106442125D01*
X103168368Y-106250140D01*
X103209227Y-106054876D01*
X103248583Y-105861744D01*
X103285321Y-105676153D01*
X103318327Y-105503515D01*
X103346488Y-105349239D01*
X103368688Y-105218736D01*
X103383815Y-105117417D01*
X103390754Y-105050691D01*
X103391074Y-105040862D01*
X103401332Y-104958528D01*
X103427447Y-104881492D01*
X103464508Y-104814798D01*
X103507605Y-104763491D01*
X103551827Y-104732616D01*
X103592263Y-104727216D01*
X103624002Y-104752338D01*
X103637671Y-104787542D01*
X103662192Y-104845565D01*
X103711868Y-104928105D01*
X103782281Y-105029386D01*
X103869014Y-105143632D01*
X103967652Y-105265066D01*
X104073777Y-105387912D01*
X104182973Y-105506394D01*
X104204129Y-105528375D01*
X104263764Y-105587913D01*
X104313075Y-105633549D01*
X104344292Y-105658236D01*
X104349999Y-105660667D01*
X104368575Y-105643061D01*
X104392870Y-105599325D01*
X104399269Y-105584791D01*
X104417039Y-105534683D01*
X104443428Y-105450309D01*
X104476570Y-105338418D01*
X104514599Y-105205760D01*
X104555648Y-105059083D01*
X104597851Y-104905136D01*
X104639342Y-104750667D01*
X104678254Y-104602426D01*
X104712721Y-104467161D01*
X104740876Y-104351621D01*
X104744128Y-104337750D01*
X104771596Y-104216887D01*
X104802204Y-104077136D01*
X104834757Y-103924468D01*
X104868056Y-103764858D01*
X104900905Y-103604277D01*
X104932108Y-103448698D01*
X104960468Y-103304094D01*
X104984787Y-103176438D01*
X105003869Y-103071703D01*
X105016518Y-102995860D01*
X105021536Y-102954884D01*
X105021573Y-102953101D01*
X105010789Y-102908610D01*
X104975812Y-102857589D01*
X104912702Y-102795704D01*
X104817519Y-102718617D01*
X104788739Y-102696828D01*
X104713586Y-102637804D01*
X104634089Y-102571408D01*
X104604004Y-102544970D01*
X104550223Y-102500782D01*
X104505752Y-102471554D01*
X104486448Y-102464500D01*
X104445421Y-102483721D01*
X104390763Y-102539625D01*
X104324524Y-102629573D01*
X104248753Y-102750927D01*
X104206949Y-102824333D01*
X103980826Y-103194550D01*
X103729014Y-103536744D01*
X103453654Y-103849221D01*
X103156884Y-104130284D01*
X102840844Y-104378239D01*
X102507673Y-104591391D01*
X102159510Y-104768044D01*
X101798494Y-104906503D01*
X101465573Y-104996793D01*
X101390274Y-105011343D01*
X101311293Y-105021909D01*
X101220406Y-105029001D01*
X101109392Y-105033128D01*
X100970029Y-105034798D01*
X100851739Y-105034780D01*
X100701039Y-105033886D01*
X100584227Y-105031853D01*
X100492859Y-105027928D01*
X100418492Y-105021357D01*
X100352684Y-105011385D01*
X100286989Y-104997257D01*
X100212965Y-104978219D01*
X100210110Y-104977452D01*
X100036174Y-104923944D01*
X99864177Y-104858599D01*
X99699532Y-104784538D01*
X99547654Y-104704879D01*
X99413957Y-104622742D01*
X99303856Y-104541244D01*
X99222764Y-104463505D01*
X99176097Y-104392644D01*
X99171190Y-104378973D01*
X99172888Y-104322363D01*
X99211424Y-104278393D01*
X99282014Y-104251977D01*
X99297170Y-104249543D01*
X99336732Y-104247121D01*
X99382220Y-104251296D01*
X99439288Y-104263746D01*
X99513590Y-104286148D01*
X99610779Y-104320180D01*
X99736508Y-104367521D01*
X99870675Y-104419725D01*
X100043755Y-104479193D01*
X100218504Y-104520694D01*
X100404933Y-104545630D01*
X100613056Y-104555404D01*
X100819989Y-104552648D01*
X101134307Y-104530128D01*
X101429722Y-104483264D01*
X101724048Y-104408788D01*
X101884907Y-104357271D01*
X102247141Y-104213970D01*
X102580481Y-104040466D01*
X102887423Y-103834959D01*
X103170465Y-103595648D01*
X103432102Y-103320732D01*
X103584940Y-103131250D01*
X103747984Y-102904904D01*
X103903708Y-102666446D01*
X104049889Y-102420709D01*
X104184303Y-102172527D01*
X104245424Y-102047774D01*
X104630474Y-102047774D01*
X104642188Y-102081876D01*
X104660339Y-102108662D01*
X104709245Y-102154904D01*
X104771528Y-102195242D01*
X104777699Y-102198281D01*
X104838150Y-102225046D01*
X104925332Y-102261084D01*
X105032623Y-102303899D01*
X105153399Y-102350997D01*
X105281037Y-102399882D01*
X105408917Y-102448059D01*
X105530414Y-102493032D01*
X105638907Y-102532305D01*
X105727772Y-102563384D01*
X105790388Y-102583772D01*
X105819869Y-102590977D01*
X105867172Y-102573540D01*
X105891028Y-102546136D01*
X105921297Y-102477995D01*
X105957468Y-102378462D01*
X105996449Y-102257510D01*
X106035146Y-102125114D01*
X106070468Y-101991248D01*
X106093517Y-101893000D01*
X106120804Y-101736313D01*
X106141901Y-101550322D01*
X106156275Y-101347677D01*
X106163392Y-101141028D01*
X106162718Y-100943024D01*
X106153720Y-100766317D01*
X106144669Y-100680016D01*
X106115331Y-100500081D01*
X106074446Y-100309290D01*
X106026063Y-100124399D01*
X105974234Y-99962167D01*
X105965220Y-99937645D01*
X105914452Y-99813317D01*
X105855226Y-99685349D01*
X105791159Y-99559937D01*
X105725867Y-99443275D01*
X105662965Y-99341557D01*
X105606070Y-99260981D01*
X105558797Y-99207739D01*
X105527894Y-99188392D01*
X105499846Y-99204437D01*
X105461159Y-99261099D01*
X105422875Y-99335092D01*
X105375149Y-99429141D01*
X105321174Y-99527228D01*
X105273974Y-99605957D01*
X105210817Y-99714041D01*
X105166400Y-99816711D01*
X105137202Y-99926452D01*
X105119703Y-100055749D01*
X105111783Y-100181146D01*
X105108673Y-100322943D01*
X105114536Y-100431642D01*
X105131377Y-100515903D01*
X105161200Y-100584383D01*
X105206009Y-100645741D01*
X105223886Y-100665333D01*
X105302361Y-100759066D01*
X105342301Y-100835647D01*
X105343253Y-100896415D01*
X105304763Y-100942706D01*
X105226379Y-100975861D01*
X105111635Y-100996756D01*
X105037821Y-101009263D01*
X104982444Y-101031232D01*
X104940257Y-101069229D01*
X104906017Y-101129819D01*
X104874476Y-101219566D01*
X104843706Y-101332083D01*
X104810979Y-101450716D01*
X104772400Y-101577459D01*
X104733993Y-101692976D01*
X104715037Y-101744953D01*
X104671943Y-101860516D01*
X104644232Y-101944542D01*
X104630782Y-102004479D01*
X104630474Y-102047774D01*
X104245424Y-102047774D01*
X104304727Y-101926735D01*
X104408935Y-101688164D01*
G36*
X102161918Y-99403099D02*
G01*
X102219504Y-99311516D01*
X102279796Y-99250614D01*
X102352890Y-99196599D01*
X102425994Y-99169180D01*
X102515151Y-99163697D01*
X102566495Y-99167308D01*
X102680105Y-99196700D01*
X102770238Y-99257552D01*
X102834841Y-99344809D01*
X102871856Y-99453415D01*
X102879231Y-99578318D01*
X102854909Y-99714462D01*
X102823861Y-99800339D01*
X102757671Y-99908109D01*
X102667249Y-99981177D01*
X102552837Y-100019375D01*
X102505961Y-100024548D01*
X102392404Y-100020443D01*
X102319106Y-99997410D01*
X102237143Y-99933500D01*
X102172892Y-99840366D01*
X102130812Y-99728989D01*
X102115359Y-99610349D01*
X102123938Y-99527794D01*
X102357628Y-99527794D01*
X102358383Y-99587379D01*
X102381719Y-99646864D01*
X102422332Y-99693060D01*
X102474916Y-99712779D01*
X102477883Y-99712833D01*
X102518719Y-99698215D01*
X102563358Y-99662979D01*
X102564063Y-99662233D01*
X102600842Y-99601098D01*
X102604795Y-99540524D01*
X102597374Y-99495852D01*
X102578059Y-99474034D01*
X102534208Y-99465083D01*
X102506467Y-99462831D01*
X102442769Y-99464228D01*
X102394213Y-99475689D01*
X102384758Y-99481298D01*
X102357628Y-99527794D01*
X102123938Y-99527794D01*
X102124859Y-99518937D01*
X102161918Y-99403099D01*
G37*
X102161918Y-99403099D02*
X102219504Y-99311516D01*
X102279796Y-99250614D01*
X102352890Y-99196599D01*
X102425994Y-99169180D01*
X102515151Y-99163697D01*
X102566495Y-99167308D01*
X102680105Y-99196700D01*
X102770238Y-99257552D01*
X102834841Y-99344809D01*
X102871856Y-99453415D01*
X102879231Y-99578318D01*
X102854909Y-99714462D01*
X102823861Y-99800339D01*
X102757671Y-99908109D01*
X102667249Y-99981177D01*
X102552837Y-100019375D01*
X102505961Y-100024548D01*
X102392404Y-100020443D01*
X102319106Y-99997410D01*
X102237143Y-99933500D01*
X102172892Y-99840366D01*
X102130812Y-99728989D01*
X102115359Y-99610349D01*
X102123938Y-99527794D01*
X102357628Y-99527794D01*
X102358383Y-99587379D01*
X102381719Y-99646864D01*
X102422332Y-99693060D01*
X102474916Y-99712779D01*
X102477883Y-99712833D01*
X102518719Y-99698215D01*
X102563358Y-99662979D01*
X102564063Y-99662233D01*
X102600842Y-99601098D01*
X102604795Y-99540524D01*
X102597374Y-99495852D01*
X102578059Y-99474034D01*
X102534208Y-99465083D01*
X102506467Y-99462831D01*
X102442769Y-99464228D01*
X102394213Y-99475689D01*
X102384758Y-99481298D01*
X102357628Y-99527794D01*
X102123938Y-99527794D01*
X102124859Y-99518937D01*
X102161918Y-99403099D01*
G36*
X102654904Y-98039377D02*
G01*
X102677351Y-98089911D01*
X102681480Y-98152059D01*
X102663594Y-98256268D01*
X102616136Y-98376295D01*
X102544938Y-98504754D01*
X102455828Y-98634259D01*
X102354636Y-98757424D01*
X102247192Y-98866862D01*
X102139326Y-98955187D01*
X102036866Y-99015012D01*
X101986414Y-99032723D01*
X101919911Y-99057727D01*
X101865637Y-99091932D01*
X101855756Y-99101528D01*
X101775462Y-99174853D01*
X101686239Y-99228370D01*
X101596258Y-99259979D01*
X101513693Y-99267581D01*
X101446716Y-99249079D01*
X101410933Y-99215757D01*
X101392508Y-99182826D01*
X101390314Y-99153439D01*
X101406542Y-99113535D01*
X101434584Y-99064041D01*
X101482323Y-98996646D01*
X101556564Y-98909348D01*
X101651921Y-98807118D01*
X101763006Y-98694926D01*
X101884434Y-98577741D01*
X102010819Y-98460534D01*
X102136773Y-98348276D01*
X102256912Y-98245936D01*
X102365848Y-98158485D01*
X102458195Y-98090892D01*
X102528568Y-98048129D01*
X102542454Y-98041751D01*
X102610781Y-98023992D01*
X102654904Y-98039377D01*
G37*
X102654904Y-98039377D02*
X102677351Y-98089911D01*
X102681480Y-98152059D01*
X102663594Y-98256268D01*
X102616136Y-98376295D01*
X102544938Y-98504754D01*
X102455828Y-98634259D01*
X102354636Y-98757424D01*
X102247192Y-98866862D01*
X102139326Y-98955187D01*
X102036866Y-99015012D01*
X101986414Y-99032723D01*
X101919911Y-99057727D01*
X101865637Y-99091932D01*
X101855756Y-99101528D01*
X101775462Y-99174853D01*
X101686239Y-99228370D01*
X101596258Y-99259979D01*
X101513693Y-99267581D01*
X101446716Y-99249079D01*
X101410933Y-99215757D01*
X101392508Y-99182826D01*
X101390314Y-99153439D01*
X101406542Y-99113535D01*
X101434584Y-99064041D01*
X101482323Y-98996646D01*
X101556564Y-98909348D01*
X101651921Y-98807118D01*
X101763006Y-98694926D01*
X101884434Y-98577741D01*
X102010819Y-98460534D01*
X102136773Y-98348276D01*
X102256912Y-98245936D01*
X102365848Y-98158485D01*
X102458195Y-98090892D01*
X102528568Y-98048129D01*
X102542454Y-98041751D01*
X102610781Y-98023992D01*
X102654904Y-98039377D01*
G36*
X98531742Y-98681136D02*
G01*
X98611417Y-98696348D01*
X98720361Y-98719950D01*
X98852797Y-98750524D01*
X99002951Y-98786654D01*
X99165049Y-98826920D01*
X99333315Y-98869905D01*
X99501974Y-98914190D01*
X99665252Y-98958358D01*
X99817374Y-99000989D01*
X99850702Y-99010581D01*
X100008492Y-99057866D01*
X100130291Y-99098779D01*
X100221446Y-99136073D01*
X100287303Y-99172499D01*
X100333211Y-99210809D01*
X100364516Y-99253756D01*
X100378168Y-99282063D01*
X100396167Y-99338591D01*
X100391825Y-99386834D01*
X100378009Y-99424317D01*
X100333210Y-99501419D01*
X100273484Y-99544869D01*
X100191695Y-99558021D01*
X100110906Y-99549906D01*
X100055220Y-99538329D01*
X99966050Y-99517294D01*
X99850688Y-99488723D01*
X99716423Y-99454539D01*
X99570548Y-99416663D01*
X99420354Y-99377017D01*
X99273132Y-99337524D01*
X99136172Y-99300106D01*
X99016767Y-99266684D01*
X98922206Y-99239181D01*
X98867500Y-99222122D01*
X98741987Y-99174379D01*
X98625033Y-99118600D01*
X98524178Y-99059349D01*
X98446961Y-99001189D01*
X98400923Y-98948683D01*
X98394811Y-98936056D01*
X98373273Y-98844986D01*
X98379073Y-98766671D01*
X98409547Y-98708629D01*
X98462027Y-98678379D01*
X98487109Y-98675734D01*
X98531742Y-98681136D01*
G37*
X98531742Y-98681136D02*
X98611417Y-98696348D01*
X98720361Y-98719950D01*
X98852797Y-98750524D01*
X99002951Y-98786654D01*
X99165049Y-98826920D01*
X99333315Y-98869905D01*
X99501974Y-98914190D01*
X99665252Y-98958358D01*
X99817374Y-99000989D01*
X99850702Y-99010581D01*
X100008492Y-99057866D01*
X100130291Y-99098779D01*
X100221446Y-99136073D01*
X100287303Y-99172499D01*
X100333211Y-99210809D01*
X100364516Y-99253756D01*
X100378168Y-99282063D01*
X100396167Y-99338591D01*
X100391825Y-99386834D01*
X100378009Y-99424317D01*
X100333210Y-99501419D01*
X100273484Y-99544869D01*
X100191695Y-99558021D01*
X100110906Y-99549906D01*
X100055220Y-99538329D01*
X99966050Y-99517294D01*
X99850688Y-99488723D01*
X99716423Y-99454539D01*
X99570548Y-99416663D01*
X99420354Y-99377017D01*
X99273132Y-99337524D01*
X99136172Y-99300106D01*
X99016767Y-99266684D01*
X98922206Y-99239181D01*
X98867500Y-99222122D01*
X98741987Y-99174379D01*
X98625033Y-99118600D01*
X98524178Y-99059349D01*
X98446961Y-99001189D01*
X98400923Y-98948683D01*
X98394811Y-98936056D01*
X98373273Y-98844986D01*
X98379073Y-98766671D01*
X98409547Y-98708629D01*
X98462027Y-98678379D01*
X98487109Y-98675734D01*
X98531742Y-98681136D01*
G36*
X97435556Y-88606757D02*
G01*
X97493167Y-88627375D01*
X97572551Y-88667832D01*
X97679808Y-88730367D01*
X97690851Y-88737042D01*
X97775289Y-88785656D01*
X97850615Y-88824438D01*
X97907088Y-88848627D01*
X97930729Y-88854333D01*
X97980086Y-88841522D01*
X98030797Y-88812000D01*
X98094182Y-88780203D01*
X98165763Y-88770599D01*
X98233846Y-88781155D01*
X98286737Y-88809839D01*
X98312744Y-88854617D01*
X98313514Y-88861137D01*
X98315097Y-88895046D01*
X98317275Y-88955678D01*
X98318806Y-89004323D01*
X98326406Y-89075202D01*
X98346880Y-89142708D01*
X98383308Y-89209901D01*
X98438768Y-89279841D01*
X98516338Y-89355587D01*
X98619098Y-89440200D01*
X98750125Y-89536740D01*
X98912498Y-89648267D01*
X99073739Y-89754708D01*
X99203386Y-89840981D01*
X99354391Y-89944299D01*
X99514437Y-90056059D01*
X99671203Y-90167654D01*
X99812370Y-90270483D01*
X99814573Y-90272112D01*
X100026143Y-90426897D01*
X100222717Y-90567243D01*
X100401597Y-90691372D01*
X100560087Y-90797504D01*
X100695490Y-90883863D01*
X100805109Y-90948670D01*
X100886248Y-90990146D01*
X100925338Y-91004520D01*
X100966782Y-91026707D01*
X100978726Y-91072544D01*
X100978739Y-91074894D01*
X100965991Y-91137149D01*
X100924824Y-91171846D01*
X100850849Y-91182666D01*
X100850350Y-91182667D01*
X100772168Y-91169064D01*
X100669028Y-91127834D01*
X100539751Y-91058340D01*
X100383156Y-90959949D01*
X100198065Y-90832026D01*
X100195573Y-90830242D01*
X100089172Y-90754537D01*
X99958321Y-90662184D01*
X99813459Y-90560507D01*
X99665026Y-90456831D01*
X99523463Y-90358480D01*
X99497073Y-90340217D01*
X99350827Y-90238642D01*
X99188880Y-90125417D01*
X99023659Y-90009280D01*
X98867592Y-89898967D01*
X98733108Y-89803218D01*
X98724489Y-89797047D01*
X98577289Y-89691901D01*
X98460511Y-89609425D01*
X98370376Y-89547348D01*
X98303101Y-89503396D01*
X98254904Y-89475299D01*
X98222004Y-89460783D01*
X98200620Y-89457576D01*
X98186969Y-89463407D01*
X98180845Y-89470401D01*
X98149534Y-89523205D01*
X98105508Y-89609020D01*
X98051548Y-89721462D01*
X97990435Y-89854147D01*
X97924950Y-90000691D01*
X97857874Y-90154711D01*
X97791988Y-90309821D01*
X97730071Y-90459638D01*
X97674906Y-90597777D01*
X97629274Y-90717855D01*
X97596354Y-90812250D01*
X97566041Y-90898551D01*
X97522881Y-91011645D01*
X97471537Y-91139784D01*
X97416670Y-91271218D01*
X97386347Y-91341417D01*
X97335498Y-91458837D01*
X97288864Y-91568969D01*
X97249936Y-91663387D01*
X97222201Y-91733667D01*
X97211070Y-91764750D01*
X97166750Y-91876948D01*
X97108014Y-91986628D01*
X97039418Y-92088951D01*
X96965519Y-92179080D01*
X96890875Y-92252176D01*
X96820041Y-92303403D01*
X96757576Y-92327921D01*
X96708035Y-92320893D01*
X96696017Y-92311555D01*
X96683158Y-92279811D01*
X96681906Y-92265398D01*
X96689381Y-92235379D01*
X96710757Y-92170128D01*
X96744463Y-92073815D01*
X96788925Y-91950612D01*
X96842573Y-91804689D01*
X96903834Y-91640219D01*
X96971135Y-91461372D01*
X97042906Y-91272319D01*
X97117572Y-91077232D01*
X97193563Y-90880283D01*
X97269306Y-90685641D01*
X97343229Y-90497479D01*
X97413760Y-90319968D01*
X97436851Y-90262376D01*
X97527730Y-90034446D01*
X97602731Y-89841976D01*
X97662982Y-89681661D01*
X97709614Y-89550195D01*
X97743756Y-89444272D01*
X97766538Y-89360587D01*
X97779090Y-89295833D01*
X97782573Y-89250582D01*
X97769597Y-89173874D01*
X97727752Y-89101074D01*
X97652663Y-89026092D01*
X97582724Y-88972420D01*
X97477184Y-88888652D01*
X97398460Y-88808525D01*
X97348926Y-88735860D01*
X97330958Y-88674476D01*
X97346928Y-88628193D01*
X97361255Y-88616086D01*
X97393618Y-88603740D01*
X97435556Y-88606757D01*
G37*
X97435556Y-88606757D02*
X97493167Y-88627375D01*
X97572551Y-88667832D01*
X97679808Y-88730367D01*
X97690851Y-88737042D01*
X97775289Y-88785656D01*
X97850615Y-88824438D01*
X97907088Y-88848627D01*
X97930729Y-88854333D01*
X97980086Y-88841522D01*
X98030797Y-88812000D01*
X98094182Y-88780203D01*
X98165763Y-88770599D01*
X98233846Y-88781155D01*
X98286737Y-88809839D01*
X98312744Y-88854617D01*
X98313514Y-88861137D01*
X98315097Y-88895046D01*
X98317275Y-88955678D01*
X98318806Y-89004323D01*
X98326406Y-89075202D01*
X98346880Y-89142708D01*
X98383308Y-89209901D01*
X98438768Y-89279841D01*
X98516338Y-89355587D01*
X98619098Y-89440200D01*
X98750125Y-89536740D01*
X98912498Y-89648267D01*
X99073739Y-89754708D01*
X99203386Y-89840981D01*
X99354391Y-89944299D01*
X99514437Y-90056059D01*
X99671203Y-90167654D01*
X99812370Y-90270483D01*
X99814573Y-90272112D01*
X100026143Y-90426897D01*
X100222717Y-90567243D01*
X100401597Y-90691372D01*
X100560087Y-90797504D01*
X100695490Y-90883863D01*
X100805109Y-90948670D01*
X100886248Y-90990146D01*
X100925338Y-91004520D01*
X100966782Y-91026707D01*
X100978726Y-91072544D01*
X100978739Y-91074894D01*
X100965991Y-91137149D01*
X100924824Y-91171846D01*
X100850849Y-91182666D01*
X100850350Y-91182667D01*
X100772168Y-91169064D01*
X100669028Y-91127834D01*
X100539751Y-91058340D01*
X100383156Y-90959949D01*
X100198065Y-90832026D01*
X100195573Y-90830242D01*
X100089172Y-90754537D01*
X99958321Y-90662184D01*
X99813459Y-90560507D01*
X99665026Y-90456831D01*
X99523463Y-90358480D01*
X99497073Y-90340217D01*
X99350827Y-90238642D01*
X99188880Y-90125417D01*
X99023659Y-90009280D01*
X98867592Y-89898967D01*
X98733108Y-89803218D01*
X98724489Y-89797047D01*
X98577289Y-89691901D01*
X98460511Y-89609425D01*
X98370376Y-89547348D01*
X98303101Y-89503396D01*
X98254904Y-89475299D01*
X98222004Y-89460783D01*
X98200620Y-89457576D01*
X98186969Y-89463407D01*
X98180845Y-89470401D01*
X98149534Y-89523205D01*
X98105508Y-89609020D01*
X98051548Y-89721462D01*
X97990435Y-89854147D01*
X97924950Y-90000691D01*
X97857874Y-90154711D01*
X97791988Y-90309821D01*
X97730071Y-90459638D01*
X97674906Y-90597777D01*
X97629274Y-90717855D01*
X97596354Y-90812250D01*
X97566041Y-90898551D01*
X97522881Y-91011645D01*
X97471537Y-91139784D01*
X97416670Y-91271218D01*
X97386347Y-91341417D01*
X97335498Y-91458837D01*
X97288864Y-91568969D01*
X97249936Y-91663387D01*
X97222201Y-91733667D01*
X97211070Y-91764750D01*
X97166750Y-91876948D01*
X97108014Y-91986628D01*
X97039418Y-92088951D01*
X96965519Y-92179080D01*
X96890875Y-92252176D01*
X96820041Y-92303403D01*
X96757576Y-92327921D01*
X96708035Y-92320893D01*
X96696017Y-92311555D01*
X96683158Y-92279811D01*
X96681906Y-92265398D01*
X96689381Y-92235379D01*
X96710757Y-92170128D01*
X96744463Y-92073815D01*
X96788925Y-91950612D01*
X96842573Y-91804689D01*
X96903834Y-91640219D01*
X96971135Y-91461372D01*
X97042906Y-91272319D01*
X97117572Y-91077232D01*
X97193563Y-90880283D01*
X97269306Y-90685641D01*
X97343229Y-90497479D01*
X97413760Y-90319968D01*
X97436851Y-90262376D01*
X97527730Y-90034446D01*
X97602731Y-89841976D01*
X97662982Y-89681661D01*
X97709614Y-89550195D01*
X97743756Y-89444272D01*
X97766538Y-89360587D01*
X97779090Y-89295833D01*
X97782573Y-89250582D01*
X97769597Y-89173874D01*
X97727752Y-89101074D01*
X97652663Y-89026092D01*
X97582724Y-88972420D01*
X97477184Y-88888652D01*
X97398460Y-88808525D01*
X97348926Y-88735860D01*
X97330958Y-88674476D01*
X97346928Y-88628193D01*
X97361255Y-88616086D01*
X97393618Y-88603740D01*
X97435556Y-88606757D01*
G36*
X97351436Y-102099995D02*
G01*
X97319917Y-102027213D01*
X97307358Y-101928246D01*
X97306323Y-101875586D01*
X97313681Y-101746944D01*
X97334799Y-101651395D01*
X97368244Y-101590782D01*
X97412580Y-101566949D01*
X97466373Y-101581738D01*
X97508551Y-101615722D01*
X97553665Y-101676763D01*
X97587335Y-101749504D01*
X97590428Y-101759892D01*
X97616638Y-101830304D01*
X97651312Y-101892888D01*
X97657181Y-101900820D01*
X97710071Y-101942242D01*
X97784379Y-101956172D01*
X97883766Y-101942640D01*
X98006519Y-101903711D01*
X98094024Y-101874317D01*
X98215488Y-101838569D01*
X98363341Y-101798333D01*
X98530014Y-101755476D01*
X98707937Y-101711863D01*
X98889542Y-101669361D01*
X99067258Y-101629834D01*
X99233517Y-101595149D01*
X99347158Y-101573247D01*
X99487080Y-101546386D01*
X99634383Y-101516225D01*
X99774571Y-101485851D01*
X99893149Y-101458349D01*
X99915689Y-101452735D01*
X102569590Y-101452735D01*
X102636706Y-101510581D01*
X102760782Y-101614711D01*
X102860000Y-101691936D01*
X102932940Y-101741235D01*
X102978178Y-101761587D01*
X102986488Y-101761835D01*
X103012744Y-101740840D01*
X103048984Y-101691660D01*
X103087659Y-101624641D01*
X103090114Y-101619841D01*
X103135104Y-101521543D01*
X103154803Y-101450089D01*
X103149759Y-101398790D01*
X103120520Y-101360957D01*
X103111863Y-101354450D01*
X103072821Y-101333092D01*
X103028544Y-101324430D01*
X102970759Y-101329247D01*
X102891193Y-101348329D01*
X102781574Y-101382460D01*
X102767475Y-101387117D01*
X102569590Y-101452735D01*
X99915689Y-101452735D01*
X99930196Y-101449122D01*
X100086269Y-101412239D01*
X100276642Y-101372259D01*
X100493509Y-101330468D01*
X100729063Y-101288155D01*
X100975500Y-101246607D01*
X101225012Y-101207112D01*
X101469795Y-101170957D01*
X101702042Y-101139429D01*
X101913947Y-101113815D01*
X102046772Y-101100022D01*
X102392843Y-101060737D01*
X102697713Y-101012488D01*
X102961334Y-100955283D01*
X103183658Y-100889134D01*
X103323606Y-100833507D01*
X103435555Y-100777397D01*
X103511731Y-100724544D01*
X103557690Y-100669033D01*
X103578985Y-100604950D01*
X103582239Y-100558131D01*
X103589523Y-100476617D01*
X103613521Y-100432619D01*
X103657448Y-100423531D01*
X103721466Y-100445282D01*
X103792652Y-100489338D01*
X103877890Y-100557254D01*
X103966175Y-100638766D01*
X104046505Y-100723610D01*
X104107876Y-100801523D01*
X104115004Y-100812352D01*
X104162598Y-100913699D01*
X104176543Y-101010472D01*
X104156657Y-101095074D01*
X104122951Y-101142545D01*
X104080296Y-101177962D01*
X104045899Y-101194719D01*
X104043576Y-101194913D01*
X103983263Y-101199240D01*
X103897628Y-101209640D01*
X103798152Y-101224225D01*
X103696314Y-101241106D01*
X103603597Y-101258394D01*
X103531479Y-101274201D01*
X103494503Y-101285246D01*
X103451275Y-101308725D01*
X103421514Y-101343168D01*
X103396381Y-101400906D01*
X103383494Y-101440104D01*
X103356593Y-101519468D01*
X103318409Y-101623653D01*
X103273017Y-101742376D01*
X103224492Y-101865354D01*
X103176908Y-101982305D01*
X103134341Y-102082945D01*
X103100864Y-102156991D01*
X103093500Y-102171902D01*
X103062843Y-102223855D01*
X103035901Y-102244026D01*
X103004451Y-102241204D01*
X102938439Y-102212626D01*
X102847365Y-102160439D01*
X102737734Y-102089242D01*
X102616051Y-102003633D01*
X102488820Y-101908211D01*
X102362546Y-101807575D01*
X102243735Y-101706323D01*
X102227926Y-101692233D01*
X102155335Y-101630678D01*
X102088233Y-101579997D01*
X102036525Y-101547399D01*
X102018464Y-101539844D01*
X102002495Y-101537062D01*
X101980513Y-101536064D01*
X101949327Y-101537315D01*
X101905745Y-101541279D01*
X101846575Y-101548418D01*
X101768625Y-101559197D01*
X101668706Y-101574079D01*
X101543624Y-101593529D01*
X101390188Y-101618009D01*
X101205207Y-101647983D01*
X100985489Y-101683916D01*
X100727843Y-101726271D01*
X100671823Y-101735497D01*
X100400517Y-101781040D01*
X100167605Y-101822595D01*
X99969508Y-101861700D01*
X99802650Y-101899895D01*
X99663453Y-101938721D01*
X99548339Y-101979716D01*
X99453732Y-102024421D01*
X99376053Y-102074375D01*
X99311725Y-102131118D01*
X99257171Y-102196188D01*
X99208813Y-102271127D01*
X99163074Y-102357473D01*
X99146393Y-102391998D01*
X99061880Y-102543961D01*
X98970277Y-102660204D01*
X98873637Y-102738806D01*
X98774015Y-102777848D01*
X98729325Y-102782000D01*
X98683259Y-102772736D01*
X98617502Y-102748913D01*
X98570389Y-102727436D01*
X98475272Y-102664725D01*
X98364150Y-102563553D01*
X98301217Y-102496991D01*
X98231029Y-102423318D01*
X98165032Y-102360468D01*
X98111607Y-102316070D01*
X98083765Y-102299044D01*
X98038101Y-102288729D01*
X97962493Y-102279009D01*
X97869326Y-102271284D01*
X97811279Y-102268235D01*
X97699789Y-102261653D01*
X97618011Y-102250956D01*
X97553360Y-102233770D01*
X97494879Y-102208537D01*
X97433552Y-102172225D01*
X98506786Y-102172225D01*
X98518704Y-102199074D01*
X98554944Y-102245152D01*
X98607410Y-102302466D01*
X98668003Y-102363022D01*
X98728626Y-102418826D01*
X98781182Y-102461886D01*
X98817573Y-102484208D01*
X98824304Y-102485667D01*
X98857421Y-102471267D01*
X98900666Y-102435787D01*
X98908791Y-102427458D01*
X98951871Y-102371532D01*
X98997235Y-102296855D01*
X99039141Y-102215173D01*
X99071846Y-102138227D01*
X99089606Y-102077761D01*
X99090846Y-102055205D01*
X99067676Y-102015262D01*
X99030959Y-102003186D01*
X98986175Y-102006446D01*
X98916423Y-102020978D01*
X98831224Y-102043714D01*
X98740096Y-102071582D01*
X98652560Y-102101514D01*
X98578134Y-102130440D01*
X98526340Y-102155289D01*
X98506786Y-102172225D01*
X97433552Y-102172225D01*
X97407797Y-102156976D01*
X97351436Y-102099995D01*
G37*
X97351436Y-102099995D02*
X97319917Y-102027213D01*
X97307358Y-101928246D01*
X97306323Y-101875586D01*
X97313681Y-101746944D01*
X97334799Y-101651395D01*
X97368244Y-101590782D01*
X97412580Y-101566949D01*
X97466373Y-101581738D01*
X97508551Y-101615722D01*
X97553665Y-101676763D01*
X97587335Y-101749504D01*
X97590428Y-101759892D01*
X97616638Y-101830304D01*
X97651312Y-101892888D01*
X97657181Y-101900820D01*
X97710071Y-101942242D01*
X97784379Y-101956172D01*
X97883766Y-101942640D01*
X98006519Y-101903711D01*
X98094024Y-101874317D01*
X98215488Y-101838569D01*
X98363341Y-101798333D01*
X98530014Y-101755476D01*
X98707937Y-101711863D01*
X98889542Y-101669361D01*
X99067258Y-101629834D01*
X99233517Y-101595149D01*
X99347158Y-101573247D01*
X99487080Y-101546386D01*
X99634383Y-101516225D01*
X99774571Y-101485851D01*
X99893149Y-101458349D01*
X99915689Y-101452735D01*
X102569590Y-101452735D01*
X102636706Y-101510581D01*
X102760782Y-101614711D01*
X102860000Y-101691936D01*
X102932940Y-101741235D01*
X102978178Y-101761587D01*
X102986488Y-101761835D01*
X103012744Y-101740840D01*
X103048984Y-101691660D01*
X103087659Y-101624641D01*
X103090114Y-101619841D01*
X103135104Y-101521543D01*
X103154803Y-101450089D01*
X103149759Y-101398790D01*
X103120520Y-101360957D01*
X103111863Y-101354450D01*
X103072821Y-101333092D01*
X103028544Y-101324430D01*
X102970759Y-101329247D01*
X102891193Y-101348329D01*
X102781574Y-101382460D01*
X102767475Y-101387117D01*
X102569590Y-101452735D01*
X99915689Y-101452735D01*
X99930196Y-101449122D01*
X100086269Y-101412239D01*
X100276642Y-101372259D01*
X100493509Y-101330468D01*
X100729063Y-101288155D01*
X100975500Y-101246607D01*
X101225012Y-101207112D01*
X101469795Y-101170957D01*
X101702042Y-101139429D01*
X101913947Y-101113815D01*
X102046772Y-101100022D01*
X102392843Y-101060737D01*
X102697713Y-101012488D01*
X102961334Y-100955283D01*
X103183658Y-100889134D01*
X103323606Y-100833507D01*
X103435555Y-100777397D01*
X103511731Y-100724544D01*
X103557690Y-100669033D01*
X103578985Y-100604950D01*
X103582239Y-100558131D01*
X103589523Y-100476617D01*
X103613521Y-100432619D01*
X103657448Y-100423531D01*
X103721466Y-100445282D01*
X103792652Y-100489338D01*
X103877890Y-100557254D01*
X103966175Y-100638766D01*
X104046505Y-100723610D01*
X104107876Y-100801523D01*
X104115004Y-100812352D01*
X104162598Y-100913699D01*
X104176543Y-101010472D01*
X104156657Y-101095074D01*
X104122951Y-101142545D01*
X104080296Y-101177962D01*
X104045899Y-101194719D01*
X104043576Y-101194913D01*
X103983263Y-101199240D01*
X103897628Y-101209640D01*
X103798152Y-101224225D01*
X103696314Y-101241106D01*
X103603597Y-101258394D01*
X103531479Y-101274201D01*
X103494503Y-101285246D01*
X103451275Y-101308725D01*
X103421514Y-101343168D01*
X103396381Y-101400906D01*
X103383494Y-101440104D01*
X103356593Y-101519468D01*
X103318409Y-101623653D01*
X103273017Y-101742376D01*
X103224492Y-101865354D01*
X103176908Y-101982305D01*
X103134341Y-102082945D01*
X103100864Y-102156991D01*
X103093500Y-102171902D01*
X103062843Y-102223855D01*
X103035901Y-102244026D01*
X103004451Y-102241204D01*
X102938439Y-102212626D01*
X102847365Y-102160439D01*
X102737734Y-102089242D01*
X102616051Y-102003633D01*
X102488820Y-101908211D01*
X102362546Y-101807575D01*
X102243735Y-101706323D01*
X102227926Y-101692233D01*
X102155335Y-101630678D01*
X102088233Y-101579997D01*
X102036525Y-101547399D01*
X102018464Y-101539844D01*
X102002495Y-101537062D01*
X101980513Y-101536064D01*
X101949327Y-101537315D01*
X101905745Y-101541279D01*
X101846575Y-101548418D01*
X101768625Y-101559197D01*
X101668706Y-101574079D01*
X101543624Y-101593529D01*
X101390188Y-101618009D01*
X101205207Y-101647983D01*
X100985489Y-101683916D01*
X100727843Y-101726271D01*
X100671823Y-101735497D01*
X100400517Y-101781040D01*
X100167605Y-101822595D01*
X99969508Y-101861700D01*
X99802650Y-101899895D01*
X99663453Y-101938721D01*
X99548339Y-101979716D01*
X99453732Y-102024421D01*
X99376053Y-102074375D01*
X99311725Y-102131118D01*
X99257171Y-102196188D01*
X99208813Y-102271127D01*
X99163074Y-102357473D01*
X99146393Y-102391998D01*
X99061880Y-102543961D01*
X98970277Y-102660204D01*
X98873637Y-102738806D01*
X98774015Y-102777848D01*
X98729325Y-102782000D01*
X98683259Y-102772736D01*
X98617502Y-102748913D01*
X98570389Y-102727436D01*
X98475272Y-102664725D01*
X98364150Y-102563553D01*
X98301217Y-102496991D01*
X98231029Y-102423318D01*
X98165032Y-102360468D01*
X98111607Y-102316070D01*
X98083765Y-102299044D01*
X98038101Y-102288729D01*
X97962493Y-102279009D01*
X97869326Y-102271284D01*
X97811279Y-102268235D01*
X97699789Y-102261653D01*
X97618011Y-102250956D01*
X97553360Y-102233770D01*
X97494879Y-102208537D01*
X97433552Y-102172225D01*
X98506786Y-102172225D01*
X98518704Y-102199074D01*
X98554944Y-102245152D01*
X98607410Y-102302466D01*
X98668003Y-102363022D01*
X98728626Y-102418826D01*
X98781182Y-102461886D01*
X98817573Y-102484208D01*
X98824304Y-102485667D01*
X98857421Y-102471267D01*
X98900666Y-102435787D01*
X98908791Y-102427458D01*
X98951871Y-102371532D01*
X98997235Y-102296855D01*
X99039141Y-102215173D01*
X99071846Y-102138227D01*
X99089606Y-102077761D01*
X99090846Y-102055205D01*
X99067676Y-102015262D01*
X99030959Y-102003186D01*
X98986175Y-102006446D01*
X98916423Y-102020978D01*
X98831224Y-102043714D01*
X98740096Y-102071582D01*
X98652560Y-102101514D01*
X98578134Y-102130440D01*
X98526340Y-102155289D01*
X98506786Y-102172225D01*
X97433552Y-102172225D01*
X97407797Y-102156976D01*
X97351436Y-102099995D01*
G36*
X96988767Y-92520309D02*
G01*
X97038127Y-92538326D01*
X97087118Y-92578603D01*
X97096773Y-92588133D01*
X97147741Y-92647486D01*
X97165831Y-92698418D01*
X97153854Y-92755272D01*
X97136709Y-92791874D01*
X97103790Y-92835306D01*
X97050781Y-92866019D01*
X96993834Y-92884731D01*
X96846631Y-92920310D01*
X96666309Y-92953979D01*
X96450752Y-92986039D01*
X96197844Y-93016795D01*
X95905466Y-93046550D01*
X95792906Y-93056830D01*
X95638854Y-93071067D01*
X95500184Y-93085319D01*
X95369623Y-93100693D01*
X95239901Y-93118295D01*
X95103748Y-93139231D01*
X94953893Y-93164607D01*
X94783064Y-93195530D01*
X94583991Y-93233106D01*
X94395906Y-93269401D01*
X94154200Y-93316387D01*
X93950753Y-93356223D01*
X93782271Y-93389832D01*
X93645455Y-93418138D01*
X93537010Y-93442062D01*
X93453639Y-93462528D01*
X93392046Y-93480457D01*
X93348933Y-93496774D01*
X93321005Y-93512399D01*
X93304965Y-93528257D01*
X93297516Y-93545269D01*
X93295362Y-93564358D01*
X93295239Y-93577463D01*
X93304393Y-93606838D01*
X93330325Y-93669042D01*
X93370743Y-93759111D01*
X93423353Y-93872078D01*
X93485861Y-94002979D01*
X93555975Y-94146850D01*
X93590770Y-94217267D01*
X93696012Y-94430976D01*
X93800915Y-94647087D01*
X93903110Y-94860514D01*
X94000229Y-95066169D01*
X94089904Y-95258965D01*
X94169767Y-95433815D01*
X94237451Y-95585633D01*
X94290587Y-95709331D01*
X94324112Y-95792671D01*
X94361600Y-95919684D01*
X94373568Y-96032004D01*
X94359425Y-96121759D01*
X94350404Y-96142350D01*
X94310144Y-96198655D01*
X94262649Y-96216924D01*
X94196744Y-96201270D01*
X94193665Y-96200036D01*
X94154482Y-96174129D01*
X94104035Y-96128193D01*
X94078481Y-96100836D01*
X94043510Y-96051324D01*
X93994773Y-95968471D01*
X93934945Y-95857945D01*
X93866698Y-95725417D01*
X93792705Y-95576557D01*
X93715640Y-95417034D01*
X93638174Y-95252518D01*
X93562982Y-95088679D01*
X93492736Y-94931187D01*
X93430110Y-94785712D01*
X93377775Y-94657923D01*
X93338406Y-94553490D01*
X93316223Y-94483988D01*
X93299787Y-94435739D01*
X93268886Y-94356627D01*
X93226675Y-94254284D01*
X93176310Y-94136339D01*
X93120946Y-94010422D01*
X93113693Y-93994195D01*
X93026631Y-93795409D01*
X92958775Y-93630134D01*
X92908961Y-93494772D01*
X92876023Y-93385725D01*
X92858795Y-93299394D01*
X92856113Y-93232182D01*
X92859144Y-93208252D01*
X92873160Y-93159458D01*
X92898606Y-93124610D01*
X92942606Y-93100305D01*
X93012282Y-93083138D01*
X93114757Y-93069704D01*
X93157994Y-93065415D01*
X93273823Y-93051583D01*
X93406687Y-93031380D01*
X93532518Y-93008560D01*
X93563516Y-93002148D01*
X93717074Y-92970586D01*
X93879579Y-92939996D01*
X94054948Y-92909815D01*
X94247098Y-92879483D01*
X94459944Y-92848438D01*
X94697405Y-92816118D01*
X94963396Y-92781964D01*
X95261833Y-92745413D01*
X95596634Y-92705904D01*
X95771739Y-92685685D01*
X96033131Y-92654785D01*
X96253524Y-92626751D01*
X96434142Y-92601401D01*
X96576210Y-92578548D01*
X96680951Y-92558007D01*
X96749589Y-92539593D01*
X96757983Y-92536575D01*
X96811379Y-92524371D01*
X96884407Y-92517078D01*
X96918234Y-92516167D01*
X96988767Y-92520309D01*
G37*
X96988767Y-92520309D02*
X97038127Y-92538326D01*
X97087118Y-92578603D01*
X97096773Y-92588133D01*
X97147741Y-92647486D01*
X97165831Y-92698418D01*
X97153854Y-92755272D01*
X97136709Y-92791874D01*
X97103790Y-92835306D01*
X97050781Y-92866019D01*
X96993834Y-92884731D01*
X96846631Y-92920310D01*
X96666309Y-92953979D01*
X96450752Y-92986039D01*
X96197844Y-93016795D01*
X95905466Y-93046550D01*
X95792906Y-93056830D01*
X95638854Y-93071067D01*
X95500184Y-93085319D01*
X95369623Y-93100693D01*
X95239901Y-93118295D01*
X95103748Y-93139231D01*
X94953893Y-93164607D01*
X94783064Y-93195530D01*
X94583991Y-93233106D01*
X94395906Y-93269401D01*
X94154200Y-93316387D01*
X93950753Y-93356223D01*
X93782271Y-93389832D01*
X93645455Y-93418138D01*
X93537010Y-93442062D01*
X93453639Y-93462528D01*
X93392046Y-93480457D01*
X93348933Y-93496774D01*
X93321005Y-93512399D01*
X93304965Y-93528257D01*
X93297516Y-93545269D01*
X93295362Y-93564358D01*
X93295239Y-93577463D01*
X93304393Y-93606838D01*
X93330325Y-93669042D01*
X93370743Y-93759111D01*
X93423353Y-93872078D01*
X93485861Y-94002979D01*
X93555975Y-94146850D01*
X93590770Y-94217267D01*
X93696012Y-94430976D01*
X93800915Y-94647087D01*
X93903110Y-94860514D01*
X94000229Y-95066169D01*
X94089904Y-95258965D01*
X94169767Y-95433815D01*
X94237451Y-95585633D01*
X94290587Y-95709331D01*
X94324112Y-95792671D01*
X94361600Y-95919684D01*
X94373568Y-96032004D01*
X94359425Y-96121759D01*
X94350404Y-96142350D01*
X94310144Y-96198655D01*
X94262649Y-96216924D01*
X94196744Y-96201270D01*
X94193665Y-96200036D01*
X94154482Y-96174129D01*
X94104035Y-96128193D01*
X94078481Y-96100836D01*
X94043510Y-96051324D01*
X93994773Y-95968471D01*
X93934945Y-95857945D01*
X93866698Y-95725417D01*
X93792705Y-95576557D01*
X93715640Y-95417034D01*
X93638174Y-95252518D01*
X93562982Y-95088679D01*
X93492736Y-94931187D01*
X93430110Y-94785712D01*
X93377775Y-94657923D01*
X93338406Y-94553490D01*
X93316223Y-94483988D01*
X93299787Y-94435739D01*
X93268886Y-94356627D01*
X93226675Y-94254284D01*
X93176310Y-94136339D01*
X93120946Y-94010422D01*
X93113693Y-93994195D01*
X93026631Y-93795409D01*
X92958775Y-93630134D01*
X92908961Y-93494772D01*
X92876023Y-93385725D01*
X92858795Y-93299394D01*
X92856113Y-93232182D01*
X92859144Y-93208252D01*
X92873160Y-93159458D01*
X92898606Y-93124610D01*
X92942606Y-93100305D01*
X93012282Y-93083138D01*
X93114757Y-93069704D01*
X93157994Y-93065415D01*
X93273823Y-93051583D01*
X93406687Y-93031380D01*
X93532518Y-93008560D01*
X93563516Y-93002148D01*
X93717074Y-92970586D01*
X93879579Y-92939996D01*
X94054948Y-92909815D01*
X94247098Y-92879483D01*
X94459944Y-92848438D01*
X94697405Y-92816118D01*
X94963396Y-92781964D01*
X95261833Y-92745413D01*
X95596634Y-92705904D01*
X95771739Y-92685685D01*
X96033131Y-92654785D01*
X96253524Y-92626751D01*
X96434142Y-92601401D01*
X96576210Y-92578548D01*
X96680951Y-92558007D01*
X96749589Y-92539593D01*
X96757983Y-92536575D01*
X96811379Y-92524371D01*
X96884407Y-92517078D01*
X96918234Y-92516167D01*
X96988767Y-92520309D01*
G36*
X98676502Y-99749221D02*
G01*
X98716930Y-99637095D01*
X98756410Y-99578789D01*
X98816352Y-99511750D01*
X99035004Y-99511750D01*
X99139572Y-99512976D01*
X99214106Y-99518013D01*
X99270867Y-99528899D01*
X99322118Y-99547672D01*
X99359489Y-99565682D01*
X99447001Y-99622171D01*
X99502505Y-99690359D01*
X99530410Y-99778830D01*
X99535129Y-99896168D01*
X99534661Y-99906569D01*
X99526668Y-99994291D01*
X99508847Y-100060054D01*
X99474733Y-100124097D01*
X99456241Y-100152063D01*
X99394973Y-100226428D01*
X99319104Y-100298366D01*
X99280135Y-100328168D01*
X99211466Y-100370133D01*
X99148734Y-100393358D01*
X99071700Y-100404309D01*
X99034641Y-100406589D01*
X98937242Y-100406682D01*
X98865813Y-100394042D01*
X98821244Y-100375414D01*
X98748501Y-100327350D01*
X98700083Y-100267840D01*
X98671017Y-100187351D01*
X98656328Y-100076353D01*
X98655088Y-100057009D01*
X98655379Y-99944323D01*
X98889576Y-99944323D01*
X98899864Y-99996085D01*
X98940680Y-100037872D01*
X98962571Y-100048051D01*
X99033986Y-100064494D01*
X99118026Y-100070318D01*
X99198804Y-100065787D01*
X99260432Y-100051165D01*
X99275788Y-100042828D01*
X99302823Y-100019775D01*
X99301650Y-99999140D01*
X99274542Y-99966493D01*
X99209258Y-99912577D01*
X99126607Y-99868334D01*
X99045165Y-99842807D01*
X99014363Y-99839833D01*
X98949578Y-99855131D01*
X98907066Y-99893650D01*
X98889576Y-99944323D01*
X98655379Y-99944323D01*
X98655518Y-99890941D01*
X98676502Y-99749221D01*
G37*
X98676502Y-99749221D02*
X98716930Y-99637095D01*
X98756410Y-99578789D01*
X98816352Y-99511750D01*
X99035004Y-99511750D01*
X99139572Y-99512976D01*
X99214106Y-99518013D01*
X99270867Y-99528899D01*
X99322118Y-99547672D01*
X99359489Y-99565682D01*
X99447001Y-99622171D01*
X99502505Y-99690359D01*
X99530410Y-99778830D01*
X99535129Y-99896168D01*
X99534661Y-99906569D01*
X99526668Y-99994291D01*
X99508847Y-100060054D01*
X99474733Y-100124097D01*
X99456241Y-100152063D01*
X99394973Y-100226428D01*
X99319104Y-100298366D01*
X99280135Y-100328168D01*
X99211466Y-100370133D01*
X99148734Y-100393358D01*
X99071700Y-100404309D01*
X99034641Y-100406589D01*
X98937242Y-100406682D01*
X98865813Y-100394042D01*
X98821244Y-100375414D01*
X98748501Y-100327350D01*
X98700083Y-100267840D01*
X98671017Y-100187351D01*
X98656328Y-100076353D01*
X98655088Y-100057009D01*
X98655379Y-99944323D01*
X98889576Y-99944323D01*
X98899864Y-99996085D01*
X98940680Y-100037872D01*
X98962571Y-100048051D01*
X99033986Y-100064494D01*
X99118026Y-100070318D01*
X99198804Y-100065787D01*
X99260432Y-100051165D01*
X99275788Y-100042828D01*
X99302823Y-100019775D01*
X99301650Y-99999140D01*
X99274542Y-99966493D01*
X99209258Y-99912577D01*
X99126607Y-99868334D01*
X99045165Y-99842807D01*
X99014363Y-99839833D01*
X98949578Y-99855131D01*
X98907066Y-99893650D01*
X98889576Y-99944323D01*
X98655379Y-99944323D01*
X98655518Y-99890941D01*
X98676502Y-99749221D01*
G36*
X102224551Y-88893260D02*
G01*
X102285093Y-88921701D01*
X102326615Y-88959897D01*
X102329742Y-88965194D01*
X102343310Y-89000138D01*
X102367139Y-89071256D01*
X102399886Y-89174011D01*
X102440209Y-89303865D01*
X102486766Y-89456280D01*
X102538215Y-89626718D01*
X102593214Y-89810641D01*
X102650420Y-90003511D01*
X102708491Y-90200791D01*
X102766085Y-90397943D01*
X102821860Y-90590429D01*
X102874473Y-90773711D01*
X102922583Y-90943251D01*
X102964847Y-91094512D01*
X102999923Y-91222955D01*
X103020058Y-91299083D01*
X103075906Y-91513399D01*
X103122837Y-91690004D01*
X103162166Y-91832266D01*
X103195206Y-91943551D01*
X103223272Y-92027228D01*
X103247678Y-92086664D01*
X103269737Y-92125225D01*
X103290764Y-92146280D01*
X103312074Y-92153196D01*
X103334980Y-92149341D01*
X103349577Y-92143468D01*
X103378934Y-92122851D01*
X103432432Y-92078498D01*
X103503662Y-92015979D01*
X103586210Y-91940859D01*
X103631457Y-91898688D01*
X103756930Y-91782536D01*
X103857669Y-91694166D01*
X103938248Y-91630811D01*
X104003239Y-91589704D01*
X104057218Y-91568080D01*
X104104756Y-91563171D01*
X104150429Y-91572211D01*
X104163493Y-91576860D01*
X104207291Y-91614002D01*
X104249338Y-91691424D01*
X104289792Y-91809609D01*
X104328812Y-91969040D01*
X104366557Y-92170201D01*
X104374662Y-92219833D01*
X104384309Y-92286638D01*
X104397472Y-92387148D01*
X104413570Y-92516202D01*
X104432019Y-92668637D01*
X104452238Y-92839292D01*
X104473643Y-93023007D01*
X104495652Y-93214619D01*
X104517683Y-93408966D01*
X104539153Y-93600889D01*
X104559480Y-93785224D01*
X104578081Y-93956811D01*
X104594373Y-94110487D01*
X104607774Y-94241093D01*
X104617701Y-94343465D01*
X104623573Y-94412443D01*
X104624949Y-94437493D01*
X104610707Y-94520839D01*
X104570561Y-94588628D01*
X104512854Y-94634946D01*
X104445931Y-94653878D01*
X104378135Y-94639509D01*
X104357675Y-94626953D01*
X104344184Y-94615180D01*
X104332157Y-94598454D01*
X104320921Y-94572973D01*
X104309805Y-94534937D01*
X104298135Y-94480544D01*
X104285240Y-94405993D01*
X104270447Y-94307481D01*
X104253084Y-94181209D01*
X104232479Y-94023374D01*
X104207960Y-93830175D01*
X104186520Y-93659167D01*
X104149562Y-93369340D01*
X104114466Y-93105619D01*
X104081574Y-92870209D01*
X104051228Y-92665320D01*
X104023768Y-92493158D01*
X103999537Y-92355931D01*
X103978877Y-92255847D01*
X103962128Y-92195114D01*
X103958590Y-92186333D01*
X103932279Y-92148115D01*
X103908865Y-92135167D01*
X103880425Y-92147629D01*
X103829802Y-92180514D01*
X103767273Y-92227068D01*
X103758804Y-92233773D01*
X103631940Y-92338566D01*
X103537657Y-92425579D01*
X103472400Y-92499083D01*
X103432614Y-92563353D01*
X103414745Y-92622660D01*
X103412906Y-92649540D01*
X103403221Y-92722824D01*
X103378366Y-92789306D01*
X103344642Y-92834601D01*
X103327528Y-92844476D01*
X103273523Y-92842422D01*
X103206581Y-92812903D01*
X103139463Y-92762096D01*
X103122898Y-92745456D01*
X103072819Y-92676364D01*
X103027866Y-92579961D01*
X102986292Y-92451546D01*
X102946349Y-92286419D01*
X102938596Y-92249516D01*
X102912064Y-92128229D01*
X102881513Y-92000394D01*
X102851312Y-91883787D01*
X102832508Y-91817667D01*
X102809915Y-91740648D01*
X102779046Y-91632464D01*
X102742627Y-91502826D01*
X102703384Y-91361448D01*
X102664044Y-91218040D01*
X102660175Y-91203833D01*
X102614213Y-91038153D01*
X102561230Y-90852351D01*
X102505943Y-90662642D01*
X102453064Y-90485242D01*
X102417115Y-90367750D01*
X102374313Y-90225672D01*
X102332733Y-90079824D01*
X102295456Y-89941592D01*
X102265566Y-89822366D01*
X102248045Y-89743333D01*
X102227315Y-89648967D01*
X102205975Y-89568717D01*
X102186919Y-89512652D01*
X102175998Y-89492663D01*
X102160204Y-89483503D01*
X102141232Y-89488332D01*
X102117125Y-89510279D01*
X102085925Y-89552476D01*
X102045674Y-89618050D01*
X101994415Y-89710134D01*
X101930190Y-89831856D01*
X101851041Y-89986347D01*
X101783086Y-90120876D01*
X101689071Y-90305355D01*
X101609931Y-90454604D01*
X101543244Y-90572033D01*
X101486591Y-90661051D01*
X101437548Y-90725067D01*
X101393694Y-90767491D01*
X101352608Y-90791732D01*
X101311868Y-90801198D01*
X101299517Y-90801666D01*
X101224703Y-90785179D01*
X101174480Y-90740808D01*
X101155799Y-90676191D01*
X101158627Y-90646829D01*
X101171835Y-90607602D01*
X101200923Y-90537451D01*
X101242798Y-90443298D01*
X101294368Y-90332062D01*
X101352543Y-90210666D01*
X101363690Y-90187833D01*
X101466535Y-89975346D01*
X101559051Y-89779265D01*
X101639698Y-89603088D01*
X101706938Y-89450317D01*
X101759230Y-89324451D01*
X101795036Y-89228990D01*
X101812815Y-89167435D01*
X101813065Y-89166089D01*
X101848872Y-89071943D01*
X101914309Y-88990496D01*
X101999745Y-88928135D01*
X102095545Y-88891248D01*
X102192075Y-88886221D01*
X102224551Y-88893260D01*
G37*
X102224551Y-88893260D02*
X102285093Y-88921701D01*
X102326615Y-88959897D01*
X102329742Y-88965194D01*
X102343310Y-89000138D01*
X102367139Y-89071256D01*
X102399886Y-89174011D01*
X102440209Y-89303865D01*
X102486766Y-89456280D01*
X102538215Y-89626718D01*
X102593214Y-89810641D01*
X102650420Y-90003511D01*
X102708491Y-90200791D01*
X102766085Y-90397943D01*
X102821860Y-90590429D01*
X102874473Y-90773711D01*
X102922583Y-90943251D01*
X102964847Y-91094512D01*
X102999923Y-91222955D01*
X103020058Y-91299083D01*
X103075906Y-91513399D01*
X103122837Y-91690004D01*
X103162166Y-91832266D01*
X103195206Y-91943551D01*
X103223272Y-92027228D01*
X103247678Y-92086664D01*
X103269737Y-92125225D01*
X103290764Y-92146280D01*
X103312074Y-92153196D01*
X103334980Y-92149341D01*
X103349577Y-92143468D01*
X103378934Y-92122851D01*
X103432432Y-92078498D01*
X103503662Y-92015979D01*
X103586210Y-91940859D01*
X103631457Y-91898688D01*
X103756930Y-91782536D01*
X103857669Y-91694166D01*
X103938248Y-91630811D01*
X104003239Y-91589704D01*
X104057218Y-91568080D01*
X104104756Y-91563171D01*
X104150429Y-91572211D01*
X104163493Y-91576860D01*
X104207291Y-91614002D01*
X104249338Y-91691424D01*
X104289792Y-91809609D01*
X104328812Y-91969040D01*
X104366557Y-92170201D01*
X104374662Y-92219833D01*
X104384309Y-92286638D01*
X104397472Y-92387148D01*
X104413570Y-92516202D01*
X104432019Y-92668637D01*
X104452238Y-92839292D01*
X104473643Y-93023007D01*
X104495652Y-93214619D01*
X104517683Y-93408966D01*
X104539153Y-93600889D01*
X104559480Y-93785224D01*
X104578081Y-93956811D01*
X104594373Y-94110487D01*
X104607774Y-94241093D01*
X104617701Y-94343465D01*
X104623573Y-94412443D01*
X104624949Y-94437493D01*
X104610707Y-94520839D01*
X104570561Y-94588628D01*
X104512854Y-94634946D01*
X104445931Y-94653878D01*
X104378135Y-94639509D01*
X104357675Y-94626953D01*
X104344184Y-94615180D01*
X104332157Y-94598454D01*
X104320921Y-94572973D01*
X104309805Y-94534937D01*
X104298135Y-94480544D01*
X104285240Y-94405993D01*
X104270447Y-94307481D01*
X104253084Y-94181209D01*
X104232479Y-94023374D01*
X104207960Y-93830175D01*
X104186520Y-93659167D01*
X104149562Y-93369340D01*
X104114466Y-93105619D01*
X104081574Y-92870209D01*
X104051228Y-92665320D01*
X104023768Y-92493158D01*
X103999537Y-92355931D01*
X103978877Y-92255847D01*
X103962128Y-92195114D01*
X103958590Y-92186333D01*
X103932279Y-92148115D01*
X103908865Y-92135167D01*
X103880425Y-92147629D01*
X103829802Y-92180514D01*
X103767273Y-92227068D01*
X103758804Y-92233773D01*
X103631940Y-92338566D01*
X103537657Y-92425579D01*
X103472400Y-92499083D01*
X103432614Y-92563353D01*
X103414745Y-92622660D01*
X103412906Y-92649540D01*
X103403221Y-92722824D01*
X103378366Y-92789306D01*
X103344642Y-92834601D01*
X103327528Y-92844476D01*
X103273523Y-92842422D01*
X103206581Y-92812903D01*
X103139463Y-92762096D01*
X103122898Y-92745456D01*
X103072819Y-92676364D01*
X103027866Y-92579961D01*
X102986292Y-92451546D01*
X102946349Y-92286419D01*
X102938596Y-92249516D01*
X102912064Y-92128229D01*
X102881513Y-92000394D01*
X102851312Y-91883787D01*
X102832508Y-91817667D01*
X102809915Y-91740648D01*
X102779046Y-91632464D01*
X102742627Y-91502826D01*
X102703384Y-91361448D01*
X102664044Y-91218040D01*
X102660175Y-91203833D01*
X102614213Y-91038153D01*
X102561230Y-90852351D01*
X102505943Y-90662642D01*
X102453064Y-90485242D01*
X102417115Y-90367750D01*
X102374313Y-90225672D01*
X102332733Y-90079824D01*
X102295456Y-89941592D01*
X102265566Y-89822366D01*
X102248045Y-89743333D01*
X102227315Y-89648967D01*
X102205975Y-89568717D01*
X102186919Y-89512652D01*
X102175998Y-89492663D01*
X102160204Y-89483503D01*
X102141232Y-89488332D01*
X102117125Y-89510279D01*
X102085925Y-89552476D01*
X102045674Y-89618050D01*
X101994415Y-89710134D01*
X101930190Y-89831856D01*
X101851041Y-89986347D01*
X101783086Y-90120876D01*
X101689071Y-90305355D01*
X101609931Y-90454604D01*
X101543244Y-90572033D01*
X101486591Y-90661051D01*
X101437548Y-90725067D01*
X101393694Y-90767491D01*
X101352608Y-90791732D01*
X101311868Y-90801198D01*
X101299517Y-90801666D01*
X101224703Y-90785179D01*
X101174480Y-90740808D01*
X101155799Y-90676191D01*
X101158627Y-90646829D01*
X101171835Y-90607602D01*
X101200923Y-90537451D01*
X101242798Y-90443298D01*
X101294368Y-90332062D01*
X101352543Y-90210666D01*
X101363690Y-90187833D01*
X101466535Y-89975346D01*
X101559051Y-89779265D01*
X101639698Y-89603088D01*
X101706938Y-89450317D01*
X101759230Y-89324451D01*
X101795036Y-89228990D01*
X101812815Y-89167435D01*
X101813065Y-89166089D01*
X101848872Y-89071943D01*
X101914309Y-88990496D01*
X101999745Y-88928135D01*
X102095545Y-88891248D01*
X102192075Y-88886221D01*
X102224551Y-88893260D01*
D10*
%TO.C,U1*%
X176390000Y-76240000D02*
X158610000Y-76240000D01*
X158610000Y-45760000D02*
X158610000Y-76240000D01*
X176390000Y-45760000D02*
X176390000Y-76240000D01*
X158610000Y-45760000D02*
X176390000Y-45760000D01*
%TO.C,J2*%
X178250000Y-86050000D02*
X180250000Y-86050000D01*
X178250000Y-86300000D02*
X166150000Y-86300000D01*
X166150000Y-86300000D02*
X166150000Y-80200000D01*
X178250000Y-80200000D02*
X166150000Y-80200000D01*
X178250000Y-86300000D02*
X178250000Y-80200000D01*
X180250000Y-86050000D02*
X180250000Y-80450000D01*
X178250000Y-80450000D02*
X180250000Y-80450000D01*
%TD*%
M02*
