M48
; DRILL file {KiCad (6.0.4)} date Sun Aug 14 15:03:21 2022
; FORMAT={-:-/ absolute / inch / decimal}
; #@! TF.CreationDate,2022-08-14T15:03:21+10:00
; #@! TF.GenerationSoftware,Kicad,Pcbnew,(6.0.4)
; #@! TF.FileFunction,NonPlated,1,2,NPTH
FMAT,2
INCH
; #@! TA.AperFunction,NonPlated,NPTH,ComponentDrill
T1C0.0315
; #@! TA.AperFunction,NonPlated,NPTH,ComponentDrill
T2C0.0669
; #@! TA.AperFunction,NonPlated,NPTH,ComponentDrill
T3C0.1339
%
G90
G05
T1
X6.6791Y-3.2776
X6.9547Y-3.2776
T2
X2.0669Y-2.7642
X2.0669Y-3.4335
X2.5Y-2.7642
X2.5Y-3.4335
X2.7756Y-2.7642
X2.7756Y-3.4335
X3.2087Y-2.7642
X3.2087Y-3.4335
X3.4843Y-2.2681
X3.4843Y-2.9374
X3.9173Y-2.2681
X3.9173Y-2.9374
X4.1929Y-2.1264
X4.1929Y-2.7957
X4.626Y-2.1264
X4.626Y-2.7957
X4.689Y-3.9109
X4.9016Y-2.3602
X4.9016Y-3.0295
X5.122Y-3.9184
X5.3346Y-2.3602
X5.3346Y-3.0295
X5.3958Y-4.0236
X5.6102Y-2.4311
X5.6102Y-3.1004
X5.8288Y-4.0312
X6.0433Y-2.4311
X6.0433Y-3.1004
X6.1026Y-4.1364
X6.5356Y-4.1439
T3
X2.2835Y-2.7642
X2.2835Y-3.4335
X2.9921Y-2.7642
X2.9921Y-3.4335
X3.7008Y-2.2681
X3.7008Y-2.9374
X4.4094Y-2.1264
X4.4094Y-2.7957
X4.9055Y-3.9147
X5.1181Y-2.3602
X5.1181Y-3.0295
X5.6123Y-4.0274
X5.8268Y-2.4311
X5.8268Y-3.1004
X6.3191Y-4.1401
T0
M30
