M48
; DRILL file {KiCad (6.0.4)} date Sun Aug 14 15:03:21 2022
; FORMAT={-:-/ absolute / inch / decimal}
; #@! TF.CreationDate,2022-08-14T15:03:21+10:00
; #@! TF.GenerationSoftware,Kicad,Pcbnew,(6.0.4)
; #@! TF.FileFunction,Plated,1,2,PTH
FMAT,2
INCH
; #@! TA.AperFunction,Plated,PTH,ComponentDrill
T1C0.0157
; #@! TA.AperFunction,Plated,PTH,ComponentDrill
T2C0.0354
; #@! TA.AperFunction,Plated,PTH,ComponentDrill
T3C0.0433
; #@! TA.AperFunction,Plated,PTH,ComponentDrill
T4C0.0472
; #@! TA.AperFunction,Plated,PTH,ComponentDrill
T5C0.0866
%
G90
G05
T1
X6.5645Y-1.8516
X6.5645Y-1.9516
X6.5645Y-2.0516
X6.5645Y-2.1516
X6.5645Y-2.2516
X6.5645Y-2.3516
X6.5645Y-2.4516
X6.5645Y-2.5516
X6.5645Y-2.6516
X6.5645Y-2.7516
X6.5645Y-2.8516
X6.5645Y-2.9516
X6.6245Y-1.8516
X6.6245Y-1.9516
X6.6245Y-2.0516
X6.6245Y-2.1516
X6.6245Y-2.2516
X6.6245Y-2.3516
X6.6245Y-2.4516
X6.6245Y-2.5516
X6.6245Y-2.6516
X6.6245Y-2.7516
X6.6245Y-2.8516
X6.6245Y-2.9516
T3
X6.2945Y-1.8516
X6.2945Y-1.8516
X6.2945Y-1.9516
X6.2945Y-2.0516
X6.2945Y-2.1516
X6.2945Y-2.2516
X6.2945Y-2.3516
X6.2945Y-2.4516
X6.2945Y-2.5516
X6.2945Y-2.6516
X6.2945Y-2.7516
X6.2945Y-2.8516
X6.2945Y-2.9516
X6.8945Y-1.8516
X6.8945Y-1.8516
X6.8945Y-1.9516
X6.8945Y-2.0516
X6.8945Y-2.1516
X6.8945Y-2.2516
X6.8945Y-2.3516
X6.8945Y-2.4516
X6.8945Y-2.5516
X6.8945Y-2.6516
X6.8945Y-2.7516
X6.8945Y-2.8516
X6.8945Y-2.9516
T4
X2.0866Y-2.6146
X2.0866Y-3.2839
X2.2835Y-2.5319
X2.2835Y-3.2012
X2.4803Y-2.6146
X2.4803Y-3.2839
X2.7953Y-2.6146
X2.7953Y-3.2839
X2.9921Y-2.5319
X2.9921Y-3.2012
X3.189Y-2.6146
X3.189Y-3.2839
X3.5039Y-2.1185
X3.5039Y-2.7878
X3.7008Y-2.0358
X3.7008Y-2.7051
X3.8976Y-2.1185
X3.8976Y-2.7878
X4.2126Y-1.9768
X4.2126Y-2.6461
X4.4094Y-1.8941
X4.4094Y-2.5634
X4.6063Y-1.9768
X4.6063Y-2.6461
X4.7113Y-3.7616
X4.9096Y-3.6824
X4.9213Y-2.2106
X4.9213Y-2.8799
X5.1049Y-3.7685
X5.1181Y-2.128
X5.1181Y-2.7972
X5.315Y-2.2106
X5.315Y-2.8799
X5.4181Y-3.8744
X5.6164Y-3.7952
X5.6299Y-2.2815
X5.6299Y-2.9508
X5.8117Y-3.8813
X5.8268Y-2.1988
X5.8268Y-2.8681
X6.0236Y-2.2815
X6.0236Y-2.9508
X6.1249Y-3.9871
X6.3232Y-3.9079
X6.5185Y-3.994
T5
X2.1457Y-1.9685
X2.1457Y-4.2717
X3.7185Y-3.4941
X4.4685Y-4.2441
X5.2185Y-3.4941
X6.0335Y-1.9488
X6.811Y-4.252
T2
G00X6.5642Y-3.3669
M15
G01X6.5799Y-3.3669
M16
G05
G00X6.5807Y-3.187
M15
G01X6.565Y-3.187
M16
G05
G00X6.6075Y-3.1858
M15
G01X6.6232Y-3.1858
M16
G05
G00X6.624Y-3.3681
M15
G01X6.6083Y-3.3681
M16
G05
G00X6.765Y-3.1858
M15
G01X6.7807Y-3.1858
M16
G05
G00X6.7815Y-3.3681
M15
G01X6.7657Y-3.3681
M16
G05
G00X6.8831Y-3.1858
M15
G01X6.8988Y-3.1858
M16
G05
G00X6.8996Y-3.3681
M15
G01X6.8839Y-3.3681
M16
G05
T0
M30
